<?xml version="1.0" encoding="UTF-8" standalone="no"?>
<!DOCTYPE svg PUBLIC "-//W3C//DTD SVG 1.1//EN" "http://www.w3.org/Graphics/SVG/1.1/DTD/svg11.dtd">
<svg width="100%" height="100%" viewBox="0 0 292 267" version="1.1" xmlns="http://www.w3.org/2000/svg" xmlns:xlink="http://www.w3.org/1999/xlink" xml:space="preserve" xmlns:serif="http://www.serif.com/" style="fill-rule:evenodd;clip-rule:evenodd;strokeLinejoin:round;stroke-miterlimit:2;">
    <g id="Artboard1" transform="matrix(0.952834,0,0,0.906625,-1080.25,-548.166)">
        <rect x="1133.72" y="604.623" width="306.977" height="294.884" style="fill:none;"/>
        <g transform="matrix(1.0495,0,0,1.10299,-46.1521,147.728)">
            <g transform="matrix(1.20693,0,0,1.20693,1188.75,487.326)">
                <g transform="matrix(1,0,0,1,-52.5,-59)">
                    <clipPath id="_clip1">
                        <rect x="0" y="0" width="105" height="118"/>
                    </clipPath>
                    <g clip-path="url(#_clip1)">
                        <path d="M46.867,1.634L7.399,22.599C2.849,25.009 0.015,29.724 0.015,34.866L0.015,79.085C0.015,83.799 2.42,88.194 6.388,90.757L43.68,114.789C48.062,117.612 53.669,117.764 58.204,115.185L96.998,93.046C101.333,90.574 104.015,85.966 104.015,80.992L104.015,35.644C104.015,30.747 101.425,26.2 97.197,23.697L60.564,1.954C56.366,-0.533 51.172,-0.655 46.851,1.634L46.867,1.634Z" style="fill:white;fill-opacity:0.4;fill-rule:nonzero;"/>
                    </g>
                </g>
            </g>
            <g transform="matrix(1.20693,0,0,1.20693,1352.66,609.186)">
                <g transform="matrix(1,0,0,1,-52.5,-59)">
                    <clipPath id="_clip2">
                        <rect x="0" y="0" width="105" height="118"/>
                    </clipPath>
                    <g clip-path="url(#_clip2)">
                        <path d="M46.867,1.634L7.399,22.599C2.849,25.009 0.015,29.724 0.015,34.866L0.015,79.085C0.015,83.799 2.42,88.194 6.388,90.757L43.68,114.789C48.062,117.612 53.669,117.764 58.204,115.185L96.998,93.046C101.333,90.574 104.015,85.966 104.015,80.992L104.015,35.644C104.015,30.747 101.425,26.2 97.197,23.697L60.564,1.954C56.366,-0.533 51.172,-0.655 46.851,1.634L46.867,1.634Z" style="fill:white;fill-opacity:0.4;fill-rule:nonzero;"/>
                    </g>
                </g>
            </g>
        </g>
    </g>
</svg>
