<svg width="232" height="68" viewBox="0 0 232 68" fill="none" xmlns="http://www.w3.org/2000/svg">
<path d="M27.4688 43.832C28.2201 43.8321 28.8399 44.0758 29.3311 44.5635L33.0117 48.3018C33.5322 48.8186 33.792 49.4776 33.792 50.2783V67.9033H26.6436V63.0869H7.15918V67.9033H0.0136719V50.2783C0.0136772 49.4775 0.27436 48.815 0.794922 48.3018L4.47559 44.5635C4.9668 44.0758 5.58643 43.832 6.33789 43.832H27.4688ZM123.755 49.2041H101.675L99.5967 51.2686V53.416H123.755V58.3154H99.5967V60.3789L101.719 62.5264H123.759V67.9033H98.7754C98.0239 67.9033 97.4043 67.6586 96.9131 67.1709L93.2324 63.4326C92.712 62.9159 92.4513 62.2575 92.4512 61.457V50.1943C92.4512 49.4483 92.7263 48.804 93.2725 48.2617L96.9531 44.5635C97.4444 44.0758 98.0493 43.832 98.7715 43.832H123.755V49.2041ZM87.2607 67.9023H80.1152V43.8281H87.2607V67.9023ZM154.398 43.8281C155.121 43.8281 155.729 44.0719 156.221 44.5596L159.861 48.2578C160.411 48.8037 160.685 49.448 160.686 50.1904V56.7686L163.476 59.3887C163.644 59.5343 163.821 59.8334 164.004 60.292C164.187 60.7503 164.278 61.096 164.278 61.3252V67.9023H157.141V62.5303C156.679 62.0716 155.972 61.383 155.019 60.4658H135.967V67.9023H128.821V46.5801C128.821 44.7456 129.702 43.8281 131.465 43.8281H154.398ZM196.022 49.332H183.162V67.9023H176.017V49.332H163.16V43.8281H196.022V49.332ZM64.9639 43.8252C65.6861 43.8252 66.291 44.0689 66.7822 44.5566L70.4189 48.2549C70.9687 48.8008 71.2402 49.4451 71.2402 50.1875V53.4121H72.9707C73.5204 53.4122 73.9826 53.6778 74.3564 54.209C74.7303 54.7403 74.9208 55.2903 74.9209 55.8652V61.4531C74.9208 62.2574 74.6604 62.9165 74.1436 63.4297L70.4629 67.168C69.9717 67.6556 69.352 67.8994 68.6006 67.8994H41.626C39.8666 67.8993 38.9873 66.9818 38.9873 65.1475V46.5762C38.9874 44.742 39.8667 43.8253 41.626 43.8252H64.9639ZM225.673 43.8281C226.395 43.8282 227 44.0719 227.491 44.5596L231.172 48.2578C231.718 48.8037 231.992 49.4481 231.992 50.1904V61.4531H232C232 62.2573 231.739 62.9156 231.219 63.4287L227.538 67.167C227.047 67.6547 226.427 67.8994 225.676 67.8994H203.681C202.929 67.8994 202.31 67.6547 201.818 67.167L198.138 63.4287C197.617 62.912 197.357 62.2536 197.356 61.4531V50.1904C197.357 49.4444 197.632 48.8001 198.178 48.2578L201.858 44.5596C202.35 44.0719 202.955 43.8281 203.677 43.8281H225.673ZM46.1279 62.5303H65.6973L67.7754 60.3789V58.3154H46.1279V62.5303ZM204.509 51.3916V60.248L206.632 62.3955H222.74L224.862 60.248H224.858V51.3486L222.824 49.3281H206.588L204.509 51.3916ZM7.16309 51.4795V57.6709H26.6475V51.4795L24.4805 49.3281H9.28516L7.16309 51.4795ZM135.97 54.9629H153.549V51.3516L151.47 49.332H135.97V54.9629ZM46.1279 53.4121H64.1387V51.2207L62.1045 49.2012H46.1279V53.4121ZM28.334 12.7148C29.0853 12.7149 29.7051 12.9586 30.1963 13.4463L33.877 17.1875C34.3974 17.7043 34.6572 18.3634 34.6572 19.1641V22.3457H27.5127V20.2822L25.3896 18.2178H9.24121L7.16309 20.2822V29.1377L9.28516 31.2891H25.4336L27.5127 29.2246V27.0742H34.6572V30.4258L34.6445 30.6973C34.5845 31.328 34.314 31.8808 33.8359 32.3555L30.1553 36.0537C29.6641 36.5413 29.059 36.7852 28.3369 36.7852H6.3418C5.59039 36.7852 4.97069 36.5413 4.47949 36.0537L0.798828 32.3154C0.278261 31.7986 0.0175781 31.1397 0.0175781 30.3389V19.0771C0.0175781 18.331 0.292758 17.6868 0.838867 17.1445L4.51953 13.4463C5.01077 12.9585 5.6157 12.7148 6.33789 12.7148H28.334ZM68.1641 12.7139C68.8863 12.7139 69.4912 12.9585 69.9824 13.4463L73.6631 17.1436C74.213 17.6895 74.4844 18.3346 74.4844 19.0771V30.3389H74.4883C74.4883 31.1432 74.2276 31.8022 73.707 32.3154L70.0264 36.0537C69.5352 36.5413 68.9155 36.7852 68.1641 36.7852H46.1689C45.4176 36.7852 44.7978 36.5412 44.3066 36.0537L40.626 32.3154C40.1054 31.7986 39.8487 31.1396 39.8486 30.3389V19.0771C39.8486 18.331 40.1237 17.6859 40.6699 17.1436L44.3506 13.4463C44.8418 12.9585 45.4468 12.7139 46.1689 12.7139H68.1641ZM126.662 36.7852H119.518V12.7109H126.662V36.7852ZM107.999 12.707C108.721 12.7071 109.326 12.9508 109.817 13.4385L113.498 17.1367C114.044 17.6826 114.318 18.327 114.318 19.0693V30.332L114.322 30.335C114.322 31.1393 114.062 31.7983 113.542 32.3115L109.861 36.0498C109.37 36.5375 108.75 36.7812 107.999 36.7812H82.3223C80.5626 36.7812 79.6826 35.8638 79.6826 34.0293V15.459C79.6826 13.6245 80.5626 12.707 82.3223 12.707H107.999ZM165.448 17.999H141.117L138.994 20.1904V29.2607L141.117 31.4121H157.222L159.344 29.2607V27.1973H143.845V22.2979H163.85C165.609 22.2979 166.489 23.2153 166.489 25.0498V30.3389L166.493 30.335C166.493 31.1394 166.232 31.7983 165.712 32.3115L162.031 36.0498C161.54 36.5375 160.92 36.7812 160.169 36.7812H138.173C137.422 36.7812 136.802 36.5375 136.311 36.0498L132.63 32.3115C132.109 31.7947 131.85 31.1356 131.85 30.335V19.0732C131.85 18.3271 132.125 17.683 132.671 17.1406L136.352 13.4424C136.843 12.9546 137.448 12.7109 138.17 12.7109H165.448V17.999ZM200 12.7109C200.722 12.711 201.327 12.9547 201.818 13.4424L205.499 17.1406C206.045 17.6865 206.32 18.3309 206.32 19.0732V30.335H206.327C206.327 31.1394 206.066 31.7983 205.546 32.3115L201.865 36.0498C201.374 36.5372 200.755 36.7811 200.004 36.7812H178.008C177.256 36.7812 176.637 36.5375 176.146 36.0498L172.465 32.3115C171.944 31.7947 171.684 31.1357 171.684 30.335V19.0732C171.684 18.3272 171.959 17.6829 172.505 17.1406L176.186 13.4424C176.677 12.9546 177.282 12.7109 178.004 12.7109H200ZM46.9932 20.2783V29.1338L49.1162 31.2812H65.2246L67.3467 29.1338H67.3428V20.2344L65.3086 18.2139H49.0723L46.9932 20.2783ZM86.8281 31.2812H105.055L107.178 29.1338V20.2344L105.143 18.2139H86.8281V31.2812ZM178.832 20.2783V29.1338L180.955 31.2812H197.063L199.186 29.1338H199.183V20.2344L197.147 18.2139H180.911L178.832 20.2783ZM73.9268 4.62598V4.62988L69.165 9.27441C68.6151 9.8204 67.981 10.0898 67.2588 10.0898H39.8525V4.58594H64.7041L68.4727 0.672852L73.9268 4.62598Z" fill="white"/>
</svg>
