<svg width="213" height="27" viewBox="0 0 213 27" fill="none" xmlns="http://www.w3.org/2000/svg">
<g id="Capa_1" clip-path="url(#clip0_6325_841)">
<path id="Vector" d="M90.0377 4.39986H89.6116V23.7266H90.0377V4.39986Z" fill="white"/>
<path id="Vector_2" d="M127.711 4.39986H127.285V23.7266H127.711V4.39986Z" fill="white"/>
<path id="Vector_3" d="M144.317 10.5309C144.317 10.7892 144.221 11.0122 144.031 11.1999L142.75 12.4801C142.579 12.6489 142.369 12.7333 142.117 12.7333H134.462C134.2 12.7333 133.985 12.6489 133.814 12.4801L132.533 11.1861C132.352 11.0072 132.261 10.7791 132.261 10.5019V6.60355C132.261 6.34526 132.357 6.12224 132.547 5.93451L133.828 4.65437C133.999 4.48554 134.209 4.40112 134.461 4.40112H142.116C142.378 4.40112 142.593 4.48554 142.764 4.65437L144.045 5.94963C144.226 6.12854 144.317 6.3566 144.317 6.63379V7.73501H141.83V7.02061L141.091 6.3062H135.471L134.748 7.02061V10.0861L135.486 10.8308H141.107L141.83 10.1164V9.37172H144.317V10.5322V10.5309Z" fill="white"/>
<path id="Vector_4" d="M155.693 10.0849V7.00422L154.985 6.30494H149.334L148.611 7.01934V10.0849L149.349 10.8282H154.956L155.694 10.0849H155.693ZM158.18 10.5019C158.18 10.7804 158.089 11.0084 157.908 11.1861L156.627 12.4801C156.456 12.6489 156.24 12.7333 155.979 12.7333H148.323C148.062 12.7333 147.846 12.6489 147.675 12.4801L146.394 11.1861C146.213 11.0072 146.124 10.7791 146.124 10.5019V6.60355C146.124 6.34526 146.219 6.12224 146.41 5.93451L147.691 4.65437C147.862 4.48554 148.072 4.40112 148.323 4.40112H155.979C156.23 4.40112 156.441 4.48554 156.612 4.65437L157.893 5.93451C158.084 6.1235 158.178 6.34652 158.178 6.60355V10.5019H158.18ZM157.985 1.60271L156.327 3.21044C156.136 3.39944 155.915 3.49267 155.664 3.49267H146.125V1.58759H154.774L156.086 0.23312L157.985 1.60145V1.60271Z" fill="white"/>
<path id="Vector_5" d="M169.557 10.0849V7.00422L168.849 6.30494H162.474V10.8282H168.818L169.557 10.0849ZM172.044 10.5007C172.044 10.7791 171.953 11.0072 171.772 11.1848L170.491 12.4788C170.32 12.6477 170.104 12.7321 169.843 12.7321H160.906C160.294 12.7321 159.988 12.4146 159.988 11.7795V5.35114C159.988 4.71611 160.294 4.3986 160.906 4.3986H169.843C170.094 4.3986 170.304 4.48301 170.475 4.65185L171.756 5.93199C171.947 6.12098 172.042 6.344 172.042 6.60103V10.4994L172.044 10.5007Z" fill="white"/>
<path id="Vector_6" d="M176.338 4.39986H173.852V12.7333H176.338V4.39986Z" fill="white"/>
<path id="Vector_7" d="M190.201 10.5007C190.201 10.7791 190.11 11.0072 189.929 11.1848L188.648 12.4788C188.477 12.6477 188.261 12.7321 188 12.7321H180.344C180.083 12.7321 179.867 12.6477 179.696 12.4788L178.415 11.1848C178.234 11.0059 178.144 10.7778 178.144 10.5007V6.60229C178.144 6.344 178.239 6.12098 178.429 5.93325L179.71 4.65311C179.881 4.48428 180.092 4.39986 180.343 4.39986H189.837V6.2306H181.369L180.63 6.98911V10.129L181.369 10.8736H186.974L187.713 10.129V9.41456H182.318V7.71863H189.281C189.893 7.71863 190.2 8.03614 190.2 8.67117V10.5019L190.201 10.5007Z" fill="white"/>
<path id="Vector_8" d="M201.578 10.0849V7.00422L200.87 6.30494H195.219L194.496 7.01934V10.0849L195.234 10.8282H200.841L201.579 10.0849H201.578ZM204.065 10.5007C204.065 10.7791 203.974 11.0072 203.793 11.1848L202.512 12.4788C202.341 12.6477 202.125 12.7321 201.864 12.7321H194.208C193.947 12.7321 193.731 12.6477 193.56 12.4788L192.279 11.1848C192.098 11.0059 192.008 10.7778 192.008 10.5007V6.60229C192.008 6.344 192.103 6.12098 192.293 5.93325L193.574 4.65311C193.745 4.48428 193.956 4.39986 194.207 4.39986H201.863C202.114 4.39986 202.324 4.48428 202.495 4.65311L203.776 5.93325C203.967 6.12224 204.062 6.34526 204.062 6.60229V10.5007H204.065Z" fill="white"/>
<path id="Vector_9" d="M141.529 19.9631V17.8198L140.775 17.0752H135.487L134.748 17.8198V19.9631H141.529ZM144.015 23.5049H141.528V21.8379H134.746V23.5049H132.26V17.4041C132.26 17.1269 132.35 16.8975 132.532 16.7199L133.813 15.4259C133.984 15.2571 134.199 15.1726 134.461 15.1726H141.815C142.077 15.1726 142.292 15.2571 142.463 15.4259L143.744 16.7199C143.925 16.8988 144.016 17.1269 144.016 17.4041V23.5049H144.015Z" fill="white"/>
<path id="Vector_10" d="M155.844 20.9005V20.1861H148.309V21.6451H155.12L155.844 20.9005ZM154.578 18.4889V17.7304L153.87 17.0311H148.309V18.4889H154.578ZM158.33 21.2722C158.33 21.5506 158.24 21.7787 158.06 21.9563L156.779 23.2503C156.608 23.4192 156.392 23.5036 156.131 23.5036H146.743C146.13 23.5036 145.824 23.1861 145.824 22.5511V16.1227C145.824 15.4876 146.13 15.1701 146.743 15.1701H154.865C155.116 15.1701 155.327 15.2545 155.498 15.4234L156.764 16.7035C156.955 16.8925 157.049 17.1155 157.049 17.3726V18.4889H157.652C157.843 18.4889 158.004 18.5809 158.134 18.7648C158.264 18.9488 158.33 19.139 158.33 19.3381V21.2722Z" fill="white"/>
<path id="Vector_11" d="M162.625 15.1714H160.138V23.5049H162.625V15.1714Z" fill="white"/>
<path id="Vector_12" d="M175.328 23.5049H166.633C166.371 23.5049 166.155 23.4204 165.984 23.2516L164.703 21.9576C164.522 21.7787 164.432 21.5506 164.432 21.2734V17.3751C164.432 17.1168 164.527 16.8938 164.717 16.706L165.998 15.4259C166.169 15.2571 166.38 15.1726 166.631 15.1726H175.327V17.0324H167.642L166.918 17.7468V18.4902H175.327V20.1861H166.918V20.9005L167.657 21.6439H175.328V23.5036V23.5049Z" fill="white"/>
<path id="Vector_13" d="M185.696 19.0256V17.7758L184.972 17.0765H179.578V19.0256H185.696ZM189.433 23.5049H186.946V21.6451C186.785 21.4864 186.539 21.2482 186.207 20.9307H179.577V23.5049H177.09V16.1239C177.09 15.4889 177.396 15.1714 178.01 15.1714H185.992C186.243 15.1714 186.455 15.2558 186.626 15.4246L187.893 16.7048C188.084 16.8938 188.18 17.1168 188.18 17.3738V19.6506L189.151 20.5578C189.21 20.6082 189.271 20.7115 189.335 20.8702C189.398 21.029 189.43 21.1487 189.43 21.2281V23.5049H189.433Z" fill="white"/>
<path id="Vector_14" d="M200.478 17.0765H196.003V23.5049H193.516V17.0765H189.041V15.1714H200.478V17.0765Z" fill="white"/>
<path id="Vector_15" d="M210.515 20.8551V17.7745L209.807 17.0752H204.156L203.432 17.7896V20.8551L204.171 21.5985H209.777L210.516 20.8551H210.515ZM213 21.2722C213 21.5506 212.91 21.7787 212.728 21.9563L211.447 23.2503C211.276 23.4192 211.061 23.5036 210.799 23.5036H203.144C202.882 23.5036 202.667 23.4192 202.496 23.2503L201.215 21.9563C201.033 21.7774 200.943 21.5494 200.943 21.2722V17.3738C200.943 17.1155 201.039 16.8925 201.229 16.7048L202.51 15.4246C202.681 15.2558 202.891 15.1714 203.143 15.1714H210.798C211.049 15.1714 211.26 15.2558 211.431 15.4246L212.712 16.7048C212.902 16.8938 212.998 17.1168 212.998 17.3738V21.2722H213Z" fill="white"/>
<g id="Group">
<path id="Vector_16" d="M33.6108 8.02858V8.00591C33.6108 5.69385 35.3614 3.77743 37.7511 3.77743C39.1227 3.77743 39.9865 4.24488 40.7903 4.92275C40.849 4.98071 40.909 5.0626 40.909 5.16718C40.909 5.33098 40.7546 5.47084 40.59 5.47084C40.5071 5.47084 40.4241 5.43556 40.3769 5.38894C39.6905 4.77029 38.8982 4.32552 37.7397 4.32552C35.7531 4.32552 34.2501 5.92569 34.2501 7.98197V8.00591C34.2501 10.0735 35.776 11.685 37.7511 11.685C38.8752 11.685 39.6675 11.2881 40.4484 10.5523C40.4956 10.5057 40.567 10.4591 40.6615 10.4591C40.8158 10.4591 40.9575 10.5989 40.9575 10.7514C40.9575 10.8446 40.9103 10.9152 40.8631 10.9618C40.0235 11.7329 39.1125 12.2344 37.7282 12.2344C35.3627 12.2344 33.6121 10.3772 33.6121 8.02858" fill="white"/>
<path id="Vector_17" d="M47.0244 9.13862V9.11594C47.0244 7.67957 45.9361 6.53425 44.5403 6.53425C43.1444 6.53425 42.0803 7.69091 42.0803 9.092V9.11594C42.0803 10.5523 43.1687 11.6976 44.5645 11.6976C45.9603 11.6976 47.0244 10.541 47.0244 9.13988M41.4539 9.13862V9.11594C41.4539 7.44522 42.7668 5.99751 44.5645 5.99751C46.3622 5.99751 47.6522 7.42254 47.6522 9.09326V9.1172C47.6522 10.7879 46.3393 12.2356 44.5415 12.2356C42.7438 12.2356 41.4539 10.8106 41.4539 9.13988" fill="white"/>
<path id="Vector_18" d="M48.8477 6.3818C48.8477 6.218 48.9663 6.08948 49.1322 6.08948C49.298 6.08948 49.4282 6.20666 49.4282 6.3818V7.24614C49.8301 6.5456 50.505 5.99625 51.6049 5.99625C53.1309 5.99625 54.0176 7.02439 54.0176 8.44942V11.8488C54.0176 12.024 53.8989 12.1411 53.7331 12.1411C53.5672 12.1411 53.4371 12.024 53.4371 11.8488V8.55526C53.4371 7.32804 52.7391 6.52292 51.5207 6.52292C50.3022 6.52292 49.4269 7.4112 49.4269 8.64849V11.8488C49.4269 12.024 49.3083 12.1411 49.1437 12.1411C48.9791 12.1411 48.8477 12.024 48.8477 11.8488V6.3818Z" fill="white"/>
<path id="Vector_19" d="M60.5694 8.83497V8.81103C60.5694 7.43262 59.3279 6.54559 58.0737 6.54559C56.8195 6.54559 55.7439 7.40994 55.7439 8.79969V8.82363C55.7439 10.1668 56.8322 11.1017 58.0737 11.1017C59.3151 11.1017 60.5694 10.1907 60.5694 8.83623M55.5193 13.168C55.4364 13.1101 55.3892 13.0156 55.3892 12.911C55.3892 12.7825 55.5321 12.6426 55.6852 12.6426C55.7567 12.6426 55.8039 12.6666 55.8511 12.6892C56.5375 13.192 57.3298 13.4477 58.1694 13.4477C59.5525 13.4477 60.5349 12.6653 60.5349 11.1357V10.2713C60.0143 11.0072 59.2105 11.6498 58.0163 11.6498C56.5618 11.6498 55.1174 10.5523 55.1174 8.84631V8.82237C55.1174 7.10502 56.5605 5.99499 58.0163 5.99499C59.2233 5.99499 60.0386 6.62623 60.5349 7.32678V6.38054C60.5349 6.218 60.6536 6.08822 60.8194 6.08822C60.9853 6.08822 61.1154 6.21674 61.1154 6.38054V11.1697C61.1154 12.034 60.8309 12.7107 60.3461 13.1907C59.8255 13.7048 59.0447 13.9857 58.1579 13.9857C57.1997 13.9857 56.3002 13.7048 55.5206 13.168" fill="white"/>
<path id="Vector_20" d="M62.7231 6.3818C62.7231 6.218 62.8418 6.08948 63.0077 6.08948C63.1735 6.08948 63.3037 6.20666 63.3037 6.3818V7.82951C63.8242 6.67285 64.8769 6.04286 65.7279 6.04286C65.9052 6.04286 66.0354 6.18272 66.0354 6.35786C66.0354 6.52165 65.9167 6.66151 65.7279 6.67285C64.4507 6.79003 63.3037 7.73627 63.3037 9.65143V11.8476C63.3037 12.0114 63.185 12.1399 63.0204 12.1399C62.8558 12.1399 62.7244 12.0227 62.7244 11.8476V6.38054L62.7231 6.3818Z" fill="white"/>
<path id="Vector_21" d="M71.1569 8.83497C71.0739 7.63169 70.376 6.52165 68.9929 6.52165C67.7987 6.52165 66.8762 7.51452 66.769 8.83497H71.1569ZM69.1116 12.2344C67.5269 12.2344 66.1541 10.9845 66.1541 9.12728V9.1046C66.1541 7.37592 67.384 5.99751 69.0159 5.99751C70.6478 5.99751 71.7833 7.37592 71.7833 9.08192C71.7833 9.22178 71.6417 9.3503 71.4988 9.3503H66.7678C66.8737 10.8333 67.9505 11.6989 69.1333 11.6989C69.9971 11.6989 70.5993 11.3486 71.0854 10.8812C71.1326 10.8345 71.1926 10.7993 71.2742 10.7993C71.4286 10.7993 71.5588 10.9164 71.5588 11.0676C71.5588 11.1256 71.5345 11.1962 71.4643 11.2667C70.8723 11.8501 70.1987 12.2356 69.1103 12.2356" fill="white"/>
<path id="Vector_22" d="M72.4939 11.4393C72.4467 11.4041 72.3867 11.3108 72.3867 11.2176C72.3867 11.0651 72.5169 10.9379 72.6712 10.9379C72.7427 10.9379 72.8129 10.9605 72.8601 10.9958C73.4878 11.4393 74.1487 11.6737 74.8709 11.6737C75.6875 11.6737 76.3254 11.2289 76.3254 10.541V10.517C76.3254 9.81649 75.5688 9.5582 74.7293 9.3251C73.7468 9.04413 72.6598 8.75307 72.6598 7.68965V7.66697C72.6598 6.70939 73.4763 6.02019 74.6463 6.02019C75.297 6.02019 76.0192 6.2306 76.5985 6.55694C76.6699 6.60355 76.7528 6.68545 76.7528 6.81397C76.7528 6.96643 76.6227 7.09494 76.4683 7.09494C76.3981 7.09494 76.3382 7.071 76.3025 7.04832C75.7819 6.74467 75.2026 6.55694 74.6221 6.55694C73.794 6.55694 73.2505 7.00171 73.2505 7.59641V7.61909C73.2505 8.28562 74.0671 8.53006 74.9296 8.77575C75.8993 9.04413 76.9162 9.39566 76.9162 10.4465V10.4704C76.9162 11.5326 75.9937 12.2104 74.8339 12.2104C74.0173 12.2104 73.1076 11.8954 72.4926 11.4393" fill="white"/>
<path id="Vector_23" d="M83.3302 9.13862V9.11594C83.3302 7.67957 82.2418 6.53425 80.846 6.53425C79.4501 6.53425 78.386 7.69091 78.386 9.092V9.11594C78.386 10.5523 79.4744 11.6976 80.8702 11.6976C82.2661 11.6976 83.3302 10.541 83.3302 9.13988M77.7583 9.13862V9.11594C77.7583 7.44522 79.0712 5.99751 80.8689 5.99751C82.6667 5.99751 83.9566 7.42254 83.9566 9.09326V9.1172C83.9566 10.7879 82.6437 12.2356 80.846 12.2356C79.0482 12.2356 77.7583 10.8106 77.7583 9.13988" fill="white"/>
<path id="Vector_24" d="M38.4007 19.7967L37.2537 17.0979L36.1066 19.7967H38.4007ZM33.2792 22.0634L36.1653 15.6275C36.3669 15.184 36.7331 14.9156 37.2294 14.9156H37.3366C37.8329 14.9156 38.1889 15.184 38.3892 15.6275L41.2753 22.0634C41.334 22.192 41.3697 22.3079 41.3697 22.4251C41.3697 22.9038 40.9921 23.2894 40.5059 23.2894C40.0811 23.2894 39.7965 23.045 39.6307 22.6708L39.0744 21.3856H35.4317L34.8524 22.7287C34.698 23.079 34.3905 23.2894 34.0129 23.2894C33.5395 23.2894 33.1733 22.9164 33.1733 22.449C33.1733 22.3205 33.2205 22.192 33.2805 22.0634" fill="white"/>
<path id="Vector_25" d="M45.7704 21.0114V20.6964C45.4629 20.5565 45.061 20.462 44.6233 20.462C43.8552 20.462 43.3819 20.7657 43.3819 21.3264V21.349C43.3819 21.8278 43.7838 22.1075 44.3643 22.1075C45.2039 22.1075 45.7716 21.6527 45.7716 21.0101M41.6428 21.4196V21.3969C41.6428 20.0298 42.6954 19.3999 44.1972 19.3999C44.8364 19.3999 45.297 19.5044 45.7474 19.6569V19.5511C45.7474 18.8152 45.2855 18.4057 44.3873 18.4057C43.891 18.4057 43.489 18.4763 43.1458 18.5809C43.0387 18.6162 42.9685 18.6275 42.8855 18.6275C42.4722 18.6275 42.1404 18.3125 42.1404 17.9043C42.1404 17.5893 42.342 17.3196 42.6253 17.2151C43.193 17.0046 43.808 16.8875 44.6476 16.8875C45.63 16.8875 46.3394 17.1445 46.7885 17.588C47.2619 18.0555 47.475 18.7447 47.475 19.5851V22.4351C47.475 22.9139 47.0845 23.2881 46.5997 23.2881C46.0791 23.2881 45.7359 22.9265 45.7359 22.5523V22.541C45.2983 23.0198 44.6948 23.336 43.8195 23.336C42.6253 23.336 41.6441 22.6582 41.6441 21.4196" fill="white"/>
<path id="Vector_26" d="M53.2943 20.1004V20.0765C53.2943 19.037 52.5849 18.3478 51.7453 18.3478C50.9058 18.3478 50.2079 19.037 50.2079 20.0765V20.1004C50.2079 21.1399 50.9058 21.8291 51.7453 21.8291C52.5849 21.8291 53.2943 21.1512 53.2943 20.1004ZM48.4331 17.7757C48.4331 17.2844 48.835 16.8875 49.3326 16.8875C49.8302 16.8875 50.2321 17.2844 50.2321 17.7757V17.8576C50.6698 17.2743 51.2733 16.8421 52.2072 16.8421C53.686 16.8421 55.0933 17.9862 55.0933 20.0777V20.1017C55.0933 22.1932 53.7089 23.3373 52.2072 23.3373C51.249 23.3373 50.6583 22.9051 50.2321 22.4036V24.2722C50.2321 24.7623 49.8302 25.1592 49.3326 25.1592C48.835 25.1592 48.4331 24.7623 48.4331 24.2722V17.777V17.7757Z" fill="white"/>
<path id="Vector_27" d="M55.8269 17.7758C55.8269 17.2844 56.2288 16.8875 56.7251 16.8875C57.2215 16.8875 57.6247 17.2844 57.6247 17.7758V18.0555C57.8849 17.4482 58.3111 16.8875 58.8431 16.8875C59.3752 16.8875 59.7184 17.2491 59.7184 17.7518C59.7184 18.2193 59.4109 18.499 59.0435 18.5809C58.1325 18.7913 57.6247 19.4805 57.6247 20.7417V22.4011C57.6247 22.8912 57.2227 23.2881 56.7251 23.2881C56.2275 23.2881 55.8269 22.8912 55.8269 22.4011V17.7758Z" fill="white"/>
<path id="Vector_28" d="M64.1661 19.5989C64.0589 18.8039 63.5869 18.2671 62.829 18.2671C62.0711 18.2671 61.599 18.7925 61.4574 19.5989H64.1661ZM63.0063 23.36C61.1014 23.36 59.6941 22.0395 59.6941 20.1243V20.1017C59.6941 18.315 60.9828 16.8434 62.829 16.8434C64.9457 16.8434 65.8809 18.5607 65.8809 19.8572C65.8809 20.3713 65.5147 20.7102 65.0414 20.7102H61.4804C61.6577 21.5166 62.2255 21.9362 63.0293 21.9362C63.5269 21.9362 63.9403 21.7837 64.3065 21.5154C64.4366 21.4221 64.5553 21.3755 64.7441 21.3755C65.146 21.3755 65.442 21.6792 65.442 22.076C65.442 22.3091 65.3361 22.4843 65.206 22.6015C64.6497 23.0689 63.9288 23.36 63.0051 23.36" fill="white"/>
<path id="Vector_29" d="M66.4973 22.6229C66.3084 22.5057 66.1541 22.2953 66.1541 22.0156C66.1541 21.6174 66.4615 21.315 66.8635 21.315C66.9936 21.315 67.1237 21.3503 67.2182 21.4083C67.8217 21.7825 68.4252 21.9689 68.933 21.9689C69.4408 21.9689 69.6896 21.7825 69.6896 21.5015V21.4776C69.6896 21.092 69.0746 20.9635 68.3767 20.7531C67.4899 20.496 66.4845 20.0865 66.4845 18.8719V18.8492C66.4845 17.5767 67.5256 16.8635 68.8028 16.8635C69.465 16.8635 70.1515 17.0387 70.7664 17.3423C71.0267 17.4708 71.1913 17.7039 71.1913 18.0076C71.1913 18.4045 70.8723 18.7081 70.4704 18.7081C70.3403 18.7081 70.2573 18.6842 70.1387 18.6262C69.6296 18.3818 69.1448 18.2293 68.7671 18.2293C68.3295 18.2293 68.1049 18.4158 68.1049 18.6615V18.6842C68.1049 19.0345 68.7084 19.1983 69.3936 19.4314C70.2803 19.7237 71.31 20.1445 71.31 21.2886V21.3125C71.31 22.7023 70.2573 23.3335 68.8845 23.3335C68.1036 23.3335 67.2641 23.1117 66.4947 22.6204" fill="white"/>
<path id="Vector_30" d="M72.092 17.7757C72.092 17.2844 72.4939 16.8875 72.9902 16.8875C73.4865 16.8875 73.8897 17.2844 73.8897 17.7757V22.4011C73.8897 22.8912 73.4878 23.2881 72.9902 23.2881C72.4926 23.2881 72.092 22.8912 72.092 22.4011V17.7757ZM71.9861 15.4637C71.9861 14.9496 72.4237 14.6346 72.9915 14.6346C73.5593 14.6346 73.9969 14.9496 73.9969 15.4637V15.4864C73.9969 16.0004 73.5593 16.3268 72.9915 16.3268C72.4237 16.3268 71.9861 15.9992 71.9861 15.4864V15.4637Z" fill="white"/>
<path id="Vector_31" d="M76.5055 20.0765V20.1004C76.5055 21.1399 77.2149 21.8291 78.0544 21.8291C78.894 21.8291 79.5919 21.1399 79.5919 20.1004V20.0765C79.5919 19.037 78.894 18.3478 78.0544 18.3478C77.2149 18.3478 76.5055 19.0256 76.5055 20.0765ZM81.3667 22.4011C81.3667 22.8912 80.9648 23.2881 80.4672 23.2881C79.9696 23.2881 79.5689 22.8912 79.5689 22.4011V22.3192C79.1313 22.9026 78.5278 23.336 77.5938 23.336C76.1151 23.336 74.7078 22.192 74.7078 20.1004V20.0765C74.7078 17.9862 76.0921 16.8408 77.5938 16.8408C78.552 16.8408 79.1428 17.273 79.5689 17.7745V15.5091C79.5689 15.0177 79.9708 14.6208 80.4672 14.6208C80.9635 14.6208 81.3667 15.0177 81.3667 15.5091V22.4011Z" fill="white"/>
<path id="Vector_32" d="M15.7726 17.7266C15.7726 16.255 17.0319 15.0114 18.5247 15.0114C20.0175 15.0114 21.2743 16.255 21.2743 17.7266C21.2743 19.1983 20.0405 20.4431 18.5247 20.4431C17.009 20.4431 15.7726 19.2247 15.7726 17.7266ZM7.18964 18.3163C7.18964 17.6712 7.51627 17.011 8.0126 16.0773L12.884 6.90472C13.3522 6.02399 13.9915 4.81694 15.3363 4.81694C16.6045 4.81694 17.5244 5.71152 17.5244 6.94377C17.5244 7.58762 17.1991 8.24911 16.7015 9.18275L11.8314 18.3554C11.3631 19.2373 10.7226 20.4431 9.37781 20.4431C8.10956 20.4431 7.18836 19.5498 7.18836 18.3176M11.4575 1.27389C11.2993 1.45406 11.1271 1.6229 10.9459 1.78292C9.966 2.56788 8.72582 3.04919 7.37847 3.08825L7.22664 3.08447C5.34597 3.08447 3.81744 4.54982 3.66305 6.40325C3.55715 8.07397 2.74568 9.54436 1.53868 10.5423C0.603445 11.1786 0.0012207 12.2609 0.0012207 13.4755C0.0012207 14.6901 0.581755 15.7258 1.46595 16.4024C2.72016 17.3738 3.55715 18.8669 3.70005 20.5477C3.78426 21.5103 4.25507 22.3621 4.95682 22.948C5.59859 23.5502 6.47131 23.9169 7.44482 23.9169C8.8751 23.9471 10.1842 24.499 11.2023 25.3873C11.3325 25.5082 11.4562 25.633 11.5749 25.7628C12.2205 26.5213 13.1762 27.0013 14.2479 27.0013C15.3197 27.0013 16.3302 26.4923 17.0064 25.7275C17.1659 25.546 17.3381 25.3772 17.5193 25.2172C18.5005 24.4335 19.7407 23.9522 21.0893 23.9131L21.2399 23.9169C23.1205 23.9169 24.6503 22.4515 24.8022 20.5981C24.9093 18.9287 25.7183 17.457 26.9278 16.4578C27.8605 15.819 28.4653 14.7405 28.4653 13.5246C28.4653 12.3087 27.8835 11.2743 26.9993 10.5977C25.7463 9.62626 24.9081 8.13445 24.7664 6.45364C24.6822 5.49102 24.2101 4.63802 23.511 4.05465C22.8679 3.45238 21.9977 3.08699 21.0217 3.08699C19.5914 3.05675 18.2849 2.50362 17.2641 1.61408C17.1327 1.49438 17.009 1.36839 16.8903 1.23987C16.2473 0.481363 15.2891 0.00257301 14.2186 0.00257301C13.1481 0.00257301 12.1363 0.512863 11.4588 1.27641" fill="white"/>
</g>
<g id="Group_2">
<g id="Group_3">
<path id="Vector_33" d="M114.824 7.95929C111.895 7.96307 108.198 8.12938 103.784 8.64093C103.784 8.64093 112.721 10.0042 121.616 13.7627C121.616 13.7627 118.781 12.9828 114.081 13.1164C114.081 13.1164 117.539 14.5427 122.863 18.6565L122.843 8.47336C122.843 8.47336 120.129 7.96559 114.997 7.96055H114.825L114.824 7.95929Z" fill="white"/>
<g id="Clip path group">
<mask id="mask0_6325_841" style="mask-type:luminance" maskUnits="userSpaceOnUse" x="103" y="7" width="20" height="12">
<g id="clippath">
<path id="Vector_34" d="M114.824 7.95929C111.895 7.96307 108.198 8.12938 103.784 8.64093C103.784 8.64093 112.721 10.0042 121.616 13.7627C121.616 13.7627 118.781 12.9828 114.081 13.1164C114.081 13.1164 117.539 14.5427 122.863 18.6565L122.843 8.47336C122.843 8.47336 120.129 7.96559 114.997 7.96055H114.825L114.824 7.95929Z" fill="white"/>
</g>
</mask>
<g mask="url(#mask0_6325_841)">
<g id="Group_4">
<path id="Vector_35" d="M122.861 7.95929H103.783V18.6552H122.861V7.95929Z" fill="white"/>
</g>
</g>
</g>
</g>
<g id="Group_5">
<path id="Vector_36" d="M95.084 18.1865C97.3002 16.9883 108.184 10.919 118.784 13.0193C118.784 13.0193 107.234 8.55021 95.0393 8.30074L95.084 18.1865Z" fill="white"/>
<g id="Clip path group_2">
<mask id="mask1_6325_841" style="mask-type:luminance" maskUnits="userSpaceOnUse" x="95" y="8" width="24" height="11">
<g id="clippath-1">
<path id="Vector_37" d="M95.084 18.1865C97.3002 16.9883 108.184 10.919 118.784 13.0193C118.784 13.0193 107.234 8.55021 95.0393 8.30074L95.084 18.1865Z" fill="white"/>
</g>
</mask>
<g mask="url(#mask1_6325_841)">
<g id="Group_6">
<path id="Vector_38" d="M118.784 8.30074H95.0393V18.1865H118.784V8.30074Z" fill="white"/>
</g>
</g>
</g>
</g>
<path id="Vector_39" d="M95.0686 18.7283L95.0916 23.7279L98.0925 23.7153L98.0899 23.1432L95.7857 23.1533L95.778 21.3894L97.8373 21.3805L97.8348 20.8186L95.7755 20.8274L95.7691 19.2965L97.9534 19.2865L97.9509 18.7157L95.0686 18.7283Z" fill="white"/>
<path id="Vector_40" d="M99.6745 21.1689L98.4267 19.3356L99.3007 19.3331L100.136 20.7052L100.973 19.3255L101.757 19.3217L100.541 21.1651L101.895 23.1773L101.027 23.181L100.079 21.6741L99.1463 23.1899L98.3093 23.1936L99.6745 21.1689Z" fill="white"/>
<path id="Vector_41" d="M103.881 19.7967C103.119 19.7993 102.757 20.5364 102.761 21.2545C102.764 21.8971 103.097 22.6896 103.888 22.6871C104.642 22.6846 104.952 21.8278 104.934 21.2218C104.947 20.5263 104.644 19.7942 103.882 19.798M102.05 19.3205L102.723 19.3167L102.725 19.861H102.741C102.924 19.5725 103.357 19.2235 104.029 19.2209C105.135 19.2159 105.676 20.1281 105.683 21.1651C105.687 22.2235 105.206 23.2541 104.056 23.2604C103.384 23.2629 103.002 22.9996 102.784 22.6443H102.769L102.778 24.7636L102.076 24.7661L102.05 19.3217V19.3205Z" fill="white"/>
<path id="Vector_42" d="M107.935 22.6682C108.757 22.6645 109.119 21.9059 109.116 21.2167C109.112 20.4834 108.67 19.7753 107.922 19.7778C107.168 19.7816 106.73 20.4935 106.734 21.2268C106.737 21.916 107.107 22.6707 107.936 22.667M107.921 19.2046C109.078 19.1995 109.858 20.0424 109.864 21.2142C109.868 22.318 109.081 23.2377 107.939 23.2428C106.789 23.2478 105.993 22.3356 105.988 21.2319C105.983 20.0601 106.756 19.2096 107.921 19.2046Z" fill="white"/>
<path id="Vector_43" d="M112.424 21.2936C112.274 21.2936 112.125 21.281 111.976 21.281C111.594 21.2823 110.655 21.3465 110.658 22.0269C110.659 22.4364 111.048 22.6544 111.37 22.6531C112.064 22.6493 112.429 22.2083 112.425 21.6351V21.2936H112.424ZM110.332 19.5561C110.683 19.3432 111.1 19.192 111.585 19.1894C112.675 19.1844 113.119 19.7262 113.123 20.777L113.13 22.3734C113.132 22.8106 113.147 23.016 113.164 23.1281L112.506 23.1306L112.504 22.6317H112.489C112.325 22.8686 111.954 23.2251 111.311 23.2277C110.491 23.2314 109.913 22.8711 109.909 22.0307C109.905 21.0643 110.947 20.7556 111.672 20.7531C111.949 20.7531 112.143 20.7505 112.42 20.7657C112.417 20.1004 112.176 19.7615 111.474 19.764C111.079 19.7652 110.654 19.9202 110.371 20.1621L110.33 19.5574L110.332 19.5561Z" fill="white"/>
<path id="Vector_44" d="M116.134 21.2331C116.13 20.4305 115.76 19.7451 115.013 19.7476C114.305 19.7514 113.957 20.5301 113.96 21.1903C113.963 21.9148 114.369 22.5485 115.026 22.546C115.683 22.5435 116.138 21.9513 116.134 21.2344M116.843 22.9454C116.848 24.1172 116.254 24.7925 114.888 24.7988C114.485 24.8001 114.134 24.7497 113.521 24.5406L113.592 23.8816C114.131 24.1285 114.452 24.2256 114.968 24.223C115.706 24.2193 116.145 23.7115 116.143 22.895V22.517H116.125C115.829 22.919 115.336 23.1168 114.85 23.1193C113.761 23.1243 113.218 22.2272 113.213 21.2293C113.209 20.239 113.758 19.1781 114.906 19.1731C115.579 19.1705 115.954 19.4162 116.164 19.832H116.18L116.177 19.2575L116.827 19.255L116.843 22.9454Z" fill="white"/>
<path id="Vector_45" d="M117.218 19.2537L117.877 19.2512V19.8484H117.893C118.077 19.4465 118.48 19.1579 118.883 19.1554C119.093 19.1554 119.197 19.1768 119.347 19.2058L119.349 19.8408C119.221 19.7892 119.08 19.7741 118.961 19.7753C118.333 19.7778 117.925 20.3839 117.929 21.3528L117.937 23.1067L117.235 23.1105L117.217 19.2537H117.218Z" fill="white"/>
<path id="Vector_46" d="M120.935 22.6103C121.757 22.6065 122.119 21.848 122.116 21.1588C122.111 20.4255 121.67 19.7174 120.922 19.7199C120.168 19.7237 119.729 20.4356 119.733 21.1689C119.737 21.8581 120.106 22.6128 120.935 22.609M120.92 19.1466C122.077 19.1428 122.856 19.9845 122.862 21.1563C122.867 22.26 122.081 23.1798 120.937 23.1848C119.788 23.1899 118.992 22.2776 118.987 21.1739C118.981 20.0021 119.753 19.1529 120.918 19.1466" fill="white"/>
<path id="Vector_47" d="M95.459 4.50317C95.3327 4.43892 95.2357 4.3482 95.1668 4.23228C95.0979 4.11636 95.0635 3.98154 95.0635 3.82909V3.09704C95.0635 2.94459 95.0979 2.81103 95.1668 2.69385C95.2357 2.57793 95.3327 2.48721 95.459 2.42422C95.5853 2.36122 95.732 2.32972 95.8992 2.32972C96.0663 2.32972 96.2092 2.35996 96.3343 2.42044C96.4593 2.48091 96.5563 2.56659 96.6265 2.67747C96.6954 2.78835 96.7311 2.91687 96.7311 3.06302C96.7311 3.08192 96.7183 3.09326 96.6928 3.0983L96.3177 3.12098H96.3113C96.2896 3.12098 96.2794 3.10964 96.2794 3.0857C96.2794 2.97356 96.245 2.88411 96.1748 2.81607C96.1046 2.74803 96.014 2.71401 95.9005 2.71401C95.7869 2.71401 95.6925 2.74803 95.6223 2.81607C95.5521 2.88411 95.5177 2.97356 95.5177 3.0857V3.84925C95.5177 3.95887 95.5521 4.04832 95.6223 4.1151C95.6912 4.18314 95.7844 4.21716 95.9005 4.21716C96.0166 4.21716 96.1059 4.18314 96.1748 4.1151C96.2437 4.04706 96.2794 3.95887 96.2794 3.84925C96.2794 3.82657 96.2922 3.81397 96.3177 3.81397L96.6928 3.83035C96.703 3.83035 96.7119 3.83413 96.7196 3.84043C96.7272 3.84673 96.7311 3.85429 96.7311 3.86311C96.7311 4.00926 96.6966 4.13778 96.6265 4.24992C96.5563 4.36206 96.4593 4.449 96.3343 4.50947C96.2092 4.57121 96.0638 4.60145 95.8992 4.60145C95.7346 4.60145 95.5853 4.56869 95.459 4.50443V4.50317Z" fill="white"/>
<path id="Vector_48" d="M97.4737 4.50695C97.3462 4.43892 97.2479 4.34442 97.1765 4.22346C97.1063 4.1025 97.0706 3.96139 97.0706 3.80389V3.12602C97.0706 2.96978 97.1063 2.83119 97.1765 2.71023C97.2466 2.58927 97.3462 2.49603 97.4737 2.42926C97.6013 2.36248 97.7481 2.32972 97.9152 2.32972C98.0823 2.32972 98.2329 2.36248 98.3592 2.42926C98.4868 2.49603 98.585 2.58927 98.6565 2.71023C98.7267 2.83119 98.7624 2.96978 98.7624 3.12602V3.80389C98.7624 3.96265 98.7267 4.1025 98.6565 4.22598C98.5863 4.3482 98.4868 4.4427 98.3592 4.50947C98.2316 4.57625 98.0836 4.60901 97.9152 4.60901C97.7468 4.60901 97.6013 4.57499 97.4737 4.50695ZM98.201 4.11384C98.2737 4.0395 98.3107 3.94123 98.3107 3.81901V3.12098C98.3107 2.99876 98.275 2.89923 98.2036 2.82489C98.1321 2.74929 98.0364 2.71275 97.9165 2.71275C97.7965 2.71275 97.7047 2.75055 97.632 2.82489C97.5605 2.90049 97.5248 2.99876 97.5248 3.12098V3.81901C97.5248 3.94123 97.5605 4.0395 97.632 4.11384C97.7034 4.18818 97.7978 4.22472 97.9165 4.22472C98.0351 4.22472 98.1296 4.18818 98.2023 4.11384H98.201Z" fill="white"/>
<path id="Vector_49" d="M100.455 2.36626C100.463 2.3587 100.472 2.35492 100.482 2.35492H100.857C100.868 2.35492 100.877 2.3587 100.884 2.36626C100.892 2.37382 100.896 2.38264 100.896 2.39272V4.53593C100.896 4.54601 100.892 4.55609 100.884 4.56239C100.877 4.56869 100.868 4.57373 100.857 4.57373H100.495C100.473 4.57373 100.458 4.56491 100.45 4.54853L99.6185 3.19154C99.6147 3.18524 99.6095 3.18272 99.6057 3.18398C99.6019 3.18398 99.5993 3.19028 99.5993 3.19784L99.6057 4.53593C99.6057 4.54601 99.6019 4.55609 99.5942 4.56239C99.5866 4.56995 99.5777 4.57373 99.5674 4.57373H99.1923C99.1821 4.57373 99.1719 4.56995 99.1655 4.56239C99.1579 4.55483 99.1541 4.54601 99.1541 4.53593V2.39272C99.1541 2.38264 99.1579 2.37382 99.1655 2.36626C99.1732 2.3587 99.1821 2.35492 99.1923 2.35492H99.5547C99.5764 2.35492 99.5917 2.36374 99.5993 2.38012L100.427 3.73081C100.431 3.73711 100.436 3.73963 100.44 3.73837C100.444 3.73837 100.447 3.73207 100.447 3.72451L100.443 2.39272C100.443 2.38264 100.447 2.37382 100.454 2.36626H100.455Z" fill="white"/>
<path id="Vector_50" d="M101.933 4.56239C101.925 4.55483 101.921 4.54601 101.921 4.53593V2.39272C101.921 2.38264 101.925 2.37382 101.933 2.36626C101.941 2.3587 101.949 2.35492 101.96 2.35492H102.335C102.345 2.35492 102.354 2.3587 102.362 2.36626C102.369 2.37382 102.373 2.38264 102.373 2.39272V4.17432C102.373 4.1844 102.378 4.1907 102.39 4.1907H103.44C103.45 4.1907 103.459 4.19448 103.466 4.20204C103.474 4.2096 103.478 4.21842 103.478 4.2285V4.53593C103.478 4.54601 103.474 4.55609 103.466 4.56239C103.459 4.56995 103.45 4.57373 103.44 4.57373H101.96C101.949 4.57373 101.939 4.56995 101.933 4.56239Z" fill="white"/>
<path id="Vector_51" d="M105.254 4.54223L105.158 4.23102C105.155 4.2222 105.148 4.21842 105.142 4.21842H104.352C104.346 4.21842 104.341 4.2222 104.335 4.23102L104.242 4.54223C104.236 4.56365 104.222 4.57373 104.2 4.57373H103.792C103.779 4.57373 103.769 4.56995 103.763 4.56239C103.756 4.55483 103.755 4.54349 103.759 4.52963L104.452 2.38642C104.458 2.365 104.472 2.35492 104.494 2.35492H104.998C105.019 2.35492 105.033 2.365 105.04 2.38642L105.733 4.52963C105.733 4.52963 105.736 4.53971 105.736 4.54601C105.736 4.56491 105.725 4.57499 105.701 4.57499H105.292C105.271 4.57499 105.257 4.56491 105.25 4.54349L105.254 4.54223ZM104.464 3.87319H105.03C105.042 3.87319 105.046 3.86689 105.042 3.85429L104.754 2.91309C104.751 2.90427 104.749 2.90049 104.744 2.90175C104.74 2.90175 104.736 2.90679 104.734 2.91309L104.452 3.85429C104.449 3.86689 104.454 3.87319 104.464 3.87319Z" fill="white"/>
<path id="Vector_52" d="M108.199 2.72787C108.191 2.73543 108.182 2.73921 108.172 2.73921H107.122C107.112 2.73921 107.105 2.74425 107.105 2.75559V3.24698C107.105 3.25706 107.111 3.26336 107.122 3.26336H107.812C107.823 3.26336 107.831 3.26714 107.839 3.2747C107.847 3.28226 107.851 3.29108 107.851 3.30116V3.60859C107.851 3.61867 107.847 3.62875 107.839 3.63505C107.831 3.64261 107.823 3.64639 107.812 3.64639H107.122C107.112 3.64639 107.105 3.65143 107.105 3.66277V4.53719C107.105 4.54727 107.102 4.55735 107.094 4.56365C107.086 4.57121 107.077 4.57499 107.067 4.57499H106.692C106.682 4.57499 106.672 4.57121 106.665 4.56365C106.658 4.55609 106.654 4.54727 106.654 4.53719V2.39398C106.654 2.3839 106.658 2.37508 106.665 2.36752C106.673 2.35996 106.682 2.35618 106.692 2.35618H108.172C108.182 2.35618 108.191 2.35996 108.199 2.36752C108.207 2.37508 108.21 2.3839 108.21 2.39398V2.70141C108.21 2.71149 108.207 2.72157 108.199 2.72787Z" fill="white"/>
<path id="Vector_53" d="M108.912 4.50443C108.787 4.44144 108.69 4.35198 108.62 4.23606C108.55 4.1214 108.515 3.98784 108.515 3.83791V2.39272C108.515 2.38264 108.519 2.37382 108.527 2.36626C108.535 2.3587 108.543 2.35492 108.554 2.35492H108.929C108.939 2.35492 108.948 2.3587 108.956 2.36626C108.963 2.37382 108.967 2.38264 108.967 2.39272V3.84169C108.967 3.95383 109.001 4.04454 109.072 4.11258C109.141 4.18188 109.232 4.2159 109.346 4.2159C109.46 4.2159 109.551 4.18188 109.62 4.11258C109.689 4.04454 109.725 3.95383 109.725 3.84169V2.39272C109.725 2.38264 109.729 2.37382 109.736 2.36626C109.744 2.3587 109.753 2.35492 109.763 2.35492H110.138C110.149 2.35492 110.157 2.3587 110.165 2.36626C110.173 2.37382 110.177 2.38264 110.177 2.39272V3.83791C110.177 3.98784 110.142 4.12014 110.072 4.23606C110.002 4.35072 109.905 4.44018 109.78 4.50443C109.655 4.56743 109.509 4.59893 109.345 4.59893C109.18 4.59893 109.035 4.56743 108.91 4.50443H108.912Z" fill="white"/>
<path id="Vector_54" d="M112.148 2.72787C112.14 2.73543 112.131 2.73921 112.121 2.73921H111.068C111.058 2.73921 111.052 2.74425 111.052 2.75559V3.24698C111.052 3.25706 111.057 3.26336 111.068 3.26336H111.759C111.769 3.26336 111.778 3.26714 111.785 3.2747C111.793 3.28226 111.797 3.29108 111.797 3.30116V3.60859C111.797 3.61867 111.793 3.62875 111.785 3.63505C111.778 3.64135 111.769 3.64639 111.759 3.64639H111.068C111.058 3.64639 111.052 3.65143 111.052 3.66277V4.17684C111.052 4.18692 111.057 4.19322 111.068 4.19322H112.121C112.131 4.19322 112.14 4.197 112.148 4.20456C112.155 4.21212 112.159 4.22094 112.159 4.23102V4.53845C112.159 4.54853 112.155 4.55861 112.148 4.56491C112.14 4.57121 112.131 4.57625 112.121 4.57625H110.638C110.628 4.57625 110.618 4.57247 110.612 4.56491C110.604 4.55735 110.6 4.54853 110.6 4.53845V2.39524C110.6 2.38516 110.604 2.37634 110.612 2.36878C110.619 2.36122 110.628 2.35744 110.638 2.35744H112.121C112.131 2.35744 112.14 2.36122 112.148 2.36878C112.155 2.37634 112.159 2.38516 112.159 2.39524V2.70267C112.159 2.71275 112.155 2.72283 112.148 2.72913V2.72787Z" fill="white"/>
<path id="Vector_55" d="M113.703 4.54601L113.301 3.66781C113.298 3.65899 113.291 3.65521 113.282 3.65521H112.984C112.973 3.65521 112.967 3.66025 112.967 3.67159V4.53719C112.967 4.54727 112.963 4.55735 112.956 4.56365C112.948 4.56995 112.939 4.57499 112.929 4.57499H112.554C112.543 4.57499 112.533 4.57121 112.527 4.56365C112.519 4.55609 112.515 4.54727 112.515 4.53719V2.39398C112.515 2.3839 112.519 2.37508 112.527 2.36752C112.535 2.35996 112.543 2.35618 112.554 2.35618H113.472C113.609 2.35618 113.73 2.3839 113.833 2.43808C113.937 2.49351 114.017 2.57163 114.075 2.67243C114.131 2.77449 114.16 2.89167 114.16 3.02396C114.16 3.1676 114.123 3.29108 114.05 3.39314C113.978 3.49519 113.875 3.56827 113.745 3.60985C113.735 3.61363 113.731 3.62119 113.735 3.63253L114.172 4.52963C114.175 4.53845 114.178 4.54475 114.178 4.54853C114.178 4.56491 114.166 4.57373 114.142 4.57373H113.748C113.726 4.57373 113.711 4.56365 113.703 4.54475V4.54601ZM112.968 2.75433V3.29612C112.968 3.3062 112.973 3.3125 112.985 3.3125H113.406C113.495 3.3125 113.569 3.28604 113.625 3.23312C113.682 3.1802 113.711 3.11216 113.711 3.02648C113.711 2.94081 113.683 2.87277 113.625 2.81859C113.569 2.76441 113.495 2.73795 113.406 2.73795H112.985C112.975 2.73795 112.968 2.74299 112.968 2.75433Z" fill="white"/>
<path id="Vector_56" d="M114.492 4.56239C114.484 4.55483 114.48 4.54601 114.48 4.53593V4.19322C114.48 4.17684 114.485 4.16046 114.497 4.14534L115.534 2.75685C115.534 2.75685 115.539 2.74803 115.535 2.74425C115.532 2.74047 115.528 2.73795 115.521 2.73795H114.52C114.51 2.73795 114.499 2.73417 114.493 2.72661C114.485 2.71905 114.482 2.71023 114.482 2.70015V2.39272C114.482 2.38264 114.485 2.37382 114.493 2.36626C114.501 2.3587 114.51 2.35492 114.52 2.35492H116.006C116.016 2.35492 116.025 2.3587 116.033 2.36626C116.041 2.37382 116.044 2.38264 116.044 2.39272V2.73543C116.044 2.75181 116.039 2.76819 116.028 2.78331L114.991 4.1718C114.991 4.1718 114.988 4.18062 114.991 4.1844C114.993 4.18818 114.997 4.1907 115.003 4.1907H116.005C116.015 4.1907 116.024 4.19448 116.032 4.20204C116.039 4.2096 116.043 4.21842 116.043 4.2285V4.53593C116.043 4.54601 116.039 4.55609 116.032 4.56239C116.024 4.56995 116.015 4.57373 116.005 4.57373H114.519C114.508 4.57373 114.498 4.56995 114.492 4.56239Z" fill="white"/>
<path id="Vector_57" d="M117.838 4.54223L117.741 4.23102C117.738 4.2222 117.731 4.21842 117.725 4.21842H116.935C116.929 4.21842 116.924 4.2222 116.918 4.23102L116.825 4.54223C116.819 4.56365 116.805 4.57373 116.783 4.57373H116.375C116.362 4.57373 116.352 4.56995 116.346 4.56239C116.339 4.55483 116.338 4.54349 116.342 4.52963L117.035 2.38642C117.041 2.365 117.055 2.35492 117.077 2.35492H117.581C117.602 2.35492 117.616 2.365 117.623 2.38642L118.316 4.52963C118.316 4.52963 118.319 4.53971 118.319 4.54601C118.319 4.56491 118.308 4.57499 118.284 4.57499H117.875C117.854 4.57499 117.84 4.56491 117.833 4.54349L117.838 4.54223ZM117.049 3.87319H117.614C117.627 3.87319 117.63 3.86689 117.627 3.85429L117.338 2.91309C117.336 2.90427 117.333 2.90049 117.328 2.90175C117.324 2.90175 117.32 2.90679 117.318 2.91309L117.036 3.85429C117.033 3.86689 117.038 3.87319 117.049 3.87319Z" fill="white"/>
<path id="Vector_58" d="M119.25 4.56239C119.242 4.55483 119.238 4.54601 119.238 4.53593V2.39272C119.238 2.38264 119.242 2.37382 119.25 2.36626C119.257 2.3587 119.266 2.35492 119.276 2.35492H120.079C120.24 2.35492 120.38 2.38264 120.501 2.43934C120.622 2.49477 120.716 2.57415 120.782 2.67495C120.848 2.77701 120.881 2.89419 120.881 3.02648V3.90091C120.881 4.03446 120.848 4.15164 120.782 4.25244C120.716 4.3545 120.622 4.43262 120.501 4.48805C120.38 4.54349 120.24 4.57247 120.079 4.57247H119.276C119.266 4.57247 119.256 4.56869 119.25 4.56113V4.56239ZM119.706 4.1907H120.094C120.192 4.1907 120.273 4.15794 120.333 4.09242C120.394 4.0269 120.426 3.93871 120.427 3.82909V3.09956C120.427 2.98994 120.397 2.90175 120.335 2.83623C120.274 2.77071 120.192 2.73795 120.09 2.73795H119.705C119.695 2.73795 119.688 2.74299 119.688 2.75433V4.17432C119.688 4.1844 119.694 4.1907 119.705 4.1907H119.706Z" fill="white"/>
<path id="Vector_59" d="M122.826 2.72787C122.818 2.73543 122.809 2.73921 122.799 2.73921H121.746C121.736 2.73921 121.73 2.74425 121.73 2.75559V3.24698C121.73 3.25706 121.735 3.26336 121.746 3.26336H122.437C122.447 3.26336 122.456 3.26714 122.463 3.2747C122.471 3.28226 122.475 3.29108 122.475 3.30116V3.60859C122.475 3.61867 122.471 3.62875 122.463 3.63505C122.456 3.64135 122.447 3.64639 122.437 3.64639H121.746C121.736 3.64639 121.73 3.65143 121.73 3.66277V4.17684C121.73 4.18692 121.735 4.19322 121.746 4.19322H122.799C122.809 4.19322 122.818 4.197 122.826 4.20456C122.833 4.21212 122.837 4.22094 122.837 4.23102V4.53845C122.837 4.54853 122.833 4.55861 122.826 4.56491C122.818 4.57121 122.809 4.57625 122.799 4.57625H121.316C121.306 4.57625 121.296 4.57247 121.29 4.56491C121.282 4.55735 121.278 4.54853 121.278 4.53845V2.39524C121.278 2.38516 121.282 2.37634 121.29 2.36878C121.297 2.36122 121.306 2.35744 121.316 2.35744H122.799C122.809 2.35744 122.818 2.36122 122.826 2.36878C122.833 2.37634 122.837 2.38516 122.837 2.39524V2.70267C122.837 2.71275 122.833 2.72283 122.826 2.72913V2.72787Z" fill="white"/>
</g>
</g>
<defs>
<clipPath id="clip0_6325_841">
<rect width="213" height="27" fill="white"/>
</clipPath>
</defs>
</svg>
