<svg width="314" height="41" viewBox="0 0 314 41" fill="none" xmlns="http://www.w3.org/2000/svg">
<g clip-path="url(#clip0_1_700)">
<path d="M132.732 7.01831H132.104V35.6505H132.732V7.01831Z" fill="white"/>
<path d="M188.269 7.01831H187.641V35.6505H188.269V7.01831Z" fill="white"/>
<path d="M212.749 16.1013C212.749 16.484 212.608 16.8143 212.328 17.0925L210.439 18.989C210.187 19.2391 209.877 19.3642 209.507 19.3642H198.221C197.836 19.3642 197.518 19.2391 197.266 18.989L195.377 17.0719C195.11 16.8069 194.977 16.469 194.977 16.0584V10.283C194.977 9.90035 195.118 9.56996 195.398 9.29183L197.286 7.39533C197.538 7.14521 197.849 7.02014 198.219 7.02014H209.505C209.89 7.02014 210.208 7.14521 210.46 7.39533L212.349 9.31423C212.616 9.57929 212.749 9.91715 212.749 10.3278V11.9592H209.083V10.9009L207.994 9.84249H199.709L198.642 10.9009V15.4424L199.731 16.5456H208.017L209.083 15.4872V14.384H212.749V16.1032V16.1013Z" fill="white"/>
<path d="M229.519 15.4405V10.8766L228.475 9.84062H220.145L219.078 10.899V15.4405L220.168 16.5418H228.432L229.521 15.4405H229.519ZM233.185 16.0584C233.185 16.4709 233.052 16.8088 232.785 17.0719L230.896 18.989C230.644 19.2391 230.326 19.3642 229.941 19.3642H218.655C218.27 19.3642 217.952 19.2391 217.7 18.989L215.811 17.0719C215.544 16.8069 215.413 16.469 215.413 16.0584V10.283C215.413 9.90036 215.554 9.56996 215.834 9.29183L217.722 7.39534C217.974 7.14521 218.285 7.02015 218.655 7.02015H229.941C230.311 7.02015 230.622 7.14521 230.874 7.39534L232.762 9.29183C233.044 9.57183 233.183 9.90222 233.183 10.283V16.0584H233.185ZM232.897 2.87436L230.454 5.25618C230.172 5.53618 229.847 5.67431 229.476 5.67431H215.414V2.85196H228.165L230.099 0.845337L232.897 2.8725V2.87436Z" fill="white"/>
<path d="M249.957 15.4405V10.8765L248.913 9.84057H239.516V16.5418H248.868L249.957 15.4405ZM253.623 16.0564C253.623 16.469 253.489 16.8068 253.222 17.07L251.334 18.9871C251.082 19.2372 250.764 19.3622 250.378 19.3622H237.204C236.302 19.3622 235.85 18.8919 235.85 17.9511V8.42753C235.85 7.48675 236.302 7.01636 237.204 7.01636H250.378C250.749 7.01636 251.059 7.14142 251.311 7.39155L253.2 9.28805C253.48 9.56804 253.621 9.89843 253.621 10.2792V16.0546L253.623 16.0564Z" fill="white"/>
<path d="M259.954 7.01831H256.288V19.3642H259.954V7.01831Z" fill="white"/>
<path d="M280.39 16.0565C280.39 16.4691 280.257 16.8069 279.99 17.0701L278.101 18.9871C277.849 19.2373 277.531 19.3623 277.146 19.3623H265.86C265.475 19.3623 265.157 19.2373 264.905 18.9871L263.016 17.0701C262.749 16.805 262.616 16.4672 262.616 16.0565V10.2812C262.616 9.89852 262.757 9.56813 263.037 9.29L264.925 7.3935C265.178 7.14338 265.488 7.01831 265.858 7.01831H279.854V9.73052H267.371L266.282 10.8542V15.5059L267.371 16.6091H275.633L276.723 15.5059V14.4475H268.77V11.935H279.034C279.937 11.935 280.388 12.4054 280.388 13.3462V16.0584L280.39 16.0565Z" fill="white"/>
<path d="M297.162 15.4405V10.8766L296.118 9.84065H287.788L286.721 10.899V15.4405L287.811 16.5419H296.075L297.164 15.4405H297.162ZM300.828 16.0565C300.828 16.4691 300.695 16.8069 300.428 17.0701L298.539 18.9871C298.287 19.2373 297.969 19.3623 297.584 19.3623H286.298C285.913 19.3623 285.595 19.2373 285.343 18.9871L283.454 17.0701C283.187 16.805 283.054 16.4672 283.054 16.0565V10.2812C283.054 9.89852 283.195 9.56813 283.475 9.29L285.363 7.3935C285.616 7.14338 285.926 7.01831 286.296 7.01831H297.582C297.952 7.01831 298.263 7.14338 298.515 7.3935L300.403 9.29C300.683 9.56999 300.824 9.90039 300.824 10.2812V16.0565H300.828Z" fill="white"/>
<path d="M208.639 30.0748V26.8997L207.528 25.7965H199.731L198.642 26.8997V30.0748H208.639ZM212.303 35.3219H208.637V32.8524H198.64V35.3219H194.975V26.2837C194.975 25.873 195.108 25.5333 195.375 25.2701L197.264 23.3531C197.516 23.103 197.834 22.9779 198.219 22.9779H209.061C209.446 22.9779 209.764 23.103 210.016 23.3531L211.905 25.2701C212.172 25.5352 212.305 25.873 212.305 26.2837V35.3219H212.303Z" fill="white"/>
<path d="M229.741 31.4637V30.4053H218.634V32.5669H228.674L229.741 31.4637ZM227.875 27.8909V26.7672L226.831 25.7313H218.634V27.8909H227.875ZM233.407 32.0143C233.407 32.4269 233.273 32.7647 233.008 33.0279L231.12 34.9449C230.868 35.1951 230.55 35.3201 230.164 35.3201H216.324C215.422 35.3201 214.97 34.8497 214.97 33.909V24.3854C214.97 23.4446 215.422 22.9742 216.324 22.9742H228.298C228.669 22.9742 228.979 23.0993 229.231 23.3494L231.097 25.2459C231.379 25.5259 231.518 25.8563 231.518 26.2371V27.8909H232.406C232.688 27.8909 232.925 28.0272 233.117 28.2997C233.309 28.5723 233.407 28.8541 233.407 29.1491V32.0143Z" fill="white"/>
<path d="M239.738 22.9761H236.072V35.322H239.738V22.9761Z" fill="white"/>
<path d="M258.464 35.3219H245.646C245.26 35.3219 244.942 35.1969 244.69 34.9467L242.802 33.0297C242.535 32.7646 242.401 32.4268 242.401 32.0161V26.2408C242.401 25.8581 242.542 25.5277 242.823 25.2496L244.711 23.3531C244.963 23.103 245.274 22.9779 245.644 22.9779H258.462V25.733H247.134L246.067 26.7914V27.8927H258.462V30.4052H246.067V31.4636L247.156 32.5649H258.464V35.3201V35.3219Z" fill="white"/>
<path d="M273.749 28.6861V26.8344L272.682 25.7984H264.73V28.6861H273.749ZM279.258 35.322H275.592V32.5668C275.355 32.3316 274.992 31.9788 274.503 31.5084H264.728V35.322H261.062V24.3872C261.062 23.4465 261.513 22.9761 262.418 22.9761H274.185C274.556 22.9761 274.868 23.1011 275.12 23.3513L276.988 25.2478C277.27 25.5278 277.411 25.8581 277.411 26.2389V29.6119L278.842 30.9559C278.929 31.0306 279.019 31.1836 279.113 31.4188C279.207 31.654 279.254 31.8314 279.254 31.949V35.322H279.258Z" fill="white"/>
<path d="M295.541 25.7984H288.942V35.322H285.276V25.7984H278.68V22.9761H295.541V25.7984Z" fill="white"/>
<path d="M310.336 31.3964V26.8325L309.292 25.7966H300.962L299.895 26.8549V31.3964L300.984 32.4978H309.249L310.338 31.3964H310.336ZM314 32.0143C314 32.4268 313.867 32.7647 313.599 33.0279L311.711 34.9449C311.459 35.195 311.141 35.3201 310.756 35.3201H299.47C299.085 35.3201 298.767 35.195 298.515 34.9449L296.626 33.0279C296.359 32.7628 296.226 32.425 296.226 32.0143V26.2389C296.226 25.8563 296.367 25.5259 296.647 25.2478L298.535 23.3513C298.787 23.1011 299.098 22.9761 299.468 22.9761H310.754C311.124 22.9761 311.435 23.1011 311.687 23.3513L313.575 25.2478C313.855 25.5278 313.996 25.8581 313.996 26.2389V32.0143H314Z" fill="white"/>
<path d="M49.5488 12.3942V12.3606C49.5488 8.93533 52.1294 6.09619 55.6524 6.09619C57.6743 6.09619 58.9477 6.78871 60.1327 7.79296C60.2192 7.87882 60.3076 8.00015 60.3076 8.15508C60.3076 8.39775 60.08 8.60494 59.8374 8.60494C59.7151 8.60494 59.5929 8.55268 59.5233 8.48361C58.5113 7.5671 57.3433 6.90818 55.6354 6.90818C52.7069 6.90818 50.4912 9.27879 50.4912 12.3251V12.3606C50.4912 15.4237 52.7407 17.8112 55.6524 17.8112C57.3094 17.8112 58.4775 17.2232 59.6286 16.1331C59.6982 16.064 59.8035 15.9949 59.9427 15.9949C60.1703 15.9949 60.3791 16.2021 60.3791 16.428C60.3791 16.5661 60.3095 16.6706 60.2399 16.7397C59.0023 17.8821 57.6593 18.625 55.6185 18.625C52.1313 18.625 49.5507 15.8736 49.5507 12.3942" fill="white"/>
<path d="M69.3229 14.0386V14.005C69.3229 11.8771 67.7185 10.1803 65.6607 10.1803C63.603 10.1803 62.0344 11.8939 62.0344 13.9696V14.005C62.0344 16.133 63.6388 17.8298 65.6965 17.8298C67.7542 17.8298 69.3229 16.1162 69.3229 14.0405M61.1108 14.0386V14.005C61.1108 11.5299 63.0463 9.38513 65.6965 9.38513C68.3467 9.38513 70.2483 11.4963 70.2483 13.9714V14.0069C70.2483 16.4821 68.3128 18.6268 65.6626 18.6268C63.0124 18.6268 61.1108 16.5157 61.1108 14.0405" fill="white"/>
<path d="M72.0107 9.95449C72.0107 9.71183 72.1857 9.52143 72.4302 9.52143C72.6747 9.52143 72.8666 9.69503 72.8666 9.95449V11.235C73.459 10.1972 74.454 9.3833 76.0754 9.3833C78.3249 9.3833 79.6322 10.9065 79.6322 13.0176V18.0538C79.6322 18.3133 79.4572 18.4869 79.2127 18.4869C78.9682 18.4869 78.7764 18.3133 78.7764 18.0538V13.1744C78.7764 11.3563 77.7475 10.1636 75.9512 10.1636C74.155 10.1636 72.8647 11.4795 72.8647 13.3126V18.0538C72.8647 18.3133 72.6897 18.4869 72.4471 18.4869C72.2045 18.4869 72.0107 18.3133 72.0107 18.0538V9.95449Z" fill="white"/>
<path d="M89.2905 13.5889V13.5534C89.2905 11.5113 87.4604 10.1972 85.6115 10.1972C83.7625 10.1972 82.1769 11.4777 82.1769 13.5366V13.5721C82.1769 15.5619 83.7814 16.9469 85.6115 16.9469C87.4416 16.9469 89.2905 15.5973 89.2905 13.5907M81.8459 20.0082C81.7236 19.9223 81.6541 19.7823 81.6541 19.6274C81.6541 19.437 81.8647 19.2298 82.0904 19.2298C82.1958 19.2298 82.2653 19.2653 82.3349 19.2989C83.3469 20.0437 84.5149 20.4226 85.7525 20.4226C87.7914 20.4226 89.2397 19.2634 89.2397 16.9973V15.7168C88.4723 16.8069 87.2874 17.7589 85.5268 17.7589C83.3826 17.7589 81.2534 16.1331 81.2534 13.6057V13.5702C81.2534 11.026 83.3807 9.38147 85.5268 9.38147C87.3062 9.38147 88.5081 10.3167 89.2397 11.3545V9.95266C89.2397 9.71186 89.4147 9.5196 89.6592 9.5196C89.9037 9.5196 90.0955 9.71 90.0955 9.95266V17.0477C90.0955 18.3282 89.6761 19.3306 88.9614 20.0418C88.194 20.8034 87.0428 21.2196 85.7356 21.2196C84.3231 21.2196 82.997 20.8034 81.8478 20.0082" fill="white"/>
<path d="M92.4653 9.95452C92.4653 9.71185 92.6403 9.52146 92.8848 9.52146C93.1293 9.52146 93.3211 9.69505 93.3211 9.95452V12.0993C94.0885 10.3857 95.6403 9.45239 96.8949 9.45239C97.1563 9.45239 97.3482 9.65959 97.3482 9.91905C97.3482 10.1617 97.1732 10.3689 96.8949 10.3857C95.0121 10.5593 93.3211 11.9611 93.3211 14.7984V18.052C93.3211 18.2946 93.1462 18.485 92.9036 18.485C92.6609 18.485 92.4672 18.3114 92.4672 18.052V9.95265L92.4653 9.95452Z" fill="white"/>
<path d="M104.898 13.5888C104.776 11.8062 103.747 10.1616 101.708 10.1616C99.9474 10.1616 98.5875 11.6326 98.4295 13.5888H104.898ZM101.883 18.6249C99.5468 18.6249 97.5229 16.7733 97.5229 14.0218V13.9882C97.5229 11.4272 99.3361 9.38513 101.742 9.38513C104.147 9.38513 105.821 11.4272 105.821 13.9546C105.821 14.1618 105.613 14.3522 105.402 14.3522H98.4277C98.5838 16.5493 100.171 17.8316 101.915 17.8316C103.188 17.8316 104.076 17.3127 104.793 16.6202C104.862 16.5511 104.951 16.4989 105.071 16.4989C105.299 16.4989 105.49 16.6725 105.49 16.8964C105.49 16.9823 105.455 17.0868 105.351 17.1914C104.479 18.0556 103.485 18.6268 101.881 18.6268" fill="white"/>
<path d="M106.869 17.4472C106.8 17.3949 106.711 17.2568 106.711 17.1187C106.711 16.8928 106.903 16.7043 107.131 16.7043C107.236 16.7043 107.34 16.7379 107.409 16.7901C108.335 17.4472 109.309 17.7944 110.374 17.7944C111.577 17.7944 112.518 17.1355 112.518 16.1163V16.0808C112.518 15.043 111.402 14.6603 110.165 14.315C108.716 13.8987 107.114 13.4675 107.114 11.8921V11.8585C107.114 10.4399 108.318 9.41882 110.042 9.41882C111.002 9.41882 112.066 9.73055 112.92 10.214C113.026 10.2831 113.148 10.4044 113.148 10.5948C113.148 10.8207 112.956 11.0111 112.728 11.0111C112.625 11.0111 112.537 10.9756 112.484 10.942C111.717 10.4921 110.863 10.214 110.007 10.214C108.786 10.214 107.985 10.8729 107.985 11.754V11.7876C107.985 12.775 109.189 13.1371 110.46 13.5011C111.89 13.8987 113.389 14.4195 113.389 15.9763V16.0118C113.389 17.5853 112.029 18.5896 110.319 18.5896C109.115 18.5896 107.774 18.1229 106.868 17.4472" fill="white"/>
<path d="M122.844 14.0386V14.005C122.844 11.8771 121.239 10.1803 119.182 10.1803C117.124 10.1803 115.555 11.8939 115.555 13.9696V14.005C115.555 16.133 117.16 17.8298 119.217 17.8298C121.275 17.8298 122.844 16.1162 122.844 14.0405M114.63 14.0386V14.005C114.63 11.5299 116.565 9.38513 119.216 9.38513C121.866 9.38513 123.767 11.4963 123.767 13.9714V14.0069C123.767 16.4821 121.832 18.6268 119.182 18.6268C116.531 18.6268 114.63 16.5157 114.63 14.0405" fill="white"/>
<path d="M56.6099 29.8285L54.9189 25.8302L53.228 29.8285H56.6099ZM49.0599 33.1866L53.3145 23.6518C53.6117 22.9948 54.1515 22.5972 54.8832 22.5972H55.0412C55.7729 22.5972 56.2976 22.9948 56.5929 23.6518L60.8475 33.1866C60.9341 33.377 60.9867 33.5487 60.9867 33.7223C60.9867 34.4316 60.43 35.0028 59.7134 35.0028C59.087 35.0028 58.6676 34.6407 58.4231 34.0863L57.603 32.1823H52.233L51.3791 34.1721C51.1515 34.6911 50.6982 35.0028 50.1414 35.0028C49.4436 35.0028 48.9038 34.4503 48.9038 33.7577C48.9038 33.5673 48.9734 33.377 49.0618 33.1866" fill="white"/>
<path d="M67.4739 31.6279V31.1613C67.0206 30.9541 66.4281 30.8141 65.7829 30.8141C64.6506 30.8141 63.9528 31.2639 63.9528 32.0946V32.1282C63.9528 32.8375 64.5453 33.2519 65.4011 33.2519C66.6388 33.2519 67.4758 32.578 67.4758 31.626M61.3892 32.2327V32.1991C61.3892 30.1738 62.9409 29.2405 65.1547 29.2405C66.0971 29.2405 66.7761 29.3954 67.44 29.6213V29.4645C67.44 28.3744 66.7591 27.7677 65.435 27.7677C64.7033 27.7677 64.1108 27.8723 63.6049 28.0272C63.4469 28.0794 63.3434 28.0962 63.2212 28.0962C62.6117 28.0962 62.1227 27.6296 62.1227 27.0248C62.1227 26.5581 62.4199 26.1587 62.8375 26.0038C63.6745 25.692 64.5811 25.5184 65.8187 25.5184C67.267 25.5184 68.3128 25.8992 68.9748 26.5563C69.6727 27.2488 69.9868 28.2698 69.9868 29.5149V33.7372C69.9868 34.4465 69.4112 35.0009 68.6965 35.0009C67.9291 35.0009 67.4231 34.4652 67.4231 33.9108V33.894C66.7779 34.6033 65.8883 35.0718 64.598 35.0718C62.8375 35.0718 61.391 34.0676 61.391 32.2327" fill="white"/>
<path d="M78.5657 30.2784V30.2429C78.5657 28.703 77.5199 27.6819 76.2822 27.6819C75.0446 27.6819 74.0158 28.703 74.0158 30.2429V30.2784C74.0158 31.8184 75.0446 32.8394 76.2822 32.8394C77.5199 32.8394 78.5657 31.8352 78.5657 30.2784ZM71.3994 26.8345C71.3994 26.1065 71.9919 25.5185 72.7254 25.5185C73.459 25.5185 74.0515 26.1065 74.0515 26.8345V26.9558C74.6966 26.0915 75.5863 25.4513 76.9631 25.4513C79.1431 25.4513 81.2177 27.1462 81.2177 30.2448V30.2803C81.2177 33.3789 79.1769 35.0738 76.9631 35.0738C75.5506 35.0738 74.6797 34.4335 74.0515 33.6906V36.4588C74.0515 37.1849 73.459 37.7729 72.7254 37.7729C71.9919 37.7729 71.3994 37.1849 71.3994 36.4588V26.8363V26.8345Z" fill="white"/>
<path d="M82.2988 26.8344C82.2988 26.1064 82.8913 25.5184 83.623 25.5184C84.3547 25.5184 84.949 26.1064 84.949 26.8344V27.2488C85.3327 26.3491 85.961 25.5184 86.7453 25.5184C87.5296 25.5184 88.0356 26.0542 88.0356 26.7989C88.0356 27.4915 87.5823 27.9059 87.0406 28.0272C85.6976 28.3389 84.949 29.36 84.949 31.2285V33.6868C84.949 34.4129 84.3565 35.0009 83.623 35.0009C82.8894 35.0009 82.2988 34.4129 82.2988 33.6868V26.8344Z" fill="white"/>
<path d="M94.5926 29.5354C94.4346 28.3576 93.7386 27.5624 92.6214 27.5624C91.5041 27.5624 90.8082 28.3408 90.5994 29.5354H94.5926ZM92.8828 35.1073C90.0746 35.1073 88 33.1511 88 30.3138V30.2802C88 27.6333 89.8997 25.4531 92.6214 25.4531C95.7418 25.4531 97.1205 27.9973 97.1205 29.9181C97.1205 30.6797 96.5807 31.1818 95.8829 31.1818H90.6333C90.8947 32.3765 91.7317 32.998 92.9167 32.998C93.6502 32.998 94.2597 32.7722 94.7995 32.3746C94.9913 32.2365 95.1662 32.1674 95.4446 32.1674C96.0371 32.1674 96.4735 32.6173 96.4735 33.2052C96.4735 33.5506 96.3174 33.81 96.1255 33.9836C95.3054 34.6761 94.2427 35.1073 92.8809 35.1073" fill="white"/>
<path d="M98.0289 34.0154C97.7505 33.8418 97.5229 33.5301 97.5229 33.1157C97.5229 32.5258 97.9762 32.0778 98.5687 32.0778C98.7606 32.0778 98.9524 32.1301 99.0916 32.216C99.9813 32.7704 100.871 33.0466 101.62 33.0466C102.368 33.0466 102.735 32.7704 102.735 32.3541V32.3186C102.735 31.7474 101.828 31.557 100.799 31.2453C99.4923 30.8645 98.0101 30.2579 98.0101 28.4584V28.4248C98.0101 26.5395 99.5449 25.483 101.428 25.483C102.404 25.483 103.416 25.7425 104.322 26.1924C104.706 26.3827 104.949 26.7281 104.949 27.1779C104.949 27.7659 104.479 28.2158 103.886 28.2158C103.694 28.2158 103.572 28.1803 103.397 28.0944C102.647 27.7323 101.932 27.5065 101.375 27.5065C100.73 27.5065 100.399 27.7827 100.399 28.1467V28.1803C100.399 28.6992 101.289 28.9419 102.299 29.2872C103.606 29.7203 105.124 30.3437 105.124 32.0386V32.0741C105.124 34.133 103.572 35.0682 101.548 35.0682C100.397 35.0682 99.1593 34.7396 98.0251 34.0117" fill="white"/>
<path d="M106.277 26.8344C106.277 26.1064 106.869 25.5184 107.601 25.5184C108.333 25.5184 108.927 26.1064 108.927 26.8344V33.6868C108.927 34.4129 108.334 35.0009 107.601 35.0009C106.867 35.0009 106.277 34.4129 106.277 33.6868V26.8344ZM106.121 23.4092C106.121 22.6476 106.766 22.1809 107.603 22.1809C108.44 22.1809 109.085 22.6476 109.085 23.4092V23.4428C109.085 24.2043 108.44 24.6878 107.603 24.6878C106.766 24.6878 106.121 24.2025 106.121 23.4428V23.4092Z" fill="white"/>
<path d="M112.783 30.2429V30.2784C112.783 31.8183 113.829 32.8394 115.066 32.8394C116.304 32.8394 117.333 31.8183 117.333 30.2784V30.2429C117.333 28.7029 116.304 27.6819 115.066 27.6819C113.829 27.6819 112.783 28.6861 112.783 30.2429ZM119.949 33.6868C119.949 34.413 119.357 35.0009 118.623 35.0009C117.89 35.0009 117.299 34.413 117.299 33.6868V33.5655C116.654 34.4298 115.764 35.0719 114.387 35.0719C112.207 35.0719 110.133 33.377 110.133 30.2784V30.2429C110.133 27.1462 112.174 25.4494 114.387 25.4494C115.8 25.4494 116.671 26.0897 117.299 26.8326V23.4764C117.299 22.7484 117.892 22.1604 118.623 22.1604C119.355 22.1604 119.949 22.7484 119.949 23.4764V33.6868Z" fill="white"/>
<path d="M23.2518 26.7615C23.2518 24.5813 25.1083 22.739 27.3089 22.739C29.5096 22.739 31.3623 24.5813 31.3623 26.7615C31.3623 28.9418 29.5434 30.786 27.3089 30.786C25.0744 30.786 23.2518 28.981 23.2518 26.7615ZM10.599 27.6351C10.599 26.6794 11.0805 25.7013 11.8121 24.3181L18.9934 10.7291C19.6837 9.42428 20.6261 7.63605 22.6085 7.63605C24.4782 7.63605 25.8343 8.96136 25.8343 10.7869C25.8343 11.7408 25.3547 12.7208 24.6211 14.1039L17.4417 27.693C16.7514 28.9996 15.8072 30.786 13.8247 30.786C11.9551 30.786 10.5971 29.4626 10.5971 27.637M16.8906 2.38709C16.6574 2.65402 16.4034 2.90415 16.1363 3.14121C14.6918 4.30412 12.8636 5.01717 10.8773 5.07504L10.6535 5.06944C7.88106 5.06944 5.62774 7.24033 5.40015 9.98614C5.24403 12.4613 4.04778 14.6396 2.26844 16.118C0.88974 17.0607 0.00195312 18.6641 0.00195312 20.4635C0.00195312 22.263 0.857764 23.7973 2.16123 24.7997C4.01016 26.2389 5.24403 28.4508 5.45469 30.9409C5.57883 32.367 6.27289 33.6289 7.30738 34.4968C8.25348 35.3891 9.54002 35.9323 10.9751 35.9323C13.0836 35.9771 15.0134 36.7947 16.5144 38.1106C16.7063 38.2898 16.8887 38.4746 17.0636 38.6669C18.0154 39.7906 19.4242 40.5018 21.0041 40.5018C22.5841 40.5018 24.0738 39.7477 25.0706 38.6146C25.3058 38.3458 25.5597 38.0957 25.8268 37.8587C27.2732 36.6976 29.1014 35.9846 31.0895 35.9267L31.3115 35.9323C34.0839 35.9323 36.3391 33.7614 36.563 31.0156C36.721 28.5423 37.9135 26.3621 39.6966 24.8818C41.0715 23.9355 41.963 22.3376 41.963 20.5363C41.963 18.735 41.1054 17.2025 39.8019 16.2001C37.9548 14.761 36.7191 12.5509 36.5103 10.0608C36.3862 8.6347 35.6902 7.37099 34.6595 6.50674C33.7115 5.61449 32.4287 5.07317 30.9898 5.07317C28.8814 5.02837 26.9553 4.20892 25.4506 2.89108C25.2569 2.71375 25.0744 2.52709 24.8995 2.33669C23.9515 1.21298 22.5389 0.503662 20.9609 0.503662C19.3828 0.503662 17.8912 1.25965 16.8925 2.39082" fill="white"/>
<path d="M169.27 12.2915C164.953 12.2971 159.503 12.5435 152.997 13.3014C152.997 13.3014 166.17 15.321 179.284 20.8892C179.284 20.8892 175.105 19.7338 168.175 19.9316C168.175 19.9316 173.273 22.0446 181.122 28.1392L181.092 13.0531C181.092 13.0531 177.091 12.3008 169.526 12.2934H169.272L169.27 12.2915Z" fill="white"/>
<mask id="mask0_1_700" style="mask-type:luminance" maskUnits="userSpaceOnUse" x="152" y="12" width="30" height="17">
<path d="M169.27 12.2915C164.953 12.2971 159.503 12.5435 152.997 13.3014C152.997 13.3014 166.17 15.321 179.284 20.8892C179.284 20.8892 175.105 19.7338 168.175 19.9316C168.175 19.9316 173.273 22.0446 181.122 28.1392L181.092 13.0531C181.092 13.0531 177.091 12.3008 169.526 12.2934H169.272L169.27 12.2915Z" fill="white"/>
</mask>
<g mask="url(#mask0_1_700)">
<path d="M181.12 12.2915H152.995V28.1373H181.12V12.2915Z" fill="white"/>
</g>
<path d="M140.171 27.4429C143.438 25.6678 159.482 16.6762 175.109 19.7879C175.109 19.7879 158.083 13.167 140.105 12.7974L140.171 27.4429Z" fill="white"/>
<mask id="mask1_1_700" style="mask-type:luminance" maskUnits="userSpaceOnUse" x="140" y="12" width="36" height="16">
<path d="M140.171 27.4429C143.438 25.6678 159.482 16.6762 175.109 19.7879C175.109 19.7879 158.083 13.167 140.105 12.7974L140.171 27.4429Z" fill="white"/>
</mask>
<g mask="url(#mask1_1_700)">
<path d="M175.109 12.7974H140.105V27.4429H175.109V12.7974Z" fill="white"/>
</g>
<path d="M140.148 28.2456L140.182 35.6524L144.606 35.6337L144.602 34.7863L141.206 34.8012L141.194 32.1879L144.23 32.1749L144.226 31.3423L141.19 31.3554L141.181 29.0874L144.401 29.0725L144.397 28.2269L140.148 28.2456Z" fill="white"/>
<path d="M146.938 31.8612L145.099 29.1453L146.387 29.1416L147.619 31.1743L148.853 29.1304L150.008 29.1248L148.215 31.8556L150.211 34.8366L148.932 34.8422L147.535 32.6098L146.16 34.8553L144.926 34.8609L146.938 31.8612Z" fill="white"/>
<path d="M153.14 29.8285C152.017 29.8323 151.482 30.9243 151.488 31.9882C151.492 32.9402 151.983 34.1143 153.149 34.1106C154.261 34.1069 154.718 32.8375 154.691 31.9397C154.71 30.9093 154.264 29.8248 153.141 29.8304M150.44 29.123L151.432 29.1174L151.435 29.9237H151.458C151.729 29.4963 152.366 28.9792 153.358 28.9755C154.988 28.968 155.786 30.3195 155.795 31.8557C155.801 33.4237 155.092 34.9506 153.397 34.9599C152.406 34.9636 151.844 34.5735 151.522 34.0471H151.499L151.513 37.1868L150.478 37.1905L150.44 29.1248V29.123Z" fill="white"/>
<path d="M159.115 34.0826C160.327 34.077 160.861 32.9533 160.857 31.9322C160.851 30.8458 160.199 29.7968 159.097 29.8005C157.985 29.8061 157.34 30.8608 157.345 31.9471C157.349 32.9682 157.895 34.0863 159.117 34.0807M159.095 28.9512C160.801 28.9437 161.95 30.1925 161.959 31.9285C161.965 33.5636 160.804 34.9263 159.121 34.9338C157.426 34.9412 156.253 33.5898 156.245 31.9546C156.238 30.2186 157.377 28.9587 159.095 28.9512Z" fill="white"/>
<path d="M165.732 32.046C165.512 32.046 165.292 32.0274 165.072 32.0274C164.51 32.0292 163.125 32.1244 163.129 33.1324C163.131 33.7391 163.705 34.062 164.179 34.0601C165.202 34.0545 165.74 33.4012 165.734 32.5519V32.046H165.732ZM162.649 29.472C163.167 29.1565 163.782 28.9325 164.496 28.9288C166.103 28.9213 166.757 29.7239 166.763 31.2807L166.774 33.6457C166.776 34.2935 166.799 34.5977 166.823 34.7638L165.854 34.7676L165.851 34.0284H165.828C165.587 34.3793 165.04 34.9076 164.092 34.9113C162.883 34.9169 162.031 34.3831 162.025 33.138C162.019 31.7063 163.556 31.249 164.624 31.2453C165.032 31.2453 165.318 31.2415 165.727 31.2639C165.723 30.2783 165.367 29.7762 164.333 29.7799C163.75 29.7818 163.123 30.0114 162.706 30.3698L162.646 29.4738L162.649 29.472Z" fill="white"/>
<path d="M171.202 31.9565C171.196 30.7675 170.651 29.752 169.55 29.7558C168.507 29.7614 167.993 30.9149 167.997 31.893C168.002 32.9664 168.601 33.9053 169.569 33.9015C170.538 33.8978 171.208 33.0205 171.202 31.9584M172.248 34.4933C172.255 36.2292 171.379 37.2297 169.366 37.2391C168.772 37.2409 168.255 37.1663 167.35 36.8564L167.455 35.8802C168.249 36.246 168.723 36.3898 169.483 36.386C170.572 36.3804 171.219 35.6282 171.215 34.4186V33.8586H171.189C170.752 34.4541 170.026 34.7471 169.31 34.7509C167.703 34.7583 166.904 33.4293 166.897 31.9509C166.891 30.4837 167.7 28.912 169.392 28.9046C170.384 28.9008 170.937 29.2648 171.247 29.8808H171.27L171.266 29.0296L172.223 29.0259L172.248 34.4933Z" fill="white"/>
<path d="M172.801 29.024L173.771 29.0203V29.9051H173.796C174.067 29.3096 174.661 28.8822 175.255 28.8784C175.564 28.8784 175.718 28.9101 175.938 28.9531L175.942 29.8939C175.754 29.8173 175.545 29.7949 175.37 29.7968C174.445 29.8005 173.843 30.6984 173.848 32.1338L173.86 34.7322L172.825 34.7378L172.799 29.024H172.801Z" fill="white"/>
<path d="M178.28 33.9967C179.491 33.9911 180.025 32.8674 180.022 31.8464C180.014 30.76 179.363 29.711 178.261 29.7147C177.149 29.7203 176.502 30.7749 176.508 31.8613C176.514 32.8824 177.057 34.0005 178.28 33.9949M178.257 28.8654C179.963 28.8598 181.113 30.1067 181.12 31.8426C181.128 33.4778 179.969 34.8405 178.284 34.8479C176.589 34.8554 175.415 33.5039 175.408 31.8688C175.4 30.1328 176.538 28.8747 178.255 28.8654" fill="white"/>
<path d="M140.724 7.17135C140.537 7.07615 140.395 6.94176 140.293 6.77003C140.191 6.5983 140.141 6.39857 140.141 6.1727V5.08819C140.141 4.86233 140.191 4.66447 140.293 4.49087C140.395 4.31914 140.537 4.18474 140.724 4.09141C140.91 3.99808 141.126 3.95142 141.373 3.95142C141.619 3.95142 141.83 3.99621 142.014 4.08581C142.198 4.17541 142.341 4.30234 142.445 4.46661C142.546 4.63087 142.599 4.82127 142.599 5.03779C142.599 5.06579 142.58 5.08259 142.543 5.09006L141.99 5.12366H141.98C141.948 5.12366 141.933 5.10686 141.933 5.07139C141.933 4.90526 141.882 4.77273 141.779 4.67194C141.675 4.57114 141.542 4.52074 141.374 4.52074C141.207 4.52074 141.068 4.57114 140.964 4.67194C140.861 4.77273 140.81 4.90526 140.81 5.07139V6.20257C140.81 6.36497 140.861 6.4975 140.964 6.59643C141.066 6.69723 141.203 6.74763 141.374 6.74763C141.546 6.74763 141.677 6.69723 141.779 6.59643C141.88 6.49563 141.933 6.36497 141.933 6.20257C141.933 6.16897 141.952 6.15031 141.99 6.15031L142.543 6.17457C142.558 6.17457 142.571 6.18017 142.582 6.1895C142.593 6.19884 142.599 6.21004 142.599 6.2231C142.599 6.43963 142.548 6.63003 142.445 6.79616C142.341 6.96229 142.198 7.09109 142.014 7.18069C141.83 7.27215 141.615 7.31695 141.373 7.31695C141.13 7.31695 140.91 7.26842 140.724 7.17322V7.17135Z" fill="white"/>
<path d="M143.694 7.17695C143.506 7.07615 143.361 6.93616 143.256 6.75696C143.152 6.57776 143.1 6.3687 143.1 6.13537V5.13113C143.1 4.89966 143.152 4.69433 143.256 4.51514C143.359 4.33594 143.506 4.19781 143.694 4.09888C143.882 3.99995 144.098 3.95142 144.345 3.95142C144.591 3.95142 144.813 3.99995 144.999 4.09888C145.187 4.19781 145.332 4.33594 145.438 4.51514C145.541 4.69433 145.594 4.89966 145.594 5.13113V6.13537C145.594 6.37057 145.541 6.57776 145.438 6.76069C145.334 6.94176 145.187 7.08175 144.999 7.18069C144.811 7.27962 144.593 7.32815 144.345 7.32815C144.096 7.32815 143.882 7.27775 143.694 7.17695ZM144.766 6.59456C144.873 6.48443 144.928 6.33884 144.928 6.15777V5.12366C144.928 4.9426 144.875 4.79513 144.77 4.685C144.665 4.573 144.523 4.51887 144.347 4.51887C144.17 4.51887 144.034 4.57487 143.927 4.685C143.822 4.797 143.769 4.9426 143.769 5.12366V6.15777C143.769 6.33884 143.822 6.48443 143.927 6.59456C144.033 6.70469 144.172 6.75883 144.347 6.75883C144.522 6.75883 144.661 6.70469 144.768 6.59456H144.766Z" fill="white"/>
<path d="M148.089 4.00557C148.101 3.99437 148.114 3.98877 148.129 3.98877H148.682C148.697 3.98877 148.71 3.99437 148.721 4.00557C148.733 4.01677 148.738 4.02984 148.738 4.04477V7.2199C148.738 7.23484 148.733 7.24977 148.721 7.2591C148.71 7.26844 148.697 7.2759 148.682 7.2759H148.148C148.116 7.2759 148.093 7.26284 148.082 7.23857L146.856 5.22821C146.85 5.21888 146.842 5.21514 146.837 5.21701C146.831 5.21701 146.827 5.22634 146.827 5.23754L146.837 7.2199C146.837 7.23484 146.831 7.24977 146.82 7.2591C146.809 7.2703 146.795 7.2759 146.78 7.2759H146.227C146.212 7.2759 146.197 7.2703 146.188 7.2591C146.177 7.2479 146.171 7.23484 146.171 7.2199V4.04477C146.171 4.02984 146.177 4.01677 146.188 4.00557C146.199 3.99437 146.212 3.98877 146.227 3.98877H146.762C146.793 3.98877 146.816 4.00184 146.827 4.0261L148.048 6.02713C148.054 6.03646 148.061 6.0402 148.067 6.03833C148.072 6.03833 148.076 6.029 148.076 6.0178L148.071 4.04477C148.071 4.02984 148.076 4.01677 148.088 4.00557H148.089Z" fill="white"/>
<path d="M150.267 7.2591C150.256 7.2479 150.25 7.23484 150.25 7.2199V4.04477C150.25 4.02984 150.256 4.01677 150.267 4.00557C150.279 3.99437 150.292 3.98877 150.307 3.98877H150.86C150.875 3.98877 150.888 3.99437 150.899 4.00557C150.911 4.01677 150.916 4.02984 150.916 4.04477V6.68418C150.916 6.69912 150.924 6.70845 150.941 6.70845H152.489C152.504 6.70845 152.517 6.71405 152.528 6.72525C152.54 6.73645 152.545 6.74951 152.545 6.76445V7.2199C152.545 7.23484 152.54 7.24977 152.528 7.2591C152.517 7.2703 152.504 7.2759 152.489 7.2759H150.307C150.292 7.2759 150.277 7.2703 150.267 7.2591Z" fill="white"/>
<path d="M155.164 7.22924L155.023 6.76818C155.017 6.75511 155.008 6.74951 154.998 6.74951H153.834C153.824 6.74951 153.817 6.75511 153.809 6.76818L153.672 7.22924C153.663 7.26097 153.642 7.2759 153.61 7.2759H153.008C152.989 7.2759 152.974 7.2703 152.965 7.2591C152.955 7.2479 152.954 7.2311 152.959 7.21057L153.981 4.03544C153.99 4.0037 154.011 3.98877 154.043 3.98877H154.786C154.818 3.98877 154.838 4.0037 154.848 4.03544L155.869 7.21057C155.869 7.21057 155.875 7.22551 155.875 7.23484C155.875 7.26284 155.858 7.27777 155.822 7.27777H155.22C155.188 7.27777 155.167 7.26284 155.158 7.23111L155.164 7.22924ZM153.999 6.23806H154.833C154.851 6.23806 154.857 6.22872 154.851 6.21006L154.426 4.81569C154.423 4.80262 154.419 4.79702 154.411 4.79889C154.406 4.79889 154.4 4.80635 154.396 4.81569L153.981 6.21006C153.977 6.22872 153.984 6.23806 153.999 6.23806Z" fill="white"/>
<path d="M159.505 4.54126C159.494 4.55246 159.48 4.55806 159.465 4.55806H157.917C157.902 4.55806 157.893 4.56552 157.893 4.58232V5.31031C157.893 5.32524 157.9 5.33457 157.917 5.33457H158.935C158.95 5.33457 158.963 5.34017 158.974 5.35137C158.986 5.36257 158.991 5.37564 158.991 5.39057V5.84603C158.991 5.86096 158.986 5.8759 158.974 5.88523C158.963 5.89643 158.95 5.90203 158.935 5.90203H157.917C157.902 5.90203 157.893 5.9095 157.893 5.9263V7.22174C157.893 7.23667 157.887 7.2516 157.876 7.26094C157.865 7.27214 157.852 7.27773 157.836 7.27773H157.283C157.268 7.27773 157.253 7.27214 157.244 7.26094C157.233 7.24974 157.227 7.23667 157.227 7.22174V4.0466C157.227 4.03167 157.233 4.0186 157.244 4.0074C157.255 3.9962 157.268 3.9906 157.283 3.9906H159.465C159.48 3.9906 159.494 3.9962 159.505 4.0074C159.516 4.0186 159.522 4.03167 159.522 4.0466V4.50206C159.522 4.51699 159.516 4.53192 159.505 4.54126Z" fill="white"/>
<path d="M160.556 7.17324C160.372 7.07991 160.229 6.94738 160.125 6.77565C160.022 6.60578 159.971 6.40792 159.971 6.18579V4.04477C159.971 4.02984 159.977 4.01677 159.988 4.00557C159.999 3.99437 160.013 3.98877 160.028 3.98877H160.581C160.596 3.98877 160.609 3.99437 160.62 4.00557C160.631 4.01677 160.637 4.02984 160.637 4.04477V6.19139C160.637 6.35752 160.688 6.49192 160.791 6.59272C160.893 6.69538 161.028 6.74578 161.196 6.74578C161.363 6.74578 161.498 6.69538 161.6 6.59272C161.702 6.49192 161.754 6.35752 161.754 6.19139V4.04477C161.754 4.02984 161.76 4.01677 161.771 4.00557C161.783 3.99437 161.796 3.98877 161.811 3.98877H162.364C162.379 3.98877 162.392 3.99437 162.403 4.00557C162.414 4.01677 162.42 4.02984 162.42 4.04477V6.18579C162.42 6.40792 162.369 6.60392 162.266 6.77565C162.162 6.94551 162.019 7.07804 161.835 7.17324C161.651 7.26657 161.436 7.31324 161.194 7.31324C160.951 7.31324 160.737 7.26657 160.552 7.17324H160.556Z" fill="white"/>
<path d="M165.326 4.54122C165.315 4.55242 165.302 4.55802 165.286 4.55802H163.735C163.72 4.55802 163.71 4.56549 163.71 4.58229V5.31027C163.71 5.32521 163.718 5.33454 163.735 5.33454H164.752C164.767 5.33454 164.781 5.34014 164.792 5.35134C164.803 5.36254 164.809 5.3756 164.809 5.39054V5.84599C164.809 5.86093 164.803 5.87586 164.792 5.88519C164.781 5.89453 164.767 5.90199 164.752 5.90199H163.735C163.72 5.90199 163.71 5.90946 163.71 5.92626V6.68784C163.71 6.70278 163.718 6.71211 163.735 6.71211H165.286C165.302 6.71211 165.315 6.71771 165.326 6.72891C165.337 6.74011 165.343 6.75318 165.343 6.76811V7.22357C165.343 7.2385 165.337 7.25343 165.326 7.26277C165.315 7.2721 165.302 7.27957 165.286 7.27957H163.101C163.086 7.27957 163.071 7.27397 163.061 7.26277C163.05 7.25157 163.044 7.2385 163.044 7.22357V4.04843C163.044 4.0335 163.05 4.02043 163.061 4.00923C163.073 3.99803 163.086 3.99243 163.101 3.99243H165.286C165.302 3.99243 165.315 3.99803 165.326 4.00923C165.337 4.02043 165.343 4.0335 165.343 4.04843V4.50389C165.343 4.51882 165.337 4.53375 165.326 4.54309V4.54122Z" fill="white"/>
<path d="M167.619 7.2348L167.026 5.93376C167.021 5.9207 167.011 5.9151 166.998 5.9151H166.558C166.543 5.9151 166.534 5.92256 166.534 5.93936V7.22174C166.534 7.23667 166.528 7.2516 166.517 7.26094C166.505 7.27027 166.492 7.27773 166.477 7.27773H165.924C165.909 7.27773 165.894 7.27214 165.885 7.26094C165.873 7.24974 165.868 7.23667 165.868 7.22174V4.0466C165.868 4.03167 165.873 4.0186 165.885 4.0074C165.896 3.9962 165.909 3.9906 165.924 3.9906H167.278C167.48 3.9906 167.658 4.03167 167.811 4.11193C167.963 4.19406 168.082 4.30979 168.166 4.45912C168.249 4.61032 168.292 4.78392 168.292 4.97991C168.292 5.19271 168.238 5.37564 168.13 5.52684C168.023 5.67803 167.873 5.7863 167.681 5.8479C167.666 5.8535 167.66 5.8647 167.666 5.8815L168.309 7.21054C168.315 7.2236 168.318 7.23294 168.318 7.23854C168.318 7.2628 168.302 7.27587 168.266 7.27587H167.685C167.653 7.27587 167.63 7.26094 167.619 7.23294V7.2348ZM166.535 4.58046V5.38311C166.535 5.39804 166.543 5.40737 166.56 5.40737H167.181C167.312 5.40737 167.421 5.36817 167.504 5.28977C167.587 5.21138 167.63 5.11058 167.63 4.98365C167.63 4.85672 167.589 4.75592 167.504 4.67565C167.421 4.59539 167.312 4.55619 167.181 4.55619H166.56C166.545 4.55619 166.535 4.56366 166.535 4.58046Z" fill="white"/>
<path d="M168.781 7.2591C168.77 7.2479 168.764 7.23484 168.764 7.2199V6.71218C168.764 6.68792 168.772 6.66365 168.789 6.64125L170.318 4.58422C170.318 4.58422 170.325 4.57116 170.32 4.56556C170.314 4.55996 170.308 4.55622 170.299 4.55622H168.822C168.807 4.55622 168.792 4.55062 168.783 4.53943C168.772 4.52823 168.766 4.51516 168.766 4.50023V4.04477C168.766 4.02984 168.772 4.01677 168.783 4.00557C168.794 3.99437 168.807 3.98877 168.822 3.98877H171.014C171.029 3.98877 171.042 3.99437 171.053 4.00557C171.065 4.01677 171.07 4.02984 171.07 4.04477V4.55249C171.07 4.57676 171.063 4.60102 171.046 4.62342L169.517 6.68045C169.517 6.68045 169.513 6.69352 169.517 6.69912C169.52 6.70472 169.526 6.70845 169.535 6.70845H171.012C171.027 6.70845 171.04 6.71405 171.051 6.72525C171.063 6.73645 171.068 6.74951 171.068 6.76445V7.2199C171.068 7.23484 171.063 7.24977 171.051 7.2591C171.04 7.2703 171.027 7.2759 171.012 7.2759H168.821C168.806 7.2759 168.79 7.2703 168.781 7.2591Z" fill="white"/>
<path d="M173.715 7.22924L173.572 6.76818C173.566 6.75511 173.557 6.74951 173.547 6.74951H172.383C172.374 6.74951 172.366 6.75511 172.359 6.76818L172.221 7.22924C172.212 7.26097 172.191 7.2759 172.159 7.2759H171.557C171.539 7.2759 171.524 7.2703 171.514 7.2591C171.505 7.2479 171.503 7.2311 171.509 7.21057L172.53 4.03544C172.539 4.0037 172.56 3.98877 172.592 3.98877H173.335C173.367 3.98877 173.388 4.0037 173.397 4.03544L174.418 7.21057C174.418 7.21057 174.424 7.22551 174.424 7.23484C174.424 7.26284 174.407 7.27777 174.371 7.27777H173.769C173.737 7.27777 173.717 7.26284 173.707 7.23111L173.715 7.22924ZM172.551 6.23806H173.384C173.403 6.23806 173.408 6.22872 173.403 6.21006L172.978 4.81569C172.974 4.80262 172.97 4.79702 172.962 4.79889C172.957 4.79889 172.951 4.80635 172.947 4.81569L172.532 6.21006C172.528 6.22872 172.536 6.23806 172.551 6.23806Z" fill="white"/>
<path d="M175.795 7.2591C175.784 7.2479 175.778 7.23484 175.778 7.2199V4.04477C175.778 4.02984 175.784 4.01677 175.795 4.00557C175.807 3.99437 175.82 3.98877 175.835 3.98877H177.018C177.255 3.98877 177.462 4.02984 177.64 4.11383C177.819 4.19597 177.956 4.31356 178.054 4.46289C178.152 4.61409 178.201 4.78769 178.201 4.98368V6.27912C178.201 6.47699 178.152 6.65058 178.054 6.79991C177.956 6.95111 177.819 7.06684 177.64 7.14897C177.462 7.2311 177.255 7.27404 177.018 7.27404H175.835C175.82 7.27404 175.805 7.26844 175.795 7.25724V7.2591ZM176.469 6.70845H177.04C177.185 6.70845 177.304 6.65992 177.392 6.56285C177.482 6.46579 177.529 6.33512 177.531 6.17273V5.09195C177.531 4.92955 177.486 4.79889 177.396 4.70182C177.306 4.60476 177.185 4.55622 177.035 4.55622H176.467C176.452 4.55622 176.442 4.56369 176.442 4.58049V6.68418C176.442 6.69912 176.45 6.70845 176.467 6.70845H176.469Z" fill="white"/>
<path d="M181.067 4.54122C181.056 4.55242 181.043 4.55802 181.028 4.55802H179.476C179.461 4.55802 179.451 4.56549 179.451 4.58229V5.31027C179.451 5.32521 179.459 5.33454 179.476 5.33454H180.493C180.509 5.33454 180.522 5.34014 180.533 5.35134C180.544 5.36254 180.55 5.3756 180.55 5.39054V5.84599C180.55 5.86093 180.544 5.87586 180.533 5.88519C180.522 5.89453 180.509 5.90199 180.493 5.90199H179.476C179.461 5.90199 179.451 5.90946 179.451 5.92626V6.68784C179.451 6.70278 179.459 6.71211 179.476 6.71211H181.028C181.043 6.71211 181.056 6.71771 181.067 6.72891C181.078 6.74011 181.084 6.75318 181.084 6.76811V7.22357C181.084 7.2385 181.078 7.25343 181.067 7.26277C181.056 7.2721 181.043 7.27957 181.028 7.27957H178.842C178.827 7.27957 178.812 7.27397 178.803 7.26277C178.791 7.25157 178.786 7.2385 178.786 7.22357V4.04843C178.786 4.0335 178.791 4.02043 178.803 4.00923C178.814 3.99803 178.827 3.99243 178.842 3.99243H181.028C181.043 3.99243 181.056 3.99803 181.067 4.00923C181.078 4.02043 181.084 4.0335 181.084 4.04843V4.50389C181.084 4.51882 181.078 4.53375 181.067 4.54309V4.54122Z" fill="white"/>
</g>
<defs>
<clipPath id="clip0_1_700">
<rect width="314" height="40" fill="white" transform="translate(0 0.5)"/>
</clipPath>
</defs>
</svg>
