<svg width="81" height="66" viewBox="0 0 81 66" fill="none" xmlns="http://www.w3.org/2000/svg">
<g id="Group">
<g id="Group_2">
<path id="Vector" d="M56.915 16.7434C48.5016 16.7543 37.8776 17.2348 25.197 18.7126C25.197 18.7126 50.8734 22.651 76.4326 33.5089C76.4326 33.5089 68.2868 31.2558 54.7814 31.6416C54.7814 31.6416 64.7161 35.762 80.0142 47.6464L79.9556 18.2285C79.9556 18.2285 72.158 16.7616 57.4135 16.747H56.9186L56.915 16.7434Z" fill="white"/>
<g id="Clip path group">
<mask id="mask0_6263_1123" style="mask-type:luminance" maskUnits="userSpaceOnUse" x="25" y="16" width="56" height="32">
<g id="clippath">
<path id="Vector_2" d="M56.915 16.7434C48.5016 16.7543 37.8776 17.2348 25.197 18.7126C25.197 18.7126 50.8734 22.651 76.4326 33.5089C76.4326 33.5089 68.2868 31.2558 54.7814 31.6416C54.7814 31.6416 64.7161 35.762 80.0142 47.6464L79.9556 18.2285C79.9556 18.2285 72.158 16.7616 57.4135 16.747H56.9186L56.915 16.7434Z" fill="white"/>
</g>
</mask>
<g mask="url(#mask0_6263_1123)">
<g id="Group_3">
<path id="Vector_3" d="M80.0106 16.7434H25.1934V47.6427H80.0106V16.7434Z" fill="white"/>
</g>
</g>
</g>
</g>
<g id="Group_4">
<path id="Vector_4" d="M0.198857 46.2886C6.56664 42.827 37.8373 25.2935 68.2942 31.3613C68.2942 31.3613 35.1099 18.4504 0.0705566 17.7297L0.198857 46.2886Z" fill="white"/>
<g id="Clip path group_2">
<mask id="mask1_6263_1123" style="mask-type:luminance" maskUnits="userSpaceOnUse" x="0" y="17" width="69" height="30">
<g id="clippath-1">
<path id="Vector_5" d="M0.198857 46.2886C6.56664 42.827 37.8373 25.2935 68.2942 31.3613C68.2942 31.3613 35.1099 18.4504 0.0705566 17.7297L0.198857 46.2886Z" fill="white"/>
</g>
</mask>
<g mask="url(#mask1_6263_1123)">
<g id="Group_5">
<path id="Vector_6" d="M68.2942 17.7297H0.0705566V46.2886H68.2942V17.7297Z" fill="white"/>
</g>
</g>
</g>
</g>
<path id="Vector_7" d="M0.154785 47.8538L0.22077 62.297L8.84313 62.2606L8.83579 60.6081L2.21506 60.6372L2.19306 55.5413L8.10993 55.5158L8.1026 53.8924L2.18574 53.9179L2.1674 49.4954L8.44353 49.4663L8.43621 47.8174L0.154785 47.8538Z" fill="white"/>
<path id="Vector_8" d="M13.3889 54.9045L9.80357 49.6084L12.3148 49.6011L14.716 53.565L17.1208 49.5793L19.3718 49.5684L15.8781 54.8936L19.7677 60.7065L17.2748 60.7175L14.551 56.3641L11.8712 60.7429L9.46631 60.7539L13.3889 54.9045Z" fill="white"/>
<path id="Vector_9" d="M25.4757 50.9406C23.2872 50.9479 22.246 53.0772 22.257 55.152C22.2644 57.0084 23.2212 59.2979 25.4941 59.2906C27.6607 59.2833 28.5515 56.8082 28.5002 55.0574C28.5368 53.0481 27.668 50.9333 25.4794 50.9442M20.2151 49.5647L22.147 49.5538L22.1544 51.1262H22.1984C22.7263 50.2927 23.969 49.2844 25.901 49.2772C29.0794 49.2626 30.6338 51.8979 30.6521 54.8936C30.6631 57.9511 29.281 60.9286 25.978 60.9468C24.046 60.954 22.9499 60.1933 22.323 59.1668H22.279L22.3047 65.2892L20.2884 65.2965L20.2151 49.5684V49.5647Z" fill="white"/>
<path id="Vector_10" d="M37.1224 59.236C39.4833 59.225 40.5244 57.0338 40.5171 55.0428C40.5061 52.9243 39.234 50.8787 37.0857 50.886C34.9192 50.8969 33.6617 52.9534 33.6727 55.0719C33.6801 57.0629 34.7432 59.2432 37.1261 59.2323M37.0821 49.2298C40.4071 49.2152 42.647 51.6504 42.6654 55.0355C42.6764 58.2241 40.4144 60.8812 37.1334 60.8958C33.8304 60.9103 31.5428 58.275 31.5281 55.0864C31.5135 51.7013 33.7351 49.2444 37.0821 49.2298Z" fill="white"/>
<path id="Vector_11" d="M50.0194 55.2648C49.5904 55.2648 49.1615 55.2284 48.7326 55.2284C47.6365 55.2321 44.9383 55.4177 44.9457 57.3833C44.9493 58.5662 46.0674 59.1959 46.9913 59.1923C48.9856 59.1814 50.034 57.9074 50.023 56.2512V55.2648H50.0194ZM44.0108 50.2454C45.019 49.6302 46.2177 49.1934 47.6108 49.1861C50.7416 49.1716 52.0173 50.7367 52.0283 53.7724L52.0503 58.3842C52.054 59.6473 52.098 60.2406 52.1456 60.5645L50.2577 60.5718L50.2503 59.1304H50.2063C49.7371 59.8147 48.6703 60.8448 46.8226 60.8521C44.4654 60.863 42.8047 59.822 42.7937 57.3942C42.7827 54.6023 45.7778 53.7106 47.8601 53.7033C48.6556 53.7033 49.2128 53.696 50.0083 53.7397C50.001 51.8178 49.3082 50.8387 47.2919 50.8459C46.1554 50.8496 44.9347 51.2973 44.1208 51.9962L44.0035 50.249L44.0108 50.2454Z" fill="white"/>
<path id="Vector_12" d="M60.68 55.09C60.669 52.7714 59.6059 50.7913 57.4613 50.7985C55.4267 50.8095 54.4259 53.0589 54.4332 54.9662C54.4442 57.0592 55.61 58.8901 57.498 58.8828C59.3859 58.8755 60.691 57.1648 60.68 55.0936M62.7183 60.0367C62.733 63.4218 61.0246 65.3728 57.102 65.391C55.9436 65.3946 54.9354 65.249 53.1721 64.6448L53.3774 62.7411C54.9244 63.4546 55.8483 63.7348 57.3293 63.7276C59.4519 63.7166 60.713 62.2497 60.7057 59.8911V58.7991H60.6544C59.8039 59.9602 58.3888 60.5317 56.9921 60.539C53.8613 60.5535 52.3033 57.9619 52.2886 55.0791C52.2776 52.2181 53.854 49.1533 57.1534 49.1387C59.0853 49.1314 60.1631 49.8412 60.768 51.0424H60.812L60.8047 49.3826L62.6706 49.3753L62.7183 60.0367Z" fill="white"/>
<path id="Vector_13" d="M63.7962 49.3718L65.6878 49.3645V51.0899H65.7354C66.2633 49.9287 67.4218 49.0952 68.5802 49.0879C69.1814 49.0879 69.4821 49.1498 69.911 49.2335L69.9183 51.068C69.5517 50.9188 69.1448 50.8751 68.8038 50.8787C67.0002 50.886 65.8271 52.6368 65.8381 55.4359L65.8601 60.5027L63.8438 60.5136L63.7925 49.3718H63.7962Z" fill="white"/>
<path id="Vector_14" d="M74.475 59.0684C76.8358 59.0575 77.877 56.8663 77.8696 54.8753C77.855 52.7568 76.5865 50.7112 74.4383 50.7185C72.2717 50.7294 71.0106 52.7859 71.0216 54.9044C71.0326 56.8954 72.0921 59.0757 74.475 59.0648M74.431 49.0623C77.756 49.0514 79.9959 51.4828 80.0106 54.868C80.0252 58.0566 77.767 60.7137 74.4823 60.7283C71.1792 60.7428 68.8917 58.1075 68.877 54.9189C68.8624 51.5338 71.0803 49.0805 74.4273 49.0623" fill="white"/>
<path id="Vector_15" d="M1.27658 6.7591C0.913646 6.57346 0.635041 6.31139 0.437079 5.97651C0.239117 5.64164 0.140137 5.25217 0.140137 4.81174V2.69694C0.140137 2.25651 0.239117 1.87068 0.437079 1.53216C0.635041 1.19729 0.913646 0.935216 1.27658 0.753219C1.63951 0.571223 2.0611 0.480225 2.54134 0.480225C3.02158 0.480225 3.43218 0.567583 3.79145 0.742299C4.15071 0.917016 4.42932 1.16453 4.63094 1.48484C4.82891 1.80516 4.93156 2.17643 4.93156 2.59866C4.93156 2.65326 4.8949 2.68602 4.82158 2.70058L3.74379 2.7661H3.72544C3.66312 2.7661 3.63379 2.73334 3.63379 2.66418C3.63379 2.34023 3.53483 2.08179 3.3332 1.88524C3.13157 1.68868 2.87128 1.5904 2.54501 1.5904C2.21874 1.5904 1.94746 1.68868 1.74583 1.88524C1.5442 2.08179 1.44522 2.34023 1.44522 2.66418V4.86998C1.44522 5.18665 1.5442 5.44509 1.74583 5.638C1.94379 5.83456 2.21141 5.93284 2.54501 5.93284C2.87861 5.93284 3.13524 5.83456 3.3332 5.638C3.53116 5.44145 3.63379 5.18665 3.63379 4.86998C3.63379 4.80446 3.67047 4.76806 3.74379 4.76806L4.82158 4.81538C4.85091 4.81538 4.87656 4.8263 4.89855 4.8445C4.92055 4.8627 4.93156 4.88454 4.93156 4.91002C4.93156 5.33225 4.83257 5.70352 4.63094 6.02747C4.42932 6.35143 4.15071 6.60258 3.79145 6.7773C3.43218 6.95566 3.01425 7.04301 2.54134 7.04301C2.06843 7.04301 1.63951 6.94838 1.27658 6.76274V6.7591Z" fill="white"/>
<path id="Vector_16" d="M7.0652 6.77002C6.6986 6.57346 6.41631 6.30047 6.21102 5.95104C6.00939 5.6016 5.90674 5.19393 5.90674 4.73894V2.78066C5.90674 2.32931 6.00939 1.92892 6.21102 1.57948C6.41265 1.23005 6.6986 0.960695 7.0652 0.767779C7.43179 0.574863 7.85336 0.480225 8.33361 0.480225C8.81385 0.480225 9.24645 0.574863 9.60938 0.767779C9.97597 0.960695 10.2582 1.23005 10.4635 1.57948C10.6652 1.92892 10.7678 2.32931 10.7678 2.78066V4.73894C10.7678 5.19757 10.6652 5.6016 10.4635 5.95832C10.2619 6.31139 9.97597 6.58438 9.60938 6.7773C9.24278 6.97022 8.81751 7.06485 8.33361 7.06485C7.8497 7.06485 7.43179 6.96658 7.0652 6.77002ZM9.15478 5.63436C9.36374 5.41961 9.47007 5.13569 9.47007 4.78262V2.7661C9.47007 2.41303 9.36741 2.12547 9.16212 1.91072C8.95682 1.69232 8.68188 1.58676 8.33728 1.58676C7.99267 1.58676 7.72873 1.69596 7.51977 1.91072C7.31448 2.12911 7.21182 2.41303 7.21182 2.7661V4.78262C7.21182 5.13569 7.31448 5.41961 7.51977 5.63436C7.72507 5.84912 7.99634 5.95468 8.33728 5.95468C8.67821 5.95468 8.94949 5.84912 9.15845 5.63436H9.15478Z" fill="white"/>
<path id="Vector_17" d="M15.6326 0.585738C15.6546 0.563898 15.6802 0.552979 15.7096 0.552979H16.7874C16.8167 0.552979 16.8424 0.563898 16.8644 0.585738C16.8864 0.607577 16.8974 0.633057 16.8974 0.662176V6.85369C16.8974 6.88281 16.8864 6.91193 16.8644 6.93013C16.8424 6.94833 16.8167 6.96289 16.7874 6.96289H15.7462C15.6839 6.96289 15.6399 6.93741 15.6179 6.89009L13.2277 2.96989C13.2167 2.95169 13.2021 2.94441 13.1911 2.94805C13.1801 2.94805 13.1727 2.96625 13.1727 2.98809L13.1911 6.85369C13.1911 6.88281 13.1801 6.91193 13.1581 6.93013C13.1361 6.95197 13.1104 6.96289 13.0811 6.96289H12.0033C11.974 6.96289 11.9446 6.95197 11.9263 6.93013C11.9043 6.90829 11.8933 6.88281 11.8933 6.85369V0.662176C11.8933 0.633057 11.9043 0.607577 11.9263 0.585738C11.9483 0.563898 11.974 0.552979 12.0033 0.552979H13.0444C13.1068 0.552979 13.1507 0.578458 13.1727 0.625777L15.5519 4.52778C15.5629 4.54598 15.5776 4.55326 15.5886 4.54962C15.5996 4.54962 15.6069 4.53142 15.6069 4.50958L15.5959 0.662176C15.5959 0.633057 15.6069 0.607577 15.6289 0.585738H15.6326Z" fill="white"/>
<path id="Vector_18" d="M19.8777 6.93013C19.8557 6.90829 19.8447 6.88281 19.8447 6.85369V0.662176C19.8447 0.633057 19.8557 0.607577 19.8777 0.585738C19.8997 0.563898 19.9254 0.552979 19.9547 0.552979H21.0325C21.0618 0.552979 21.0875 0.563898 21.1095 0.585738C21.1315 0.607577 21.1425 0.633057 21.1425 0.662176V5.80903C21.1425 5.83815 21.1571 5.85635 21.1901 5.85635H24.2072C24.2365 5.85635 24.2622 5.86727 24.2842 5.88911C24.3062 5.91095 24.3172 5.93643 24.3172 5.96555V6.85369C24.3172 6.88281 24.3062 6.91193 24.2842 6.93013C24.2622 6.95197 24.2365 6.96289 24.2072 6.96289H19.9547C19.9254 6.96289 19.896 6.95197 19.8777 6.93013Z" fill="white"/>
<path id="Vector_19" d="M29.4204 6.87189L29.1454 5.97283C29.1344 5.94735 29.1161 5.93643 29.0978 5.93643H26.8285C26.8102 5.93643 26.7955 5.94735 26.7809 5.97283L26.5133 6.87189C26.4949 6.93377 26.4546 6.96289 26.3923 6.96289H25.2192C25.1825 6.96289 25.1532 6.95197 25.1349 6.93013C25.1165 6.90829 25.1129 6.87553 25.1239 6.83549L27.1145 0.643977C27.1328 0.582098 27.1731 0.552979 27.2355 0.552979H28.6835C28.7458 0.552979 28.7862 0.582098 28.8045 0.643977L30.7951 6.83549C30.7951 6.83549 30.8061 6.86461 30.8061 6.88281C30.8061 6.93741 30.7731 6.96653 30.7035 6.96653H29.5304C29.468 6.96653 29.4277 6.93741 29.4094 6.87553L29.4204 6.87189ZM27.1511 4.93909H28.7752C28.8118 4.93909 28.8228 4.92089 28.8118 4.88449L27.9833 2.16547C27.976 2.13999 27.9687 2.12907 27.954 2.13271C27.943 2.13271 27.932 2.14727 27.9247 2.16547L27.1145 4.88449C27.1072 4.92089 27.1218 4.93909 27.1511 4.93909Z" fill="white"/>
<path id="Vector_20" d="M37.8814 1.63042C37.8594 1.65226 37.8337 1.66318 37.8044 1.66318H34.7873C34.758 1.66318 34.7397 1.67774 34.7397 1.7105V3.13007C34.7397 3.15919 34.7543 3.17739 34.7873 3.17739H36.7706C36.7999 3.17739 36.8256 3.18831 36.8476 3.21015C36.8696 3.23199 36.8806 3.25747 36.8806 3.28659V4.17473C36.8806 4.20385 36.8696 4.23297 36.8476 4.25117C36.8256 4.27301 36.7999 4.28393 36.7706 4.28393H34.7873C34.758 4.28393 34.7397 4.29849 34.7397 4.33124V6.85735C34.7397 6.88647 34.7287 6.91559 34.7067 6.93379C34.6847 6.95563 34.659 6.96655 34.6297 6.96655H33.5519C33.5226 6.96655 33.4932 6.95563 33.4749 6.93379C33.4529 6.91195 33.4419 6.88647 33.4419 6.85735V0.665838C33.4419 0.636719 33.4529 0.61124 33.4749 0.5894C33.4969 0.56756 33.5226 0.556641 33.5519 0.556641H37.8044C37.8337 0.556641 37.8594 0.56756 37.8814 0.5894C37.9034 0.61124 37.9144 0.636719 37.9144 0.665838V1.55398C37.9144 1.5831 37.9034 1.61222 37.8814 1.63042Z" fill="white"/>
<path id="Vector_21" d="M39.9306 6.76269C39.5714 6.5807 39.2928 6.32226 39.0911 5.98739C38.8895 5.65616 38.7905 5.27032 38.7905 4.83717V0.662176C38.7905 0.633057 38.8015 0.607577 38.8235 0.585738C38.8455 0.563898 38.8712 0.552979 38.9005 0.552979H39.9783C40.0076 0.552979 40.0333 0.563898 40.0553 0.585738C40.0773 0.607577 40.0883 0.633057 40.0883 0.662176V4.84809C40.0883 5.17205 40.1873 5.43412 40.3889 5.63068C40.5868 5.83087 40.8508 5.92915 41.1771 5.92915C41.5033 5.92915 41.7673 5.83087 41.9652 5.63068C42.1632 5.43412 42.2659 5.17205 42.2659 4.84809V0.662176C42.2659 0.633057 42.2769 0.607577 42.2989 0.585738C42.3209 0.563898 42.3465 0.552979 42.3759 0.552979H43.4536C43.483 0.552979 43.5086 0.563898 43.5306 0.585738C43.5526 0.607577 43.5636 0.633057 43.5636 0.662176V4.83717C43.5636 5.27032 43.4646 5.65252 43.263 5.98739C43.0614 6.31862 42.7828 6.57706 42.4235 6.76269C42.0642 6.94469 41.6463 7.03569 41.1734 7.03569C40.7005 7.03569 40.2826 6.94469 39.9233 6.76269H39.9306Z" fill="white"/>
<path id="Vector_22" d="M49.2276 1.63044C49.2056 1.65228 49.1799 1.6632 49.1506 1.6632H46.1262C46.0968 1.6632 46.0785 1.67776 46.0785 1.71052V3.13009C46.0785 3.15921 46.0932 3.17741 46.1262 3.17741H48.1094C48.1388 3.17741 48.1644 3.18833 48.1864 3.21017C48.2084 3.23201 48.2194 3.25749 48.2194 3.28661V4.17475C48.2194 4.20387 48.2084 4.23299 48.1864 4.25119C48.1644 4.26939 48.1388 4.28395 48.1094 4.28395H46.1262C46.0968 4.28395 46.0785 4.29851 46.0785 4.33127V5.81636C46.0785 5.84548 46.0932 5.86368 46.1262 5.86368H49.1506C49.1799 5.86368 49.2056 5.8746 49.2276 5.89644C49.2496 5.91828 49.2606 5.94376 49.2606 5.97288V6.86102C49.2606 6.89014 49.2496 6.91926 49.2276 6.93746C49.2056 6.95566 49.1799 6.97021 49.1506 6.97021H44.8907C44.8614 6.97021 44.8321 6.95929 44.8137 6.93746C44.7917 6.91562 44.7808 6.89014 44.7808 6.86102V0.669501C44.7808 0.640382 44.7917 0.614902 44.8137 0.593062C44.8357 0.571223 44.8614 0.560303 44.8907 0.560303H49.1506C49.1799 0.560303 49.2056 0.571223 49.2276 0.593062C49.2496 0.614902 49.2606 0.640382 49.2606 0.669501V1.55764C49.2606 1.58676 49.2496 1.61588 49.2276 1.63408V1.63044Z" fill="white"/>
<path id="Vector_23" d="M53.6962 6.88283L52.5415 4.3458C52.5305 4.32033 52.5121 4.30941 52.4865 4.30941H51.6286C51.5993 4.30941 51.581 4.32396 51.581 4.35672V6.85735C51.581 6.88647 51.57 6.91559 51.548 6.93379C51.526 6.95199 51.5003 6.96655 51.471 6.96655H50.3932C50.3639 6.96655 50.3345 6.95563 50.3162 6.93379C50.2942 6.91195 50.2832 6.88647 50.2832 6.85735V0.665838C50.2832 0.636719 50.2942 0.61124 50.3162 0.5894C50.3382 0.56756 50.3639 0.556641 50.3932 0.556641H53.0327C53.4249 0.556641 53.7732 0.636719 54.0702 0.793236C54.3671 0.953393 54.5981 1.17907 54.763 1.47026C54.9243 1.7651 55.0086 2.10361 55.0086 2.4858C55.0086 2.90075 54.9023 3.25747 54.6934 3.5523C54.4844 3.84713 54.1911 4.05825 53.8172 4.17837C53.7879 4.18929 53.7769 4.21113 53.7879 4.24389L55.0416 6.83552C55.0526 6.86099 55.06 6.87919 55.06 6.89011C55.06 6.93743 55.027 6.96291 54.9573 6.96291H53.8245C53.7622 6.96291 53.7182 6.93379 53.6962 6.87919V6.88283ZM51.5846 1.70686V3.27203C51.5846 3.30115 51.5993 3.31935 51.6323 3.31935H52.8421C53.0987 3.31935 53.3113 3.24291 53.4726 3.09003C53.6339 2.93715 53.7182 2.7406 53.7182 2.49308C53.7182 2.24557 53.6376 2.04901 53.4726 1.89249C53.3113 1.73598 53.0987 1.65954 52.8421 1.65954H51.6323C51.603 1.65954 51.5846 1.6741 51.5846 1.70686Z" fill="white"/>
<path id="Vector_24" d="M55.962 6.93013C55.94 6.90829 55.929 6.88281 55.929 6.85369V5.86363C55.929 5.81631 55.9436 5.76899 55.9766 5.72532L58.957 1.71411C58.957 1.71411 58.9717 1.68864 58.9607 1.67772C58.9497 1.6668 58.9387 1.65952 58.9204 1.65952H56.0426C56.0133 1.65952 55.9839 1.6486 55.9656 1.62676C55.9436 1.60492 55.9326 1.57944 55.9326 1.55032V0.662176C55.9326 0.633057 55.9436 0.607577 55.9656 0.585738C55.9876 0.563898 56.0133 0.552979 56.0426 0.552979H60.3135C60.3428 0.552979 60.3684 0.563898 60.3904 0.585738C60.4124 0.607577 60.4234 0.633057 60.4234 0.662176V1.65224C60.4234 1.69956 60.4088 1.74687 60.3758 1.79055L57.3953 5.80175C57.3953 5.80175 57.388 5.82723 57.3953 5.83815C57.4027 5.84907 57.4137 5.85635 57.432 5.85635H60.3098C60.3391 5.85635 60.3648 5.86727 60.3868 5.88911C60.4088 5.91095 60.4198 5.93643 60.4198 5.96555V6.85369C60.4198 6.88281 60.4088 6.91193 60.3868 6.93013C60.3648 6.95197 60.3391 6.96289 60.3098 6.96289H56.0389C56.0096 6.96289 55.9803 6.95197 55.962 6.93013Z" fill="white"/>
<path id="Vector_25" d="M65.5776 6.87189L65.299 5.97283C65.288 5.94735 65.2697 5.93643 65.2513 5.93643H62.9821C62.9638 5.93643 62.9491 5.94735 62.9344 5.97283L62.6668 6.87189C62.6485 6.93377 62.6082 6.96289 62.5458 6.96289H61.3727C61.3361 6.96289 61.3067 6.95197 61.2884 6.93013C61.2701 6.90829 61.2664 6.87553 61.2774 6.83549L63.268 0.643977C63.2864 0.582098 63.3267 0.552979 63.389 0.552979H64.8371C64.8994 0.552979 64.9397 0.582098 64.9581 0.643977L66.9487 6.83549C66.9487 6.83549 66.9597 6.86461 66.9597 6.88281C66.9597 6.93741 66.9267 6.96653 66.857 6.96653H65.6839C65.6216 6.96653 65.5813 6.93741 65.5629 6.87553L65.5776 6.87189ZM63.3084 4.93909H64.9324C64.969 4.93909 64.98 4.92089 64.969 4.88449L64.1405 2.16547C64.1332 2.13999 64.1259 2.12907 64.1112 2.13271C64.1002 2.13271 64.0892 2.14727 64.0819 2.16547L63.2717 4.88449C63.2644 4.92089 63.279 4.93909 63.3084 4.93909Z" fill="white"/>
<path id="Vector_26" d="M69.6321 6.93013C69.6101 6.90829 69.5991 6.88281 69.5991 6.85369V0.662176C69.5991 0.633057 69.6101 0.607577 69.6321 0.585738C69.6541 0.563898 69.6798 0.552979 69.7091 0.552979H72.015C72.4769 0.552979 72.8802 0.633057 73.2284 0.796854C73.5767 0.957011 73.8443 1.18633 74.035 1.47752C74.2256 1.77235 74.3209 2.11087 74.3209 2.49306V5.01917C74.3209 5.405 74.2256 5.74352 74.035 6.03471C73.8443 6.32954 73.5767 6.55522 73.2284 6.71538C72.8802 6.87553 72.4769 6.95925 72.015 6.95925H69.7091C69.6798 6.95925 69.6505 6.94833 69.6321 6.92649V6.93013ZM70.9445 5.85635H72.059C72.3413 5.85635 72.5722 5.76171 72.7445 5.57244C72.9205 5.38316 73.0121 5.12837 73.0158 4.81169V2.70418C73.0158 2.3875 72.9278 2.13271 72.7519 1.94343C72.5759 1.75415 72.3413 1.65952 72.048 1.65952H70.9409C70.9115 1.65952 70.8932 1.67408 70.8932 1.70684V5.80903C70.8932 5.83815 70.9079 5.85635 70.9409 5.85635H70.9445Z" fill="white"/>
<path id="Vector_27" d="M79.908 1.63044C79.886 1.65228 79.8603 1.6632 79.831 1.6632H76.8066C76.7773 1.6632 76.7589 1.67776 76.7589 1.71052V3.13009C76.7589 3.15921 76.7736 3.17741 76.8066 3.17741H78.7899C78.8192 3.17741 78.8449 3.18833 78.8669 3.21017C78.8889 3.23201 78.8998 3.25749 78.8998 3.28661V4.17475C78.8998 4.20387 78.8889 4.23299 78.8669 4.25119C78.8449 4.26939 78.8192 4.28395 78.7899 4.28395H76.8066C76.7773 4.28395 76.7589 4.29851 76.7589 4.33127V5.81636C76.7589 5.84548 76.7736 5.86368 76.8066 5.86368H79.831C79.8603 5.86368 79.886 5.8746 79.908 5.89644C79.93 5.91828 79.941 5.94376 79.941 5.97288V6.86102C79.941 6.89014 79.93 6.91926 79.908 6.93746C79.886 6.95566 79.8603 6.97021 79.831 6.97021H75.5712C75.5418 6.97021 75.5125 6.95929 75.4942 6.93746C75.4722 6.91562 75.4612 6.89014 75.4612 6.86102V0.669501C75.4612 0.640382 75.4722 0.614902 75.4942 0.593062C75.5162 0.571223 75.5418 0.560303 75.5712 0.560303H79.831C79.8603 0.560303 79.886 0.571223 79.908 0.593062C79.93 0.614902 79.941 0.640382 79.941 0.669501V1.55764C79.941 1.58676 79.93 1.61588 79.908 1.63408V1.63044Z" fill="white"/>
</g>
</svg>
