<svg width="242" height="79" viewBox="0 0 242 79" fill="none" xmlns="http://www.w3.org/2000/svg">
<g id="Group">
<path id="Vector" d="M96.5725 23.9437V23.8782C96.5725 17.1989 101.602 11.6626 108.469 11.6626C112.409 11.6626 114.891 13.013 117.201 14.9713C117.37 15.1387 117.542 15.3753 117.542 15.6774C117.542 16.1506 117.098 16.5547 116.625 16.5547C116.387 16.5547 116.149 16.4527 116.013 16.3181C114.041 14.5309 111.764 13.246 108.436 13.246C102.728 13.246 98.4092 17.8687 98.4092 23.809V23.8782C98.4092 29.8513 102.794 34.5068 108.469 34.5068C111.698 34.5068 113.975 33.3602 116.218 31.2345C116.354 31.0998 116.559 30.9651 116.831 30.9651C117.274 30.9651 117.681 31.3692 117.681 31.8096C117.681 32.079 117.545 32.2828 117.41 32.4175C114.998 34.6451 112.38 36.0938 108.403 36.0938C101.606 36.0938 96.5762 30.7285 96.5762 23.9437" fill="white"/>
<path id="Vector_2" d="M135.113 27.1503V27.0847C135.113 22.9352 131.986 19.6265 127.975 19.6265C123.965 19.6265 120.907 22.968 120.907 27.0156V27.0847C120.907 31.2343 124.034 34.543 128.045 34.543C132.056 34.543 135.113 31.2015 135.113 27.1539M119.107 27.1503V27.0847C119.107 22.2582 122.88 18.0759 128.045 18.0759C133.21 18.0759 136.917 22.1927 136.917 27.0192V27.0884C136.917 31.9149 133.144 36.0972 127.979 36.0972C122.814 36.0972 119.107 31.9805 119.107 27.1539" fill="white"/>
<path id="Vector_3" d="M140.352 19.1863C140.352 18.7131 140.692 18.3419 141.169 18.3419C141.646 18.3419 142.02 18.6804 142.02 19.1863V21.6833C143.174 19.6595 145.114 18.0725 148.274 18.0725C152.658 18.0725 155.206 21.0427 155.206 25.1594V34.98C155.206 35.4859 154.865 35.8244 154.389 35.8244C153.912 35.8244 153.538 35.4859 153.538 34.98V25.4652C153.538 21.9199 151.533 19.594 148.032 19.594C144.531 19.594 142.016 22.1601 142.016 25.7346V34.98C142.016 35.4859 141.675 35.8244 141.202 35.8244C140.729 35.8244 140.352 35.4859 140.352 34.98V19.1863Z" fill="white"/>
<path id="Vector_4" d="M174.031 26.2732V26.2041C174.031 22.222 170.464 19.6595 166.86 19.6595C163.257 19.6595 160.166 22.1565 160.166 26.1713V26.2405C160.166 30.1206 163.293 32.8215 166.86 32.8215C170.427 32.8215 174.031 30.1898 174.031 26.2769M159.521 38.791C159.283 38.6235 159.147 38.3505 159.147 38.0484C159.147 37.6771 159.558 37.2731 159.998 37.2731C160.203 37.2731 160.339 37.3423 160.474 37.4078C162.446 38.8601 164.723 39.599 167.135 39.599C171.109 39.599 173.932 37.3386 173.932 32.9198V30.4228C172.436 32.5485 170.127 34.4048 166.695 34.4048C162.516 34.4048 158.366 31.2345 158.366 26.306V26.2368C158.366 21.2756 162.512 18.0688 166.695 18.0688C170.163 18.0688 172.506 19.8925 173.932 21.9163V19.1827C173.932 18.7131 174.273 18.3382 174.749 18.3382C175.226 18.3382 175.6 18.7095 175.6 19.1827V33.018C175.6 35.515 174.782 37.4697 173.389 38.8565C171.894 40.3416 169.65 41.1533 167.102 41.1533C164.349 41.1533 161.765 40.3416 159.525 38.791" fill="white"/>
<path id="Vector_5" d="M180.219 19.1862C180.219 18.713 180.56 18.3417 181.036 18.3417C181.513 18.3417 181.887 18.6802 181.887 19.1862V23.3684C183.383 20.027 186.407 18.207 188.852 18.207C189.362 18.207 189.736 18.6111 189.736 19.117C189.736 19.5902 189.395 19.9942 188.852 20.027C185.183 20.3655 181.887 23.0991 181.887 28.6318V34.9762C181.887 35.4494 181.546 35.8206 181.073 35.8206C180.6 35.8206 180.223 35.4821 180.223 34.9762V19.1825L180.219 19.1862Z" fill="white"/>
<path id="Vector_6" d="M204.451 26.273C204.213 22.7969 202.207 19.5901 198.233 19.5901C194.802 19.5901 192.152 22.4584 191.844 26.273H204.451ZM198.574 36.0936C194.021 36.0936 190.077 32.4828 190.077 27.1175V27.052C190.077 22.058 193.611 18.0759 198.299 18.0759C202.988 18.0759 206.251 22.058 206.251 26.9865C206.251 27.3905 205.844 27.7618 205.433 27.7618H191.84C192.144 32.046 195.238 34.5466 198.637 34.5466C201.119 34.5466 202.849 33.5347 204.246 32.1843C204.381 32.0496 204.554 31.9477 204.788 31.9477C205.232 31.9477 205.606 32.2862 205.606 32.723C205.606 32.8904 205.536 33.0943 205.334 33.2981C203.633 34.9834 201.698 36.0972 198.571 36.0972" fill="white"/>
<path id="Vector_7" d="M208.293 33.7969C208.157 33.695 207.985 33.4257 207.985 33.1563C207.985 32.7159 208.359 32.3482 208.803 32.3482C209.008 32.3482 209.21 32.4138 209.345 32.5157C211.149 33.7969 213.048 34.474 215.123 34.474C217.469 34.474 219.302 33.1891 219.302 31.2017V31.1325C219.302 29.1087 217.128 28.3625 214.716 27.6891C211.893 26.8774 208.77 26.0366 208.77 22.9645V22.899C208.77 20.1326 211.116 18.1416 214.478 18.1416C216.347 18.1416 218.422 18.7495 220.086 19.6922C220.292 19.8269 220.53 20.0635 220.53 20.4348C220.53 20.8752 220.156 21.2465 219.713 21.2465C219.511 21.2465 219.339 21.1773 219.236 21.1118C217.74 20.2346 216.076 19.6922 214.408 19.6922C212.029 19.6922 210.467 20.9771 210.467 22.6952V22.7607C210.467 24.6862 212.813 25.3923 215.291 26.1021C218.078 26.8774 220.999 27.893 220.999 30.9287V30.9978C220.999 34.0663 218.349 36.0246 215.016 36.0246C212.67 36.0246 210.056 35.1146 208.289 33.7969" fill="white"/>
<path id="Vector_8" d="M239.428 27.1503V27.0847C239.428 22.9352 236.301 19.6265 232.29 19.6265C228.28 19.6265 225.222 22.968 225.222 27.0156V27.0847C225.222 31.2343 228.349 34.543 232.36 34.543C236.371 34.543 239.428 31.2015 239.428 27.1539M223.419 27.1503V27.0847C223.419 22.2582 227.191 18.0759 232.356 18.0759C237.522 18.0759 241.228 22.1927 241.228 27.0192V27.0884C241.228 31.9149 237.456 36.0972 232.29 36.0972C227.125 36.0972 223.419 31.9805 223.419 27.1539" fill="white"/>
<path id="Vector_9" d="M110.335 57.9404L107.039 50.1437L103.743 57.9404H110.335ZM95.6195 64.4887L103.912 45.8959C104.491 44.6147 105.543 43.8394 106.969 43.8394H107.277C108.703 43.8394 109.726 44.6147 110.302 45.8959L118.594 64.4887C118.763 64.8599 118.865 65.1948 118.865 65.5333C118.865 66.9165 117.78 68.0303 116.383 68.0303C115.163 68.0303 114.345 67.3242 113.869 66.2431L112.27 62.5304H101.804L100.14 66.4105C99.696 67.4224 98.8125 68.0303 97.7274 68.0303C96.3673 68.0303 95.3152 66.9529 95.3152 65.6025C95.3152 65.2312 95.4508 64.8599 95.6231 64.4887" fill="white"/>
<path id="Vector_10" d="M131.509 61.4494V60.5394C130.626 60.1354 129.471 59.8624 128.214 59.8624C126.007 59.8624 124.647 60.7396 124.647 62.3594V62.4249C124.647 63.808 125.801 64.6161 127.469 64.6161C129.882 64.6161 131.513 63.3021 131.513 61.4457M119.65 62.6287V62.5632C119.65 58.6139 122.674 56.7939 126.989 56.7939C128.826 56.7939 130.149 57.096 131.443 57.5364V57.2307C131.443 55.105 130.116 53.922 127.535 53.922C126.109 53.922 124.955 54.1258 123.968 54.428C123.66 54.5299 123.459 54.5626 123.221 54.5626C122.033 54.5626 121.08 53.6526 121.08 52.4733C121.08 51.5633 121.659 50.7844 122.473 50.4823C124.104 49.8744 125.871 49.5359 128.283 49.5359C131.106 49.5359 133.144 50.2784 134.435 51.5597C135.795 52.9101 136.407 54.9011 136.407 57.329V65.5625C136.407 66.9457 135.285 68.0267 133.892 68.0267C132.396 68.0267 131.41 66.9821 131.41 65.901V65.8682C130.153 67.2514 128.419 68.165 125.904 68.165C122.473 68.165 119.654 66.2068 119.654 62.6287" fill="white"/>
<path id="Vector_11" d="M153.127 58.8176V58.7485C153.127 55.7455 151.089 53.7545 148.677 53.7545C146.265 53.7545 144.26 55.7455 144.26 58.7485V58.8176C144.26 61.8206 146.265 63.8116 148.677 63.8116C151.089 63.8116 153.127 61.8533 153.127 58.8176ZM139.16 52.102C139.16 50.6824 140.315 49.5358 141.745 49.5358C143.174 49.5358 144.329 50.6824 144.329 52.102V52.3386C145.587 50.6533 147.321 49.4048 150.004 49.4048C154.253 49.4048 158.296 52.7098 158.296 58.7521V58.8213C158.296 64.8636 154.319 68.1686 150.004 68.1686C147.251 68.1686 145.554 66.9201 144.329 65.4714V70.8694C144.329 72.2854 143.174 73.4319 141.745 73.4319C140.315 73.4319 139.16 72.2854 139.16 70.8694V52.1056V52.102Z" fill="white"/>
<path id="Vector_12" d="M160.404 52.102C160.404 50.6825 161.559 49.5359 162.985 49.5359C164.411 49.5359 165.57 50.6825 165.57 52.102V52.9101C166.318 51.1557 167.542 49.5359 169.071 49.5359C170.599 49.5359 171.585 50.5805 171.585 52.0329C171.585 53.3833 170.702 54.1914 169.646 54.428C167.029 55.0358 165.57 57.0269 165.57 60.6704V65.4642C165.57 66.8801 164.415 68.0267 162.985 68.0267C161.555 68.0267 160.404 66.8801 160.404 65.4642V52.102Z" fill="white"/>
<path id="Vector_13" d="M184.365 57.369C184.057 55.0722 182.701 53.5216 180.523 53.5216C178.346 53.5216 176.989 55.0394 176.582 57.369H184.365ZM181.033 68.2342C175.559 68.2342 171.516 64.4195 171.516 58.8868V58.8213C171.516 53.6599 175.218 49.4084 180.523 49.4084C186.605 49.4084 189.292 54.3697 189.292 58.1152C189.292 59.6002 188.24 60.5794 186.88 60.5794H176.648C177.158 62.9089 178.789 64.121 181.099 64.121C182.528 64.121 183.716 63.6806 184.768 62.9053C185.142 62.6359 185.483 62.5013 186.026 62.5013C187.181 62.5013 188.031 63.3785 188.031 64.5251C188.031 65.1985 187.727 65.7044 187.353 66.0429C185.754 67.3933 183.683 68.2342 181.029 68.2342" fill="white"/>
<path id="Vector_14" d="M191.063 66.1049C190.52 65.7664 190.077 65.1585 190.077 64.3505C190.077 63.2002 190.96 62.3267 192.115 62.3267C192.489 62.3267 192.863 62.4286 193.134 62.596C194.868 63.6771 196.602 64.2158 198.061 64.2158C199.52 64.2158 200.235 63.6771 200.235 62.8654V62.7962C200.235 61.6824 198.468 61.3111 196.463 60.7033C193.915 59.9607 191.026 58.7777 191.026 55.2688V55.2033C191.026 51.527 194.018 49.4668 197.687 49.4668C199.59 49.4668 201.562 49.9727 203.329 50.85C204.077 51.2212 204.55 51.8946 204.55 52.7719C204.55 53.9184 203.633 54.7957 202.479 54.7957C202.105 54.7957 201.866 54.7265 201.525 54.5591C200.063 53.8529 198.67 53.4125 197.585 53.4125C196.327 53.4125 195.682 53.9512 195.682 54.661V54.7265C195.682 55.7384 197.416 56.2116 199.385 56.885C201.932 57.7294 204.891 58.9452 204.891 62.2502V62.3194C204.891 66.3342 201.866 68.1578 197.922 68.1578C195.678 68.1578 193.266 67.5172 191.055 66.0976" fill="white"/>
<path id="Vector_15" d="M207.138 52.1022C207.138 50.6826 208.293 49.536 209.719 49.536C211.145 49.536 212.304 50.6826 212.304 52.1022V65.4643C212.304 66.8803 211.149 68.0269 209.719 68.0269C208.289 68.0269 207.138 66.8803 207.138 65.4643V52.1022ZM206.834 45.4229C206.834 43.9378 208.091 43.0278 209.723 43.0278C211.354 43.0278 212.612 43.9378 212.612 45.4229V45.4884C212.612 46.9735 211.354 47.9163 209.723 47.9163C208.091 47.9163 206.834 46.9699 206.834 45.4884V45.4229Z" fill="white"/>
<path id="Vector_16" d="M219.819 58.7487V58.8178C219.819 61.8208 221.857 63.8118 224.269 63.8118C226.681 63.8118 228.687 61.8208 228.687 58.8178V58.7487C228.687 55.7457 226.681 53.7547 224.269 53.7547C221.857 53.7547 219.819 55.713 219.819 58.7487ZM233.786 65.4643C233.786 66.8803 232.631 68.0269 231.201 68.0269C229.772 68.0269 228.621 66.8803 228.621 65.4643V65.2277C227.363 66.913 225.629 68.1652 222.946 68.1652C218.697 68.1652 214.653 64.8601 214.653 58.8178V58.7487C214.653 52.71 218.631 49.4013 222.946 49.4013C225.699 49.4013 227.396 50.6498 228.621 52.0985V45.5539C228.621 44.1344 229.775 42.9878 231.201 42.9878C232.628 42.9878 233.786 44.1344 233.786 45.5539V65.4643Z" fill="white"/>
<path id="Vector_17" d="M45.3187 51.9599C45.3187 47.7085 48.937 44.1159 53.2262 44.1159C57.5153 44.1159 61.1263 47.7085 61.1263 51.9599C61.1263 56.2114 57.5813 59.8076 53.2262 59.8076C48.871 59.8076 45.3187 56.2878 45.3187 51.9599ZM20.6577 53.6634C20.6577 51.7998 21.5962 49.8925 23.0223 47.1953L37.0189 20.6966C38.3643 18.1523 40.201 14.6652 44.0649 14.6652C47.7089 14.6652 50.352 17.2496 50.352 20.8094C50.352 22.6694 49.4172 24.5804 47.9875 27.2776L33.9945 53.7763C32.6491 56.3242 30.8088 59.8076 26.9448 59.8076C23.3009 59.8076 20.654 57.2269 20.654 53.6671M32.9204 4.42977C32.4658 4.95028 31.9709 5.43803 31.4503 5.9003C28.6349 8.16797 25.0715 9.55842 21.2003 9.67126L20.764 9.66034C15.3604 9.66034 10.9686 13.8936 10.525 19.2479C10.2207 24.0745 7.88915 28.3222 4.42115 31.2051C1.734 33.0432 0.00366211 36.1699 0.00366211 39.6788C0.00366211 43.1877 1.67168 46.1797 4.21219 48.1344C7.81583 50.9408 10.2207 55.2541 10.6313 60.1097C10.8733 62.8906 12.226 65.3512 14.2423 67.0438C16.0863 68.7837 18.5938 69.8429 21.3909 69.8429C25.5005 69.9303 29.2617 71.5245 32.1872 74.0907C32.5611 74.4401 32.9167 74.8005 33.2576 75.1754C35.1126 77.3666 37.8584 78.7534 40.9378 78.7534C44.0172 78.7534 46.9207 77.2829 48.8637 75.0735C49.3219 74.5493 49.8168 74.0616 50.3374 73.5993C53.1565 71.3353 56.7198 69.9448 60.5947 69.832L61.0273 69.8429C66.431 69.8429 70.8265 65.6097 71.2627 60.2553C71.5706 55.4324 73.8949 51.181 77.3702 48.2945C80.05 46.4491 81.7877 43.3333 81.7877 39.8208C81.7877 36.3083 80.116 33.3199 77.5755 31.3652C73.9755 28.5588 71.567 24.2492 71.1601 19.3935C70.9181 16.6126 69.5617 14.1484 67.5527 12.4631C65.7051 10.7232 63.2049 9.66762 60.4004 9.66762C56.2909 9.58026 52.537 7.98234 49.6042 5.41255C49.2266 5.06675 48.871 4.70276 48.5301 4.33149C46.6824 2.14025 43.9293 0.75708 40.8535 0.75708C37.7778 0.75708 34.8707 2.23125 32.924 4.43705" fill="white"/>
</g>
</svg>
