<svg width="71" height="52" viewBox="0 0 71 52" fill="none" xmlns="http://www.w3.org/2000/svg">
<path d="M1.09568 5.60286C0.776689 5.43799 0.529569 5.21074 0.354346 4.91665C0.179123 4.62256 0.09375 4.28391 0.09375 3.89624V2.03367C0.09375 1.65046 0.179123 1.30735 0.354346 1.01326C0.529569 0.719167 0.772196 0.487459 1.09568 0.327046C1.41468 0.166633 1.78758 0.0864258 2.20542 0.0864258C2.62326 0.0864258 2.99167 0.162177 3.30168 0.318134C3.62068 0.469636 3.86331 0.687976 4.04302 0.9687C4.22274 1.24942 4.30809 1.5747 4.30809 1.949C4.30809 1.99802 4.27665 2.02475 4.20926 2.03812L3.25677 2.09605H3.23878C3.18486 2.09605 3.15791 2.06931 3.15791 2.00693C3.15791 1.72621 3.07256 1.4945 2.89284 1.32072C2.71313 1.14694 2.484 1.06227 2.19645 1.06227C1.9089 1.06227 1.67078 1.14694 1.49556 1.32072C1.32034 1.4945 1.23047 1.72175 1.23047 2.00693V3.94526C1.23047 4.22152 1.31584 4.44878 1.49556 4.62256C1.67527 4.79634 1.90441 4.881 2.19645 4.881C2.48849 4.881 2.71313 4.79634 2.89284 4.62256C3.06807 4.44878 3.15791 4.22598 3.15791 3.94526C3.15791 3.88733 3.18937 3.85614 3.25677 3.85614L4.20926 3.89624C4.23622 3.89624 4.25867 3.90515 4.28113 3.91852C4.3036 3.93634 4.30809 3.95417 4.30809 3.97645C4.30809 4.34629 4.22274 4.67157 4.04302 4.96121C3.86331 5.24193 3.62068 5.46473 3.30168 5.62068C2.98269 5.77664 2.61876 5.85239 2.20542 5.85239C1.79207 5.85239 1.41019 5.77219 1.09568 5.60732V5.60286Z" fill="#2D3D34"/>
<path d="M6.18637 5.61617C5.86288 5.44239 5.61578 5.20622 5.43607 4.89431C5.26084 4.58685 5.1665 4.23037 5.1665 3.82934V2.10935C5.1665 1.71278 5.25635 1.36076 5.43607 1.05776C5.61578 0.750297 5.86738 0.514133 6.18637 0.344808C6.50986 0.175483 6.8783 0.0908203 7.30063 0.0908203C7.72296 0.0908203 8.10486 0.175483 8.42385 0.344808C8.74734 0.514133 8.99444 0.750297 9.17416 1.05776C9.35388 1.36521 9.44372 1.71278 9.44372 2.10935V3.82934C9.44372 4.23037 9.35388 4.58685 9.17416 4.89876C8.99894 5.21068 8.74734 5.4513 8.42385 5.62062C8.10037 5.78995 7.72746 5.87461 7.30063 5.87461C6.8738 5.87461 6.50986 5.78995 6.18637 5.61617ZM8.02398 4.61804C8.2037 4.43089 8.30254 4.18136 8.30254 3.86944V2.10044C8.30254 1.78853 8.21269 1.539 8.02848 1.34739C7.84876 1.16024 7.60615 1.06221 7.30063 1.06221C6.99511 1.06221 6.76147 1.15579 6.58175 1.34739C6.40203 1.539 6.30769 1.78853 6.30769 2.10044V3.86944C6.30769 4.18136 6.39754 4.43089 6.58175 4.61804C6.76147 4.80519 7.0041 4.90322 7.30063 4.90322C7.59716 4.90322 7.83977 4.80964 8.02398 4.61804Z" fill="#2D3D34"/>
<path d="M13.7254 0.175417C13.7254 0.175417 13.7659 0.148682 13.7973 0.148682H14.7453C14.7768 0.148682 14.7947 0.157593 14.8172 0.175417C14.8397 0.197697 14.8442 0.21552 14.8442 0.246712V5.6874C14.8442 5.71413 14.8352 5.73641 14.8172 5.75869C14.7947 5.78097 14.7768 5.78543 14.7453 5.78543H13.8288C13.7748 5.78543 13.7389 5.76315 13.7164 5.71859L11.6138 2.27416C11.6138 2.27416 11.5913 2.25188 11.5823 2.25633C11.5688 2.25633 11.5643 2.27416 11.5643 2.29198L11.5823 5.6874C11.5823 5.71413 11.5733 5.73641 11.5509 5.75869C11.5329 5.78097 11.5104 5.78543 11.479 5.78543H10.531C10.504 5.78543 10.4815 5.77652 10.4591 5.75869C10.4411 5.73641 10.4321 5.71859 10.4321 5.6874V0.246712C10.4321 0.21552 10.4411 0.197697 10.4591 0.175417C10.4815 0.153137 10.4995 0.148682 10.531 0.148682H11.4475C11.5014 0.148682 11.5374 0.170961 11.5599 0.21552L13.6536 3.64658C13.6536 3.64658 13.676 3.66886 13.685 3.66886C13.6985 3.66886 13.703 3.65104 13.703 3.63321L13.694 0.251168C13.694 0.219976 13.703 0.202153 13.7209 0.179873" fill="#2D3D34"/>
<path d="M17.4591 5.7543C17.4591 5.7543 17.4321 5.71419 17.4321 5.683V0.242317C17.4321 0.215582 17.4411 0.193302 17.4591 0.171022C17.4815 0.148743 17.4995 0.144287 17.531 0.144287H18.479C18.5104 0.144287 18.5284 0.153199 18.5509 0.171022C18.5733 0.193302 18.5778 0.211126 18.5778 0.242317V4.76508C18.5778 4.79182 18.5913 4.80518 18.6183 4.80518H21.2691C21.296 4.80518 21.3185 4.8141 21.341 4.83192C21.3634 4.8542 21.3679 4.87202 21.3679 4.90321V5.683C21.3679 5.71419 21.3589 5.73202 21.341 5.7543C21.323 5.77658 21.3005 5.78103 21.2691 5.78103H17.531C17.504 5.78103 17.4815 5.77212 17.4591 5.7543Z" fill="#2D3D34"/>
<path d="M25.8516 5.70083L25.609 4.91213C25.609 4.91213 25.582 4.88093 25.5685 4.88093H23.5737C23.5737 4.88093 23.5468 4.8943 23.5333 4.91213L23.2996 5.70083C23.2817 5.7543 23.2502 5.78103 23.1918 5.78103H22.1629C22.1315 5.78103 22.1045 5.77212 22.091 5.7543C22.0731 5.73202 22.0686 5.70974 22.0821 5.66518L23.8343 0.224494C23.8523 0.171023 23.8837 0.144287 23.9421 0.144287H25.2136C25.2675 0.144287 25.3035 0.171023 25.3214 0.224494L27.0737 5.66518C27.0737 5.66518 27.0826 5.69191 27.0826 5.70528C27.0826 5.7543 27.0512 5.77658 26.9928 5.77658H25.9639C25.91 5.77658 25.8741 5.74984 25.8561 5.69637L25.8516 5.70083ZM23.8568 4.00312H25.2855C25.3169 4.00312 25.3259 3.98529 25.3169 3.9541L24.5846 1.56573C24.5846 1.56573 24.5711 1.53454 24.5621 1.53899C24.5487 1.53899 24.5397 1.55236 24.5352 1.56573L23.8208 3.9541C23.8208 3.98529 23.8253 4.00312 23.8523 4.00312" fill="#2D3D34"/>
<path d="M33.301 1.09328C33.301 1.09328 33.2606 1.12001 33.2291 1.12001H30.5783C30.5514 1.12001 30.5379 1.13338 30.5379 1.16012V2.40777C30.5379 2.43451 30.5514 2.44788 30.5783 2.44788H32.3216C32.353 2.44788 32.371 2.45679 32.3934 2.47461C32.4114 2.49689 32.4204 2.51472 32.4204 2.54591V3.3257C32.4204 3.35243 32.4114 3.37471 32.3934 3.39699C32.371 3.41481 32.353 3.42372 32.3216 3.42372H30.5783C30.5514 3.42372 30.5379 3.43709 30.5379 3.46383V5.68734C30.5379 5.71407 30.5289 5.73635 30.5064 5.75863C30.4885 5.77645 30.466 5.78536 30.4345 5.78536H29.4866C29.4596 5.78536 29.4371 5.77645 29.4147 5.75863C29.3967 5.73635 29.3877 5.71853 29.3877 5.68734V0.24665C29.3877 0.219915 29.3967 0.197635 29.4147 0.179811C29.4371 0.157532 29.4551 0.153076 29.4866 0.153076H33.2246C33.2516 0.153076 33.2741 0.161988 33.2965 0.179811C33.319 0.202091 33.328 0.219915 33.328 0.24665V1.02644C33.328 1.05763 33.319 1.07545 33.2965 1.09773H33.301V1.09328Z" fill="#2D3D34"/>
<path d="M35.1026 5.60719C34.7836 5.44678 34.541 5.21952 34.3613 4.92543C34.1815 4.6358 34.0962 4.29715 34.0962 3.91839V0.246712C34.0962 0.219976 34.1052 0.197697 34.1231 0.175417C34.1411 0.153137 34.1636 0.148682 34.1905 0.148682H35.143C35.17 0.148682 35.1925 0.157593 35.2149 0.175417C35.2374 0.193241 35.2419 0.21552 35.2419 0.246712V3.92285C35.2419 4.20803 35.3272 4.43528 35.5069 4.61352C35.6867 4.7873 35.9158 4.87642 36.2034 4.87642C36.4909 4.87642 36.72 4.79176 36.8953 4.61352C37.075 4.43528 37.1603 4.20803 37.1603 3.92285V0.246712C37.1603 0.219976 37.1693 0.197697 37.1873 0.175417C37.2097 0.153137 37.2277 0.148682 37.2592 0.148682H38.2072C38.2341 0.148682 38.2566 0.157593 38.2791 0.175417C38.3015 0.193241 38.306 0.21552 38.306 0.246712V3.91839C38.306 4.3016 38.2207 4.6358 38.0409 4.92543C37.8612 5.21507 37.6186 5.44678 37.3041 5.60719C36.9851 5.7676 36.6212 5.84781 36.2034 5.84781C35.7855 5.84781 35.4171 5.7676 35.1026 5.60719Z" fill="#2D3D34"/>
<path d="M43.2796 1.09328C43.2796 1.09328 43.2392 1.12001 43.2077 1.12001H40.5479C40.5165 1.12001 40.5075 1.13338 40.5075 1.16012V2.40777C40.5075 2.43451 40.521 2.44788 40.5479 2.44788H42.2912C42.3182 2.44788 42.3406 2.45679 42.3586 2.47461C42.381 2.49689 42.3855 2.51472 42.3855 2.54591V3.3257C42.3855 3.35243 42.3765 3.37471 42.3586 3.39699C42.3406 3.41481 42.3182 3.42372 42.2912 3.42372H40.5479C40.5165 3.42372 40.5075 3.43709 40.5075 3.46383V4.76941C40.5075 4.79615 40.521 4.80952 40.5479 4.80952H43.2077C43.2392 4.80952 43.2572 4.81843 43.2796 4.83625C43.3021 4.85853 43.3066 4.87636 43.3066 4.90755V5.68734C43.3066 5.71407 43.2976 5.73635 43.2796 5.75863C43.2572 5.77645 43.2392 5.78536 43.2077 5.78536H39.4607C39.4292 5.78536 39.4112 5.77645 39.3888 5.75863C39.3708 5.73635 39.3618 5.71853 39.3618 5.68734V0.24665C39.3618 0.219915 39.3708 0.197635 39.3888 0.179811C39.4112 0.157532 39.4292 0.153076 39.4607 0.153076H43.2077C43.2392 0.153076 43.2572 0.161988 43.2796 0.179811C43.3021 0.202091 43.3066 0.219915 43.3066 0.24665V1.02644C43.3066 1.05763 43.2976 1.07545 43.2796 1.09773" fill="#2D3D34"/>
<path d="M47.2108 5.70968L46.1999 3.48171C46.1999 3.48171 46.1729 3.45052 46.1505 3.45052H45.3957C45.3687 3.45052 45.3553 3.46389 45.3553 3.49063V5.6874C45.3553 5.71859 45.3463 5.73641 45.3283 5.75869C45.3058 5.78097 45.2879 5.78543 45.2564 5.78543H44.3039C44.277 5.78543 44.2545 5.77652 44.2365 5.75869C44.214 5.73641 44.2051 5.71859 44.2051 5.6874V0.246712C44.2051 0.219976 44.214 0.197697 44.2365 0.175417C44.2545 0.153137 44.277 0.148682 44.3039 0.148682H46.6267C46.9727 0.148682 47.2737 0.219976 47.5388 0.35811C47.8039 0.496243 48.006 0.692304 48.1453 0.950748C48.2891 1.20919 48.361 1.50774 48.361 1.84639C48.361 2.21177 48.2711 2.52369 48.0869 2.78659C47.9027 3.04949 47.6466 3.22773 47.3142 3.33912C47.2872 3.35249 47.2782 3.36586 47.2872 3.39705L48.3924 5.67403C48.3924 5.67403 48.4104 5.70968 48.4104 5.72304C48.4104 5.76315 48.3835 5.78988 48.3206 5.78988H47.3187C47.2647 5.78988 47.2288 5.7676 47.2063 5.71859H47.2153L47.2108 5.70968ZM45.3508 1.16463V2.54151C45.3508 2.56825 45.3642 2.58162 45.3912 2.58162H46.4515C46.6807 2.58162 46.8649 2.51478 47.0086 2.3811C47.1524 2.24742 47.2243 2.07364 47.2243 1.8553C47.2243 1.63696 47.1524 1.46764 47.0086 1.32505C46.8649 1.19137 46.6807 1.12007 46.4515 1.12007H45.3912C45.3642 1.12007 45.3508 1.13344 45.3508 1.16018" fill="#2D3D34"/>
<path d="M49.2016 5.75423C49.2016 5.75423 49.1746 5.71413 49.1746 5.68294V4.81404C49.1746 4.77393 49.1881 4.73383 49.215 4.69373L51.8344 1.16909C51.8344 1.16909 51.8479 1.15126 51.8344 1.1379C51.8254 1.12453 51.8119 1.12007 51.7985 1.12007H49.2645C49.2375 1.12007 49.2151 1.11116 49.1926 1.09334C49.1701 1.07106 49.1611 1.05323 49.1611 1.02204V0.246712C49.1611 0.21552 49.1701 0.197697 49.1926 0.175417C49.2106 0.153137 49.233 0.148682 49.2645 0.148682H53.0205C53.0475 0.148682 53.07 0.157593 53.0924 0.175417C53.1104 0.197697 53.1194 0.21552 53.1194 0.246712V1.11562C53.1194 1.15572 53.1059 1.19582 53.079 1.23593L50.4596 4.76056C50.4596 4.76056 50.4596 4.77839 50.4596 4.79175C50.4641 4.80512 50.4776 4.80958 50.491 4.80958H53.025C53.052 4.80958 53.0744 4.81849 53.0924 4.83631C53.1149 4.85859 53.1239 4.87642 53.1239 4.90761V5.6874C53.1239 5.71859 53.1149 5.73641 53.0924 5.75869C53.0744 5.78097 53.052 5.78543 53.025 5.78543H49.269C49.242 5.78543 49.2195 5.77652 49.1971 5.75869H49.2016V5.75423Z" fill="#2D3D34"/>
<path d="M57.6616 5.70083L57.419 4.91213C57.419 4.91213 57.3921 4.88093 57.3786 4.88093H55.3837C55.3837 4.88093 55.3523 4.8943 55.3433 4.91213L55.1097 5.70083C55.0917 5.7543 55.0603 5.78103 55.0019 5.78103H53.973C53.9415 5.78103 53.9146 5.77212 53.9011 5.7543C53.8831 5.73202 53.8786 5.70974 53.8921 5.66518L55.6443 0.224494C55.6623 0.171023 55.6938 0.144287 55.7522 0.144287H57.0237C57.0776 0.144287 57.1135 0.171023 57.1315 0.224494L58.8837 5.66518C58.8837 5.66518 58.8927 5.69191 58.8927 5.70528C58.8927 5.7543 58.8613 5.77658 58.8029 5.77658H57.774C57.72 5.77658 57.6841 5.74984 57.6661 5.69637L57.6616 5.70083ZM55.6668 4.00312H57.0956C57.127 4.00312 57.136 3.98529 57.127 3.9541L56.3946 1.56573C56.3946 1.56573 56.3812 1.53454 56.3722 1.53899C56.3587 1.53899 56.3497 1.55236 56.3452 1.56573L55.6309 3.9541C55.6309 3.98529 55.6354 4.00312 55.6623 4.00312" fill="#2D3D34"/>
<path d="M61.2291 5.7543C61.2291 5.7543 61.2021 5.71419 61.2021 5.683V0.242317C61.2021 0.215582 61.2111 0.193302 61.2291 0.175478C61.2516 0.153199 61.2696 0.144287 61.301 0.144287H63.3273C63.7317 0.144287 64.0866 0.215582 64.3921 0.358171C64.6976 0.500761 64.9312 0.696822 65.102 0.955265C65.2727 1.21371 65.3536 1.51226 65.3536 1.85091V4.07441C65.3536 4.40861 65.2727 4.70715 65.102 4.9656C64.9312 5.22404 64.6976 5.42456 64.3921 5.56269C64.0866 5.70528 63.7317 5.77658 63.3273 5.77658H61.301C61.2696 5.77658 61.2516 5.76766 61.2291 5.74984V5.75875V5.7543ZM62.3883 4.80964H63.3722C63.6193 4.80964 63.8215 4.72943 63.9743 4.56011C64.127 4.39078 64.2079 4.17244 64.2124 3.89172V2.03806C64.2124 1.76179 64.136 1.53899 63.9788 1.36967C63.826 1.20034 63.6193 1.12013 63.3587 1.12013H62.3838C62.3568 1.12013 62.3434 1.1335 62.3434 1.16024V4.76508C62.3434 4.79182 62.3568 4.80518 62.3838 4.80518" fill="#2D3D34"/>
<path d="M70.2684 1.09328C70.2684 1.09328 70.228 1.12001 70.1965 1.12001H67.5367C67.5098 1.12001 67.4963 1.13338 67.4963 1.16012V2.40777C67.4963 2.43451 67.5098 2.44788 67.5367 2.44788H69.2844C69.3114 2.44788 69.3339 2.45679 69.3518 2.47461C69.3743 2.49689 69.3788 2.51472 69.3788 2.54591V3.3257C69.3788 3.35243 69.3698 3.37471 69.3518 3.39699C69.3339 3.41481 69.3114 3.42372 69.2844 3.42372H67.5367C67.5098 3.42372 67.4963 3.43709 67.4963 3.46383V4.76941C67.4963 4.79615 67.5098 4.80952 67.5367 4.80952H70.1965C70.2235 4.80952 70.2459 4.81843 70.2684 4.83625C70.2908 4.85853 70.2953 4.87636 70.2953 4.90755V5.68734C70.2953 5.71407 70.2864 5.73635 70.2684 5.75863C70.2459 5.77645 70.228 5.78536 70.1965 5.78536H66.4494C66.4225 5.78536 66.4 5.77645 66.3775 5.75863C66.3551 5.73635 66.3506 5.71853 66.3506 5.68734V0.24665C66.3506 0.219915 66.3596 0.197635 66.3775 0.179811C66.4 0.157532 66.418 0.153076 66.4494 0.153076H70.1965C70.2235 0.153076 70.2459 0.161988 70.2684 0.179811C70.2908 0.202091 70.2953 0.219915 70.2953 0.24665V1.02644C70.2953 1.05763 70.2864 1.07545 70.2684 1.09773" fill="#2D3D34"/>
<mask id="mask0_4944_24911" style="mask-type:luminance" maskUnits="userSpaceOnUse" x="22" y="8" width="49" height="28">
<path d="M49.8122 8.3833C42.4573 8.40112 33.2019 8.82444 22.1719 10.1077C22.1719 10.1077 44.7397 13.5655 67.1952 23.0923C67.1952 23.0923 60.038 21.1183 48.1723 21.457C48.1723 21.457 56.902 25.0707 70.3447 35.5065L70.2953 9.68443C70.2953 9.68443 63.52 8.41449 50.7018 8.3833H49.8122Z" fill="white"/>
</mask>
<g mask="url(#mask0_4944_24911)">
<path d="M70.3447 8.3833H22.1719V35.5065H70.3447V8.3833Z" fill="url(#paint0_linear_4944_24911)"/>
</g>
<mask id="mask1_4944_24911" style="mask-type:luminance" maskUnits="userSpaceOnUse" x="0" y="9" width="61" height="26">
<path d="M0.09375 9.24805L0.206072 34.3126C5.80422 31.2692 33.2783 15.8829 60.047 21.2077C60.047 21.2077 31.0229 9.9298 0.309428 9.24805H0.09375Z" fill="white"/>
</mask>
<g mask="url(#mask1_4944_24911)">
<path d="M60.047 9.24805H0.09375V34.3126H60.047V9.24805Z" fill="url(#paint1_linear_4944_24911)"/>
</g>
<path d="M0.17041 35.6891L0.22882 48.3662L7.80384 48.335L7.79934 46.8868L1.97654 46.9091L1.95857 42.4398L7.15686 42.4131L7.15236 40.9916L1.95408 41.0139L1.93612 37.1284L7.44891 37.1061L7.43991 35.6624L0.17041 35.6891Z" fill="#2D3D34"/>
<path d="M11.7981 41.8785L8.6486 37.231L10.8501 37.222L12.9618 40.7021L15.0779 37.2042L17.0548 37.1953L13.9862 41.8696L17.4008 46.9716L15.2082 46.9805L12.8225 43.1618L10.4637 47.0028L8.35205 47.0117L11.7981 41.8785Z" fill="#2D3D34"/>
<path d="M22.4192 38.3984C20.4962 38.4073 19.5797 40.2744 19.5887 42.0924C19.5976 43.7233 20.4333 45.7329 22.4327 45.724C24.3332 45.7151 25.1194 43.5406 25.0745 42.0077C25.106 40.2432 24.3421 38.3895 22.4192 38.3984ZM17.7915 37.1909L19.4898 37.182L19.4988 38.5588H19.5348C20.002 37.8281 21.0893 36.9413 22.7876 36.9324C25.5777 36.9191 26.948 39.2317 26.9615 41.8607C26.975 44.5431 25.7574 47.1588 22.855 47.1721C21.1567 47.1811 20.1952 46.5127 19.6426 45.6081H19.6067L19.6291 50.982L17.8589 50.9909L17.7915 37.1864V37.1909Z" fill="#2D3D34"/>
<path d="M32.6538 45.6793C34.7295 45.6704 35.6461 43.7454 35.6371 41.9987C35.6281 40.1406 34.5093 38.3404 32.6178 38.3493C30.7173 38.3582 29.6076 40.1629 29.6166 42.0254C29.6256 43.7722 30.5601 45.6882 32.6493 45.6748M32.6133 36.8878C35.5337 36.8744 37.5061 39.0132 37.5196 41.9853C37.5331 44.7881 35.5427 47.1141 32.6583 47.1319C29.7559 47.1453 27.7475 44.8327 27.7296 42.0299C27.7161 39.0578 29.6705 36.9056 32.6133 36.8878Z" fill="#2D3D34"/>
<path d="M43.9894 42.1949C43.6075 42.1949 43.2346 42.1637 42.8572 42.1637C41.8957 42.1637 39.5235 42.3331 39.5325 44.053C39.5325 45.0913 40.5209 45.6438 41.3296 45.6394C43.0818 45.6304 43.9984 44.512 43.9939 43.0549V42.1905L43.9894 42.1949ZM38.7057 37.788C39.5908 37.2488 40.6467 36.8612 41.8733 36.8612C44.6229 36.8478 45.7461 38.2247 45.7551 40.8849L45.7776 44.9353C45.7776 46.0448 45.818 46.5662 45.8585 46.8514L44.2006 46.8603V45.5948H44.1601C43.7468 46.1919 42.8123 47.0964 41.1903 47.1053C39.1191 47.1143 37.6589 46.2008 37.6499 44.0664C37.6409 41.6112 40.2738 40.8314 42.1024 40.827C42.7988 40.827 43.293 40.8225 43.9939 40.8581C43.9849 39.1693 43.3784 38.3138 41.6082 38.3138C40.6107 38.3138 39.5369 38.7104 38.8226 39.3208L38.7192 37.7836H38.7102L38.7057 37.788Z" fill="#2D3D34"/>
<path d="M53.3575 42.0434C53.3485 40.007 52.4139 38.2692 50.5314 38.2781C48.7432 38.287 47.8671 40.2654 47.8716 41.932C47.8806 43.7678 48.9095 45.3808 50.5629 45.3719C52.2207 45.363 53.3709 43.8658 53.3619 42.0434M55.1456 46.3879C55.1591 49.36 53.6585 51.0711 50.2079 51.0889C49.188 51.0889 48.3029 50.9597 46.7529 50.4339L46.9371 48.7629C48.2984 49.3912 49.1072 49.6363 50.4101 49.6318C52.2747 49.6229 53.3844 48.3351 53.3709 46.2676V45.3096H53.326C52.5802 46.33 51.3356 46.8335 50.1091 46.8379C47.3549 46.8513 45.9891 44.5743 45.9756 42.0434C45.9666 39.5302 47.3504 36.8388 50.2528 36.8299C51.9512 36.821 52.8947 37.4493 53.4248 38.5009H53.4653L53.4563 37.0438H55.0962L55.1366 46.3923H55.1411L55.1456 46.3879Z" fill="#2D3D34"/>
<path d="M56.0933 37.0215L57.7556 37.0126V38.5276H57.7961C58.2633 37.5072 59.2787 36.7764 60.2986 36.772C60.8288 36.772 61.0894 36.8254 61.4713 36.9012L61.4802 38.5142C61.1568 38.385 60.7973 38.3449 60.5008 38.3449C58.9148 38.3494 57.8859 39.8867 57.8949 42.3463L57.9174 46.7889L56.1472 46.7978L56.1023 37.017H56.0933V37.0215Z" fill="#2D3D34"/>
<path d="M65.4745 45.5323C67.5457 45.5234 68.4623 43.5984 68.4578 41.8517C68.4443 39.9935 67.33 38.1978 65.443 38.2067C63.5425 38.2156 62.4328 40.0203 62.4418 41.8829C62.4508 43.6296 63.3808 45.5456 65.4745 45.5323ZM65.4341 36.7452C68.3544 36.7318 70.3268 38.8707 70.3358 41.8428C70.3493 44.6411 68.3634 46.976 65.479 46.9893C62.5721 47.0027 60.5682 44.6901 60.5548 41.8873C60.5413 38.9152 62.4912 36.763 65.4341 36.7452Z" fill="#2D3D34"/>
<defs>
<linearGradient id="paint0_linear_4944_24911" x1="44.5712" y1="1.20391" x2="44.5712" y2="28.5856" gradientUnits="userSpaceOnUse">
<stop stop-color="#95BC20"/>
<stop offset="0.31" stop-color="#73A025"/>
<stop offset="0.77" stop-color="#467C2C"/>
<stop offset="1" stop-color="#356F2F"/>
</linearGradient>
<linearGradient id="paint1_linear_4944_24911" x1="32.0345" y1="14.1954" x2="32.0345" y2="41.5859" gradientUnits="userSpaceOnUse">
<stop stop-color="#F4B117"/>
<stop offset="0.74" stop-color="#EB7F13"/>
<stop offset="1" stop-color="#E86D12"/>
</linearGradient>
</defs>
</svg>
