<svg width="215" height="69" viewBox="0 0 215 69" fill="none" xmlns="http://www.w3.org/2000/svg">
<path d="M85.6841 20.5865V20.5285C85.6841 14.5754 90.168 9.65161 96.2873 9.65161C99.8008 9.65161 102.011 10.8503 104.074 12.597C104.226 12.7485 104.379 12.9579 104.379 13.2253C104.379 13.6441 103.984 14.0051 103.561 14.0051C103.35 14.0051 103.139 13.9115 103.013 13.7956C101.256 12.2049 99.2257 11.0597 96.2559 11.0597C91.1654 11.0597 87.3195 15.177 87.3195 20.4617V20.5196C87.3195 25.8355 91.2283 29.984 96.2873 29.984C99.1628 29.984 101.194 28.9636 103.197 27.0698C103.319 26.9495 103.498 26.8292 103.741 26.8292C104.136 26.8292 104.5 27.1901 104.5 27.5778C104.5 27.8184 104.379 27.9967 104.258 28.1214C102.11 30.1088 99.7738 31.3965 96.2289 31.3965C90.1725 31.3965 85.6841 26.6198 85.6841 20.5775" fill="#2D3D34"/>
<path d="M120.037 23.4427V23.3847C120.037 19.6863 117.246 16.7454 113.675 16.7454C110.103 16.7454 107.376 19.722 107.376 23.3268V23.3847C107.376 27.0832 110.166 30.0241 113.737 30.0241C117.309 30.0241 120.037 27.0475 120.037 23.4427ZM105.767 23.4427V23.3847C105.767 19.0892 109.132 15.3596 113.733 15.3596C118.334 15.3596 121.64 19.0268 121.64 23.3179V23.3758C121.64 27.6713 118.275 31.4009 113.675 31.4009C109.074 31.4009 105.767 27.7337 105.767 23.4382" fill="#2D3D34"/>
<path d="M124.709 16.3488C124.709 15.93 125.01 15.5958 125.437 15.5958C125.864 15.5958 126.197 15.8943 126.197 16.3488V18.5723C127.23 16.7721 128.955 15.3596 131.768 15.3596C135.677 15.3596 137.95 18.002 137.95 21.6737V30.4206C137.95 30.8707 137.645 31.1737 137.222 31.1737C136.8 31.1737 136.467 30.8751 136.467 30.4206V21.9499C136.467 18.7951 134.684 16.7231 131.561 16.7231C128.439 16.7231 126.201 19.0046 126.201 22.1906V30.4251C126.201 30.8751 125.9 31.1782 125.473 31.1782C125.046 31.1782 124.714 30.8796 124.714 30.4251V16.3622L124.709 16.3488Z" fill="#2D3D34"/>
<path d="M154.731 22.6628V22.6049C154.731 19.058 151.55 16.7765 148.342 16.7765C145.134 16.7765 142.371 19 142.371 22.5782V22.6361C142.371 26.0894 145.161 28.4956 148.342 28.4956C151.523 28.4956 154.731 26.1563 154.731 22.6673M141.796 33.8115C141.585 33.66 141.459 33.4194 141.459 33.1476C141.459 32.8223 141.823 32.4569 142.214 32.4569C142.398 32.4569 142.519 32.5149 142.636 32.5773C144.393 33.8695 146.423 34.5289 148.571 34.5289C152.111 34.5289 154.632 32.5193 154.632 28.5803V26.3568C153.297 28.2505 151.24 29.9037 148.18 29.9037C144.451 29.9037 140.758 27.0786 140.758 22.694V22.6361C140.758 18.2158 144.455 15.364 148.18 15.364C151.267 15.364 153.36 16.986 154.632 18.7862V16.3532C154.632 15.9344 154.937 15.6002 155.36 15.6002C155.782 15.6002 156.119 15.9299 156.119 16.3532V28.6739C156.119 30.8974 155.391 32.6396 154.147 33.8695C152.812 35.1929 150.813 35.9147 148.544 35.9147C146.091 35.9147 143.786 35.1929 141.787 33.8115" fill="#2D3D34"/>
<path d="M160.248 16.3489C160.248 15.93 160.549 15.5958 160.976 15.5958C161.403 15.5958 161.731 15.8944 161.731 16.3489V20.074C163.065 17.0975 165.761 15.48 167.944 15.48C168.403 15.48 168.731 15.8409 168.731 16.291C168.731 16.7098 168.425 17.0707 167.944 17.1019C164.674 17.4049 161.731 19.8379 161.731 24.7661V30.4118C161.731 30.8306 161.43 31.1648 161.003 31.1648C160.576 31.1648 160.244 30.8663 160.244 30.4118V16.3489H160.248Z" fill="#2D3D34"/>
<path d="M181.85 22.6584C181.639 19.5616 179.851 16.7098 176.306 16.7098C173.246 16.7098 170.883 19.263 170.609 22.6584H181.845H181.85ZM176.607 31.4054C172.55 31.4054 169.032 28.1927 169.032 23.4115V23.3535C169.032 18.9065 172.186 15.3596 176.364 15.3596C180.543 15.3596 183.454 18.9065 183.454 23.2912C183.454 23.6521 183.09 23.9818 182.726 23.9818H170.609C170.878 27.7961 173.637 30.0196 176.67 30.0196C178.885 30.0196 180.426 29.1195 181.666 27.9164C181.787 27.7961 181.94 27.707 182.151 27.707C182.546 27.707 182.879 28.01 182.879 28.3977C182.879 28.5492 182.82 28.7274 182.636 28.9101C181.122 30.4117 179.397 31.4009 176.607 31.4009" fill="#2D3D34"/>
<path d="M185.274 29.3646C185.152 29.2755 185 29.0394 185 28.7943C185 28.4022 185.332 28.0724 185.727 28.0724C185.907 28.0724 186.091 28.1304 186.213 28.2239C187.821 29.3646 189.51 29.9662 191.361 29.9662C193.451 29.9662 195.091 28.8255 195.091 27.052V26.9941C195.091 25.1894 193.154 24.53 191.002 23.9284C188.49 23.2066 185.7 22.4535 185.7 19.7176V19.6596C185.7 17.1955 187.79 15.4265 190.791 15.4265C192.458 15.4265 194.304 15.9657 195.787 16.8079C195.967 16.9282 196.182 17.1376 196.182 17.4718C196.182 17.8639 195.85 18.1936 195.454 18.1936C195.275 18.1936 195.122 18.1357 195.032 18.0733C193.698 17.2935 192.215 16.8079 190.728 16.8079C188.607 16.8079 187.215 17.9486 187.215 19.4814V19.5393C187.215 21.2504 189.304 21.8831 191.519 22.5159C194.003 23.2066 196.609 24.1111 196.609 26.8114V26.8693C196.609 29.6008 194.25 31.3475 191.276 31.3475C189.187 31.3475 186.855 30.5366 185.274 29.3602" fill="#2D3D34"/>
<path d="M213.026 23.4427V23.3847C213.026 19.6863 210.236 16.7454 206.664 16.7454C203.092 16.7454 200.365 19.722 200.365 23.3268V23.3847C200.365 27.0832 203.155 30.0241 206.727 30.0241C210.299 30.0241 213.026 27.0475 213.026 23.4427ZM198.757 23.4427V23.3847C198.757 19.0892 202.122 15.3596 206.723 15.3596C211.323 15.3596 214.63 19.0268 214.63 23.3179V23.3758C214.63 27.6713 211.265 31.4009 206.664 31.4009C202.064 31.4009 198.757 27.7337 198.757 23.4382" fill="#2D3D34"/>
<path d="M97.9539 50.8598L95.0155 43.9175L92.0817 50.8598H97.9584H97.9539ZM84.8391 56.6882L92.2299 40.1344C92.7466 38.9937 93.6856 38.2986 94.9571 38.2986H95.2312C96.5072 38.2986 97.4147 38.9893 97.9269 40.1344L105.318 56.6882C105.47 57.0224 105.56 57.3165 105.56 57.6195C105.56 58.8493 104.59 59.843 103.345 59.843C102.254 59.843 101.526 59.2147 101.103 58.2522L99.6747 54.9459H90.3474L88.8602 58.3993C88.4649 59.2994 87.6786 59.8385 86.7082 59.8385C85.4996 59.8385 84.5605 58.876 84.5605 57.6774C84.5605 57.3477 84.6819 57.0179 84.8346 56.6882" fill="#2D3D34"/>
<path d="M116.829 53.9792V53.1682C116.042 52.8073 115.013 52.5667 113.89 52.5667C111.922 52.5667 110.709 53.3464 110.709 54.7902V54.8481C110.709 56.0824 111.738 56.7998 113.225 56.7998C115.373 56.7998 116.829 55.6279 116.829 53.9747M106.257 55.0263V54.9684C106.257 51.4527 108.953 49.8307 112.798 49.8307C114.438 49.8307 115.616 50.0981 116.766 50.4902V50.2184C116.766 48.3246 115.584 47.273 113.284 47.273C112.012 47.273 110.983 47.4557 110.103 47.7275C109.829 47.8166 109.649 47.8434 109.438 47.8434C108.377 47.8434 107.528 47.0324 107.528 45.9808C107.528 45.1698 108.045 44.4792 108.773 44.2118C110.224 43.6682 111.801 43.3696 113.953 43.3696C116.474 43.3696 118.289 44.0291 119.439 45.1743C120.648 46.3729 121.196 48.1508 121.196 50.312V57.642C121.196 58.8718 120.198 59.8387 118.954 59.8387C117.619 59.8387 116.739 58.9074 116.739 57.9494V57.9182C115.616 59.1525 114.074 59.9635 111.833 59.9635C108.773 59.9635 106.261 58.2212 106.261 55.0352" fill="#2D3D34"/>
<path d="M136.099 51.6397V51.5818C136.099 48.9082 134.279 47.1348 132.132 47.1348C129.984 47.1348 128.191 48.9082 128.191 51.5818V51.6397C128.191 54.3133 129.975 56.0867 132.132 56.0867C134.288 56.0867 136.099 54.3445 136.099 51.6397ZM123.645 45.6599C123.645 44.3988 124.678 43.3784 125.945 43.3784C127.212 43.3784 128.245 44.3988 128.245 45.6599V45.8693C129.364 44.3676 130.91 43.2537 133.3 43.2537C137.087 43.2537 140.691 46.1946 140.691 51.5773V51.6353C140.691 57.0136 137.146 59.9545 133.3 59.9545C130.847 59.9545 129.333 58.8449 128.245 57.5483V62.3562C128.245 63.6172 127.212 64.6376 125.945 64.6376C124.678 64.6376 123.645 63.6172 123.645 62.3562V45.6509V45.6599Z" fill="#2D3D34"/>
<path d="M142.582 45.6599C142.582 44.3988 143.611 43.3784 144.882 43.3784C146.154 43.3784 147.183 44.3988 147.183 45.6599V46.3817C147.848 44.8221 148.939 43.3784 150.301 43.3784C151.662 43.3784 152.543 44.3097 152.543 45.6019C152.543 46.8006 151.757 47.5224 150.818 47.7319C148.486 48.271 147.183 50.0445 147.183 53.2929V57.5616C147.183 58.8182 146.149 59.8431 144.882 59.8431C143.615 59.8431 142.582 58.8227 142.582 57.5616V45.6643V45.6599Z" fill="#2D3D34"/>
<path d="M163.941 50.3476C163.667 48.3023 162.458 46.9165 160.517 46.9165C158.577 46.9165 157.363 48.2666 157.004 50.3476H163.946H163.941ZM160.976 60.0258C156.096 60.0258 152.493 56.6304 152.493 51.7022V51.6442C152.493 47.0502 155.795 43.2671 160.522 43.2671C165.945 43.2671 168.335 47.6829 168.335 51.0159C168.335 52.3394 167.396 53.2127 166.188 53.2127H157.071C157.525 55.2847 158.976 56.3675 161.039 56.3675C162.31 56.3675 163.37 55.9754 164.309 55.2847C164.642 55.0486 164.943 54.9238 165.433 54.9238C166.462 54.9238 167.216 55.7036 167.216 56.7284C167.216 57.33 166.947 57.7845 166.61 58.0786C165.181 59.2817 163.339 60.0303 160.971 60.0303" fill="#2D3D34"/>
<path d="M169.912 58.1319C169.427 57.8289 169.032 57.2898 169.032 56.5724C169.032 55.5475 169.818 54.7677 170.851 54.7677C171.184 54.7677 171.516 54.8568 171.759 55.0083C173.304 55.9708 174.85 56.452 176.148 56.452C177.447 56.452 178.085 55.9708 178.085 55.2534V55.1955C178.085 54.2063 176.512 53.8721 174.72 53.3329C172.446 52.669 169.872 51.6218 169.872 48.4938V48.4358C169.872 45.1607 172.536 43.3293 175.807 43.3293C177.505 43.3293 179.258 43.7794 180.839 44.5636C181.504 44.8978 181.931 45.4949 181.931 46.2747C181.931 47.2951 181.113 48.0794 180.084 48.0794C179.752 48.0794 179.536 48.0214 179.235 47.8699C177.932 47.2416 176.692 46.8495 175.722 46.8495C174.603 46.8495 174.023 47.3308 174.023 47.9635V48.0214C174.023 48.9215 175.569 49.3404 177.326 49.9419C179.599 50.695 182.232 51.7733 182.232 54.7187V54.7766C182.232 58.3503 179.536 59.9767 176.018 59.9767C174.014 59.9767 171.867 59.4063 169.899 58.1453" fill="#2D3D34"/>
<path d="M184.245 45.6598C184.245 44.3988 185.274 43.3784 186.545 43.3784C187.817 43.3784 188.845 44.3988 188.845 45.6598V57.5571C188.845 58.8182 187.817 59.8386 186.545 59.8386C185.274 59.8386 184.245 58.8182 184.245 57.5571V45.6598ZM183.975 39.7156C183.975 38.3967 185.098 37.5857 186.55 37.5857C188.001 37.5857 189.128 38.3967 189.128 39.7156V39.7736C189.128 41.097 188.005 41.9347 186.55 41.9347C185.094 41.9347 183.975 41.0925 183.975 39.7736V39.7156Z" fill="#2D3D34"/>
<path d="M195.544 51.5818V51.6397C195.544 54.3133 197.359 56.0868 199.516 56.0868C201.672 56.0868 203.456 54.3133 203.456 51.6397V51.5818C203.456 48.9083 201.672 47.1393 199.516 47.1393C197.359 47.1393 195.544 48.8815 195.544 51.5818ZM207.994 57.5617C207.994 58.8227 206.965 59.8431 205.694 59.8431C204.422 59.8431 203.393 58.8227 203.393 57.5617V57.3522C202.274 58.8539 200.729 59.9679 198.334 59.9679C194.547 59.9679 190.943 57.027 190.943 51.6442V51.5863C190.943 46.208 194.488 43.2671 198.334 43.2671C200.787 43.2671 202.301 44.3766 203.393 45.6733V39.8449C203.393 38.5794 204.422 37.5635 205.694 37.5635C206.965 37.5635 207.994 38.5839 207.994 39.8449V57.5706V57.5617Z" fill="#2D3D34"/>
<mask id="mask0_4944_24910" style="mask-type:luminance" maskUnits="userSpaceOnUse" x="0" y="0" width="73" height="69">
<path d="M39.9958 45.5306C39.9958 41.7431 43.2217 38.5438 47.0451 38.5438C50.8686 38.5438 54.09 41.7431 54.09 45.5306C54.09 49.3182 50.927 52.5175 47.0451 52.5175C43.1633 52.5175 39.9958 49.3806 39.9958 45.5306ZM18.012 47.0457C18.012 45.3881 18.8477 43.6903 20.1192 41.2886L32.596 17.6945C33.7956 15.4309 35.4355 12.3251 38.877 12.3251C42.1254 12.3251 44.4842 14.6199 44.4842 17.7925C44.4842 19.4501 43.6485 21.1478 42.377 23.5496L29.9047 47.1437C28.7051 49.4118 27.0697 52.5131 23.6192 52.5131C20.3708 52.5131 18.0165 50.2183 18.012 47.0457ZM35.0311 0C32.6544 0.267356 30.4663 1.49273 28.9432 3.22163V3.21272C28.5434 3.67614 28.1031 4.11282 27.6358 4.51831C25.1243 6.53684 21.9523 7.77559 18.4973 7.87808L18.1109 7.86916C13.29 7.86916 9.38117 11.6389 8.9813 16.4067C8.71173 20.7022 6.63152 24.4898 3.5404 27.0564C1.86455 28.2015 0.606541 29.9037 0 31.8955V37.3451C0.588569 39.2834 1.78368 40.9277 3.3517 42.1308C6.56412 44.635 8.70723 48.4716 9.07116 52.7938C9.28682 55.2713 10.4954 57.4636 12.2881 58.9697C13.928 60.5159 16.1654 61.4606 18.6635 61.4606C22.3252 61.5363 25.6814 62.9578 28.2873 65.2392C28.6153 65.5556 28.9387 65.8764 29.2398 66.2061C30.3405 67.5073 31.8007 68.492 33.4631 69H38.6793C40.4181 68.4697 41.9816 67.4404 43.1453 66.1126C43.5541 65.6491 43.9944 65.2125 44.4572 64.8025C46.9687 62.7884 50.1497 61.5497 53.6003 61.4472L53.9911 61.4561C58.8075 61.4561 62.7253 57.6864 63.1117 52.9186C63.3858 48.6275 65.457 44.8355 68.5571 42.2689C70.9473 40.6247 72.4974 37.8486 72.4974 34.725C72.4974 31.6014 71.0057 28.9412 68.7458 27.1945C65.5379 24.6947 63.3903 20.8582 63.0264 16.5359C62.8107 14.0629 61.6021 11.8661 59.8094 10.3645C58.1605 8.81828 55.9321 7.87362 53.434 7.87362C49.7723 7.79787 46.4251 6.37197 43.8102 4.08608C43.4733 3.77862 43.1543 3.4578 42.8532 3.12806C41.4065 1.41698 39.3443 0.2629 37.008 0.00445592H35.0266L35.0311 0Z" fill="white"/>
</mask>
<g mask="url(#mask0_4944_24910)">
<path d="M72.5019 0H0V69H72.5019V0Z" fill="url(#paint0_linear_4944_24910)"/>
</g>
<defs>
<linearGradient id="paint0_linear_4944_24910" x1="1.88657" y1="33.4076" x2="74.7883" y2="33.4076" gradientUnits="userSpaceOnUse">
<stop stop-color="#90B524"/>
<stop offset="0.47" stop-color="#739D29"/>
<stop offset="1" stop-color="#58862F"/>
</linearGradient>
</defs>
</svg>
