<svg width="204" height="60" viewBox="0 0 204 60" fill="none" xmlns="http://www.w3.org/2000/svg">
<path d="M30.8125 26.6109C30.8125 27.2659 30.5699 27.8318 30.0892 28.3086L26.8588 31.548C26.4274 31.9758 25.8973 32.1897 25.2638 32.1897H5.96229C5.30184 32.1897 4.75819 31.9758 4.32687 31.548L1.09648 28.2685C0.6382 27.814 0.413574 27.2392 0.413574 26.5351V16.6608C0.413574 16.0058 0.651691 15.4443 1.13692 14.9675L4.36732 11.7281C4.79864 11.3003 5.32879 11.0864 5.96229 11.0864H25.2638C25.9242 11.0864 26.4679 11.3003 26.8992 11.7281L30.1296 15.0076C30.5834 15.4621 30.8125 16.037 30.8125 16.741V19.5304H24.5449V17.7213L22.6804 15.9122H8.50976L6.68564 17.7213V25.4835L8.54571 27.3684H22.7163L24.5404 25.5593V23.6744H30.808V26.6153L30.8125 26.6109Z" fill="#2D3D34"/>
<path d="M65.2773 4.00144L61.0989 8.0697C60.6181 8.54648 60.061 8.7871 59.4275 8.7871H35.377V3.96134H57.1856L60.4923 0.530273L65.2817 3.99698L65.2773 4.00144ZM65.7715 26.5351C65.7715 27.2391 65.5423 27.8184 65.0886 28.2684L61.8582 31.548C61.4268 31.9757 60.8832 32.1896 60.2228 32.1896H40.9213C40.2608 32.1896 39.7172 31.9757 39.2859 31.548L36.0555 28.2684C35.6017 27.8139 35.3726 27.2391 35.3726 26.5351V16.6607C35.3726 16.0102 35.6107 15.4443 36.0959 14.9675L39.3263 11.728C39.7576 11.3002 40.2878 11.0864 40.9213 11.0864H60.2228C60.8563 11.0864 61.3864 11.3002 61.8177 11.728L65.0481 14.9675C65.5289 15.4443 65.7715 16.0102 65.7715 16.6607V26.5351ZM59.5039 25.479V17.6767L57.7157 15.9077H43.4687L41.6446 17.7168V25.479L43.5047 27.3639H57.6394L59.4994 25.479H59.5039Z" fill="#2D3D34"/>
<path d="M100.726 26.5351C100.726 27.2392 100.497 27.8184 100.043 28.2685L96.8128 31.548C96.3815 31.9758 95.8378 32.1897 95.1774 32.1897H72.6455C71.0999 32.1897 70.3271 31.3876 70.3271 29.779V13.4971C70.3271 11.8885 71.0999 11.0864 72.6455 11.0864H95.1774C95.8109 11.0864 96.341 11.3003 96.7723 11.7281L100.003 14.9675C100.483 15.4443 100.726 16.0102 100.726 16.6608V26.5351ZM94.4585 25.4791V17.6812L92.6703 15.9077H76.5992V27.3639H92.5939L94.4585 25.4791Z" fill="#2D3D34"/>
<path d="M111.554 11.0864H105.287V32.1897H111.554V11.0864Z" fill="#2D3D34"/>
<path d="M146.513 26.5395C146.513 27.2435 146.284 27.8228 145.83 28.2729L142.6 31.5524C142.169 31.9802 141.625 32.1941 140.964 32.1941H121.663C121.003 32.1941 120.459 31.9802 120.028 31.5524L116.797 28.2729C116.339 27.8184 116.114 27.2435 116.114 26.5395V16.6652C116.114 16.0146 116.352 15.4487 116.838 14.9719L120.068 11.7325C120.499 11.3047 121.03 11.0908 121.663 11.0908H145.601V15.725H124.246L122.386 17.6455V25.5993L124.246 27.4842H138.381L140.246 25.5993V23.7902H126.641V19.4947H144.195C145.74 19.4947 146.513 20.2968 146.513 21.9054V26.5395Z" fill="#2D3D34"/>
<path d="M181.468 26.5351C181.468 27.2392 181.239 27.8184 180.785 28.2685L177.555 31.548C177.124 31.9758 176.58 32.1897 175.92 32.1897H156.618C155.958 32.1897 155.414 31.9758 154.983 31.548L151.752 28.2685C151.298 27.814 151.069 27.2392 151.069 26.5351V16.6608C151.069 16.0102 151.307 15.4443 151.793 14.9675L155.023 11.7281C155.454 11.3003 155.985 11.0864 156.618 11.0864H175.92C176.553 11.0864 177.083 11.3003 177.515 11.7281L180.745 14.9675C181.226 15.4443 181.468 16.0102 181.468 16.6608V26.5351ZM175.201 25.4791V17.6812L173.413 15.9077H159.166L157.341 17.7168V25.4791L159.206 27.3639H173.341L175.205 25.4791H175.201Z" fill="#2D3D34"/>
<path d="M30.0532 59.4643H23.7856V55.2446H6.68564V59.4643H0.413574V44.0157C0.413574 43.3116 0.642693 42.7323 1.09648 42.2823L4.32687 39.0027C4.75819 38.575 5.30184 38.3611 5.96229 38.3611H24.5045C25.1649 38.3611 25.7086 38.575 26.1399 39.0027L29.3703 42.2823C29.8285 42.7368 30.0532 43.3116 30.0532 44.0157V59.4643ZM23.7856 50.4946V45.0673L21.8851 43.1824H8.5502L6.69014 45.0673V50.4946H23.7901H23.7856Z" fill="#2D3D34"/>
<path d="M66.149 53.8141C66.149 54.5181 65.9199 55.0974 65.4661 55.5475L62.2357 58.827C61.8044 59.2548 61.2607 59.4687 60.6003 59.4687H36.9272C35.3817 59.4687 34.6089 58.6666 34.6089 57.058V40.7805C34.6089 39.1719 35.3817 38.3699 36.9272 38.3699H57.4058C58.0393 38.3699 58.5695 38.5838 59.0008 39.0115L62.1908 42.251C62.6715 42.7278 62.9141 43.2937 62.9141 43.9442V46.7693H64.4327C64.9135 46.7693 65.3178 47.001 65.6503 47.4689C65.9783 47.9323 66.1445 48.418 66.1445 48.9215V53.8186L66.149 53.8141ZM56.687 46.7648V44.8443L54.8988 43.0709H40.8765V46.7648H56.6825H56.687ZM59.8769 52.8695V51.0603H40.8765V54.7543H58.0483L59.8724 52.8695H59.8769Z" fill="#2D3D34"/>
<path d="M76.9766 38.3611H70.709V59.4643H76.9766V38.3611Z" fill="#2D3D34"/>
<path d="M109.011 59.4644H87.0858C86.4254 59.4644 85.8817 59.2505 85.4504 58.8228L82.22 55.5432C81.7662 55.0887 81.5371 54.5139 81.5371 53.8098V43.9355C81.5371 43.2805 81.7797 42.719 82.2605 42.2378L85.4909 38.9983C85.9222 38.5706 86.4523 38.3567 87.0858 38.3567H109.011V43.0666H89.6333L87.8092 44.8757V46.7606H109.011V51.0561H87.8092V52.8652L89.6692 54.75H109.011V59.4599V59.4644Z" fill="#2D3D34"/>
<path d="M144.572 59.4643H138.305V54.7544C137.9 54.3534 137.28 53.7519 136.44 52.9453H119.722V59.4643H113.455V40.7717C113.455 39.1632 114.227 38.3611 115.777 38.3611H135.906C136.539 38.3611 137.074 38.575 137.505 39.0027L140.699 42.2422C141.18 42.719 141.423 43.2849 141.423 43.9399V49.7059L143.872 52.0051C144.02 52.1299 144.173 52.3972 144.334 52.7983C144.496 53.1993 144.577 53.5023 144.577 53.7028V59.4688L144.572 59.4643ZM135.151 48.1196V44.9559L133.327 43.1824H119.722V48.1196H135.151Z" fill="#2D3D34"/>
<path d="M172.424 43.1868H161.138V59.4643H154.87V43.1868H143.584V38.3655H172.424V43.1868Z" fill="#2D3D34"/>
<path d="M204 53.8142C204 54.5182 203.771 55.0975 203.317 55.5475L200.087 58.8271C199.655 59.2549 199.112 59.4687 198.451 59.4687H179.15C178.489 59.4687 177.946 59.2549 177.514 58.8271L174.284 55.5475C173.826 55.093 173.601 54.5182 173.601 53.8142V43.9398C173.601 43.2893 173.839 42.7234 174.324 42.2466L177.555 39.0071C177.986 38.5794 178.516 38.3655 179.15 38.3655H198.451C199.085 38.3655 199.615 38.5794 200.046 39.0071L203.277 42.2466C203.757 42.7234 204 43.2893 204 43.9398V53.8142ZM197.732 52.7581V44.9602L195.944 43.1868H181.697L179.873 44.9959V52.7581L181.733 54.643H195.868L197.732 52.7581Z" fill="#2D3D34"/>
</svg>
